<?xml version="1.0" encoding="utf-8" standalone="no"?>
<!DOCTYPE svg PUBLIC "-//W3C//DTD SVG 1.1//EN"
  "http://www.w3.org/Graphics/SVG/1.1/DTD/svg11.dtd">
<svg xmlns:xlink="http://www.w3.org/1999/xlink" width="994.455625pt" height="367.522578pt" viewBox="0 0 994.455625 367.522578" xmlns="http://www.w3.org/2000/svg" version="1.1">
 <metadata>
  <rdf:RDF xmlns:dc="http://purl.org/dc/elements/1.1/" xmlns:cc="http://creativecommons.org/ns#" xmlns:rdf="http://www.w3.org/1999/02/22-rdf-syntax-ns#">
   <cc:Work>
    <dc:type rdf:resource="http://purl.org/dc/dcmitype/StillImage"/>
    <dc:date>2026-05-07T16:38:06.346453</dc:date>
    <dc:format>image/svg+xml</dc:format>
    <dc:creator>
     <cc:Agent>
      <dc:title>Matplotlib v3.10.8, https://matplotlib.org/</dc:title>
     </cc:Agent>
    </dc:creator>
   </cc:Work>
  </rdf:RDF>
 </metadata>
 <defs>
  <style type="text/css">*{stroke-linejoin: round; stroke-linecap: butt}</style>
 </defs>
 <g id="figure_1">
  <g id="patch_1">
   <path d="M 0 367.522578 
L 994.455625 367.522578 
L 994.455625 0 
L 0 0 
z
" style="fill: #ffffff"/>
  </g>
  <g id="axes_1">
   <g id="patch_2">
    <path d="M 51.455625 352.68 
L 324.615625 352.68 
L 324.615625 85.92 
L 51.455625 85.92 
z
" style="fill: #ffffff"/>
   </g>
   <g id="patch_3">
    <path d="M 51.455625 144.153657 
L 324.615625 144.153657 
L 324.615625 123.204973 
L 51.455625 123.204973 
z
" clip-path="url(#p14cbdf87d2)" style="fill: #e74c3c; opacity: 0.12; stroke: #e74c3c; stroke-linejoin: miter"/>
   </g>
   <g id="matplotlib.axis_1"/>
   <g id="matplotlib.axis_2">
    <g id="ytick_1">
     <g id="line2d_1">
      <path d="M 51.455625 352.68 
L 324.615625 352.68 
" clip-path="url(#p14cbdf87d2)" style="fill: none; stroke: #b0b0b0; stroke-opacity: 0.3; stroke-width: 0.8; stroke-linecap: square"/>
     </g>
     <g id="line2d_2">
      <defs>
       <path id="m598aefc114" d="M 0 0 
L -3.5 0 
" style="stroke: #000000; stroke-width: 0.8"/>
      </defs>
      <g>
       <use xlink:href="#m598aefc114" x="51.455625" y="352.68" style="stroke: #000000; stroke-width: 0.8"/>
      </g>
     </g>
     <g id="text_1">
      <!-- 0.2 -->
      <g transform="translate(23.781563 357.618984) scale(0.13 -0.13)">
       <defs>
        <path id="DejaVuSans-30" d="M 2034 4250 
Q 1547 4250 1301 3770 
Q 1056 3291 1056 2328 
Q 1056 1369 1301 889 
Q 1547 409 2034 409 
Q 2525 409 2770 889 
Q 3016 1369 3016 2328 
Q 3016 3291 2770 3770 
Q 2525 4250 2034 4250 
z
M 2034 4750 
Q 2819 4750 3233 4129 
Q 3647 3509 3647 2328 
Q 3647 1150 3233 529 
Q 2819 -91 2034 -91 
Q 1250 -91 836 529 
Q 422 1150 422 2328 
Q 422 3509 836 4129 
Q 1250 4750 2034 4750 
z
" transform="scale(0.015625)"/>
        <path id="DejaVuSans-2e" d="M 684 794 
L 1344 794 
L 1344 0 
L 684 0 
L 684 794 
z
" transform="scale(0.015625)"/>
        <path id="DejaVuSans-32" d="M 1228 531 
L 3431 531 
L 3431 0 
L 469 0 
L 469 531 
Q 828 903 1448 1529 
Q 2069 2156 2228 2338 
Q 2531 2678 2651 2914 
Q 2772 3150 2772 3378 
Q 2772 3750 2511 3984 
Q 2250 4219 1831 4219 
Q 1534 4219 1204 4116 
Q 875 4013 500 3803 
L 500 4441 
Q 881 4594 1212 4672 
Q 1544 4750 1819 4750 
Q 2544 4750 2975 4387 
Q 3406 4025 3406 3419 
Q 3406 3131 3298 2873 
Q 3191 2616 2906 2266 
Q 2828 2175 2409 1742 
Q 1991 1309 1228 531 
z
" transform="scale(0.015625)"/>
       </defs>
       <use xlink:href="#DejaVuSans-30"/>
       <use xlink:href="#DejaVuSans-2e" transform="translate(63.623047 0)"/>
       <use xlink:href="#DejaVuSans-32" transform="translate(95.410156 0)"/>
      </g>
     </g>
    </g>
    <g id="ytick_2">
     <g id="line2d_3">
      <path d="M 51.455625 320.148293 
L 324.615625 320.148293 
" clip-path="url(#p14cbdf87d2)" style="fill: none; stroke: #b0b0b0; stroke-opacity: 0.3; stroke-width: 0.8; stroke-linecap: square"/>
     </g>
     <g id="line2d_4">
      <g>
       <use xlink:href="#m598aefc114" x="51.455625" y="320.148293" style="stroke: #000000; stroke-width: 0.8"/>
      </g>
     </g>
     <g id="text_2">
      <!-- 0.3 -->
      <g transform="translate(23.781563 325.087277) scale(0.13 -0.13)">
       <defs>
        <path id="DejaVuSans-33" d="M 2597 2516 
Q 3050 2419 3304 2112 
Q 3559 1806 3559 1356 
Q 3559 666 3084 287 
Q 2609 -91 1734 -91 
Q 1441 -91 1130 -33 
Q 819 25 488 141 
L 488 750 
Q 750 597 1062 519 
Q 1375 441 1716 441 
Q 2309 441 2620 675 
Q 2931 909 2931 1356 
Q 2931 1769 2642 2001 
Q 2353 2234 1838 2234 
L 1294 2234 
L 1294 2753 
L 1863 2753 
Q 2328 2753 2575 2939 
Q 2822 3125 2822 3475 
Q 2822 3834 2567 4026 
Q 2313 4219 1838 4219 
Q 1578 4219 1281 4162 
Q 984 4106 628 3988 
L 628 4550 
Q 988 4650 1302 4700 
Q 1616 4750 1894 4750 
Q 2613 4750 3031 4423 
Q 3450 4097 3450 3541 
Q 3450 3153 3228 2886 
Q 3006 2619 2597 2516 
z
" transform="scale(0.015625)"/>
       </defs>
       <use xlink:href="#DejaVuSans-30"/>
       <use xlink:href="#DejaVuSans-2e" transform="translate(63.623047 0)"/>
       <use xlink:href="#DejaVuSans-33" transform="translate(95.410156 0)"/>
      </g>
     </g>
    </g>
    <g id="ytick_3">
     <g id="line2d_5">
      <path d="M 51.455625 287.616585 
L 324.615625 287.616585 
" clip-path="url(#p14cbdf87d2)" style="fill: none; stroke: #b0b0b0; stroke-opacity: 0.3; stroke-width: 0.8; stroke-linecap: square"/>
     </g>
     <g id="line2d_6">
      <g>
       <use xlink:href="#m598aefc114" x="51.455625" y="287.616585" style="stroke: #000000; stroke-width: 0.8"/>
      </g>
     </g>
     <g id="text_3">
      <!-- 0.4 -->
      <g transform="translate(23.781563 292.55557) scale(0.13 -0.13)">
       <defs>
        <path id="DejaVuSans-34" d="M 2419 4116 
L 825 1625 
L 2419 1625 
L 2419 4116 
z
M 2253 4666 
L 3047 4666 
L 3047 1625 
L 3713 1625 
L 3713 1100 
L 3047 1100 
L 3047 0 
L 2419 0 
L 2419 1100 
L 313 1100 
L 313 1709 
L 2253 4666 
z
" transform="scale(0.015625)"/>
       </defs>
       <use xlink:href="#DejaVuSans-30"/>
       <use xlink:href="#DejaVuSans-2e" transform="translate(63.623047 0)"/>
       <use xlink:href="#DejaVuSans-34" transform="translate(95.410156 0)"/>
      </g>
     </g>
    </g>
    <g id="ytick_4">
     <g id="line2d_7">
      <path d="M 51.455625 255.084878 
L 324.615625 255.084878 
" clip-path="url(#p14cbdf87d2)" style="fill: none; stroke: #b0b0b0; stroke-opacity: 0.3; stroke-width: 0.8; stroke-linecap: square"/>
     </g>
     <g id="line2d_8">
      <g>
       <use xlink:href="#m598aefc114" x="51.455625" y="255.084878" style="stroke: #000000; stroke-width: 0.8"/>
      </g>
     </g>
     <g id="text_4">
      <!-- 0.5 -->
      <g transform="translate(23.781563 260.023862) scale(0.13 -0.13)">
       <defs>
        <path id="DejaVuSans-35" d="M 691 4666 
L 3169 4666 
L 3169 4134 
L 1269 4134 
L 1269 2991 
Q 1406 3038 1543 3061 
Q 1681 3084 1819 3084 
Q 2600 3084 3056 2656 
Q 3513 2228 3513 1497 
Q 3513 744 3044 326 
Q 2575 -91 1722 -91 
Q 1428 -91 1123 -41 
Q 819 9 494 109 
L 494 744 
Q 775 591 1075 516 
Q 1375 441 1709 441 
Q 2250 441 2565 725 
Q 2881 1009 2881 1497 
Q 2881 1984 2565 2268 
Q 2250 2553 1709 2553 
Q 1456 2553 1204 2497 
Q 953 2441 691 2322 
L 691 4666 
z
" transform="scale(0.015625)"/>
       </defs>
       <use xlink:href="#DejaVuSans-30"/>
       <use xlink:href="#DejaVuSans-2e" transform="translate(63.623047 0)"/>
       <use xlink:href="#DejaVuSans-35" transform="translate(95.410156 0)"/>
      </g>
     </g>
    </g>
    <g id="ytick_5">
     <g id="line2d_9">
      <path d="M 51.455625 222.553171 
L 324.615625 222.553171 
" clip-path="url(#p14cbdf87d2)" style="fill: none; stroke: #b0b0b0; stroke-opacity: 0.3; stroke-width: 0.8; stroke-linecap: square"/>
     </g>
     <g id="line2d_10">
      <g>
       <use xlink:href="#m598aefc114" x="51.455625" y="222.553171" style="stroke: #000000; stroke-width: 0.8"/>
      </g>
     </g>
     <g id="text_5">
      <!-- 0.6 -->
      <g transform="translate(23.781563 227.492155) scale(0.13 -0.13)">
       <defs>
        <path id="DejaVuSans-36" d="M 2113 2584 
Q 1688 2584 1439 2293 
Q 1191 2003 1191 1497 
Q 1191 994 1439 701 
Q 1688 409 2113 409 
Q 2538 409 2786 701 
Q 3034 994 3034 1497 
Q 3034 2003 2786 2293 
Q 2538 2584 2113 2584 
z
M 3366 4563 
L 3366 3988 
Q 3128 4100 2886 4159 
Q 2644 4219 2406 4219 
Q 1781 4219 1451 3797 
Q 1122 3375 1075 2522 
Q 1259 2794 1537 2939 
Q 1816 3084 2150 3084 
Q 2853 3084 3261 2657 
Q 3669 2231 3669 1497 
Q 3669 778 3244 343 
Q 2819 -91 2113 -91 
Q 1303 -91 875 529 
Q 447 1150 447 2328 
Q 447 3434 972 4092 
Q 1497 4750 2381 4750 
Q 2619 4750 2861 4703 
Q 3103 4656 3366 4563 
z
" transform="scale(0.015625)"/>
       </defs>
       <use xlink:href="#DejaVuSans-30"/>
       <use xlink:href="#DejaVuSans-2e" transform="translate(63.623047 0)"/>
       <use xlink:href="#DejaVuSans-36" transform="translate(95.410156 0)"/>
      </g>
     </g>
    </g>
    <g id="ytick_6">
     <g id="line2d_11">
      <path d="M 51.455625 190.021463 
L 324.615625 190.021463 
" clip-path="url(#p14cbdf87d2)" style="fill: none; stroke: #b0b0b0; stroke-opacity: 0.3; stroke-width: 0.8; stroke-linecap: square"/>
     </g>
     <g id="line2d_12">
      <g>
       <use xlink:href="#m598aefc114" x="51.455625" y="190.021463" style="stroke: #000000; stroke-width: 0.8"/>
      </g>
     </g>
     <g id="text_6">
      <!-- 0.7 -->
      <g transform="translate(23.781563 194.960448) scale(0.13 -0.13)">
       <defs>
        <path id="DejaVuSans-37" d="M 525 4666 
L 3525 4666 
L 3525 4397 
L 1831 0 
L 1172 0 
L 2766 4134 
L 525 4134 
L 525 4666 
z
" transform="scale(0.015625)"/>
       </defs>
       <use xlink:href="#DejaVuSans-30"/>
       <use xlink:href="#DejaVuSans-2e" transform="translate(63.623047 0)"/>
       <use xlink:href="#DejaVuSans-37" transform="translate(95.410156 0)"/>
      </g>
     </g>
    </g>
    <g id="ytick_7">
     <g id="line2d_13">
      <path d="M 51.455625 157.489756 
L 324.615625 157.489756 
" clip-path="url(#p14cbdf87d2)" style="fill: none; stroke: #b0b0b0; stroke-opacity: 0.3; stroke-width: 0.8; stroke-linecap: square"/>
     </g>
     <g id="line2d_14">
      <g>
       <use xlink:href="#m598aefc114" x="51.455625" y="157.489756" style="stroke: #000000; stroke-width: 0.8"/>
      </g>
     </g>
     <g id="text_7">
      <!-- 0.8 -->
      <g transform="translate(23.781563 162.42874) scale(0.13 -0.13)">
       <defs>
        <path id="DejaVuSans-38" d="M 2034 2216 
Q 1584 2216 1326 1975 
Q 1069 1734 1069 1313 
Q 1069 891 1326 650 
Q 1584 409 2034 409 
Q 2484 409 2743 651 
Q 3003 894 3003 1313 
Q 3003 1734 2745 1975 
Q 2488 2216 2034 2216 
z
M 1403 2484 
Q 997 2584 770 2862 
Q 544 3141 544 3541 
Q 544 4100 942 4425 
Q 1341 4750 2034 4750 
Q 2731 4750 3128 4425 
Q 3525 4100 3525 3541 
Q 3525 3141 3298 2862 
Q 3072 2584 2669 2484 
Q 3125 2378 3379 2068 
Q 3634 1759 3634 1313 
Q 3634 634 3220 271 
Q 2806 -91 2034 -91 
Q 1263 -91 848 271 
Q 434 634 434 1313 
Q 434 1759 690 2068 
Q 947 2378 1403 2484 
z
M 1172 3481 
Q 1172 3119 1398 2916 
Q 1625 2713 2034 2713 
Q 2441 2713 2670 2916 
Q 2900 3119 2900 3481 
Q 2900 3844 2670 4047 
Q 2441 4250 2034 4250 
Q 1625 4250 1398 4047 
Q 1172 3844 1172 3481 
z
" transform="scale(0.015625)"/>
       </defs>
       <use xlink:href="#DejaVuSans-30"/>
       <use xlink:href="#DejaVuSans-2e" transform="translate(63.623047 0)"/>
       <use xlink:href="#DejaVuSans-38" transform="translate(95.410156 0)"/>
      </g>
     </g>
    </g>
    <g id="ytick_8">
     <g id="line2d_15">
      <path d="M 51.455625 124.958049 
L 324.615625 124.958049 
" clip-path="url(#p14cbdf87d2)" style="fill: none; stroke: #b0b0b0; stroke-opacity: 0.3; stroke-width: 0.8; stroke-linecap: square"/>
     </g>
     <g id="line2d_16">
      <g>
       <use xlink:href="#m598aefc114" x="51.455625" y="124.958049" style="stroke: #000000; stroke-width: 0.8"/>
      </g>
     </g>
     <g id="text_8">
      <!-- 0.9 -->
      <g transform="translate(23.781563 129.897033) scale(0.13 -0.13)">
       <defs>
        <path id="DejaVuSans-39" d="M 703 97 
L 703 672 
Q 941 559 1184 500 
Q 1428 441 1663 441 
Q 2288 441 2617 861 
Q 2947 1281 2994 2138 
Q 2813 1869 2534 1725 
Q 2256 1581 1919 1581 
Q 1219 1581 811 2004 
Q 403 2428 403 3163 
Q 403 3881 828 4315 
Q 1253 4750 1959 4750 
Q 2769 4750 3195 4129 
Q 3622 3509 3622 2328 
Q 3622 1225 3098 567 
Q 2575 -91 1691 -91 
Q 1453 -91 1209 -44 
Q 966 3 703 97 
z
M 1959 2075 
Q 2384 2075 2632 2365 
Q 2881 2656 2881 3163 
Q 2881 3666 2632 3958 
Q 2384 4250 1959 4250 
Q 1534 4250 1286 3958 
Q 1038 3666 1038 3163 
Q 1038 2656 1286 2365 
Q 1534 2075 1959 2075 
z
" transform="scale(0.015625)"/>
       </defs>
       <use xlink:href="#DejaVuSans-30"/>
       <use xlink:href="#DejaVuSans-2e" transform="translate(63.623047 0)"/>
       <use xlink:href="#DejaVuSans-39" transform="translate(95.410156 0)"/>
      </g>
     </g>
    </g>
    <g id="ytick_9">
     <g id="line2d_17">
      <path d="M 51.455625 92.426341 
L 324.615625 92.426341 
" clip-path="url(#p14cbdf87d2)" style="fill: none; stroke: #b0b0b0; stroke-opacity: 0.3; stroke-width: 0.8; stroke-linecap: square"/>
     </g>
     <g id="line2d_18">
      <g>
       <use xlink:href="#m598aefc114" x="51.455625" y="92.426341" style="stroke: #000000; stroke-width: 0.8"/>
      </g>
     </g>
     <g id="text_9">
      <!-- 1.0 -->
      <g transform="translate(23.781563 97.365326) scale(0.13 -0.13)">
       <defs>
        <path id="DejaVuSans-31" d="M 794 531 
L 1825 531 
L 1825 4091 
L 703 3866 
L 703 4441 
L 1819 4666 
L 2450 4666 
L 2450 531 
L 3481 531 
L 3481 0 
L 794 0 
L 794 531 
z
" transform="scale(0.015625)"/>
       </defs>
       <use xlink:href="#DejaVuSans-31"/>
       <use xlink:href="#DejaVuSans-2e" transform="translate(63.623047 0)"/>
       <use xlink:href="#DejaVuSans-30" transform="translate(95.410156 0)"/>
      </g>
     </g>
    </g>
    <g id="text_10">
     <!-- Accuracy -->
     <g transform="translate(17.077969 248.976562) rotate(-90) scale(0.13 -0.13)">
      <defs>
       <path id="DejaVuSans-41" d="M 2188 4044 
L 1331 1722 
L 3047 1722 
L 2188 4044 
z
M 1831 4666 
L 2547 4666 
L 4325 0 
L 3669 0 
L 3244 1197 
L 1141 1197 
L 716 0 
L 50 0 
L 1831 4666 
z
" transform="scale(0.015625)"/>
       <path id="DejaVuSans-63" d="M 3122 3366 
L 3122 2828 
Q 2878 2963 2633 3030 
Q 2388 3097 2138 3097 
Q 1578 3097 1268 2742 
Q 959 2388 959 1747 
Q 959 1106 1268 751 
Q 1578 397 2138 397 
Q 2388 397 2633 464 
Q 2878 531 3122 666 
L 3122 134 
Q 2881 22 2623 -34 
Q 2366 -91 2075 -91 
Q 1284 -91 818 406 
Q 353 903 353 1747 
Q 353 2603 823 3093 
Q 1294 3584 2113 3584 
Q 2378 3584 2631 3529 
Q 2884 3475 3122 3366 
z
" transform="scale(0.015625)"/>
       <path id="DejaVuSans-75" d="M 544 1381 
L 544 3500 
L 1119 3500 
L 1119 1403 
Q 1119 906 1312 657 
Q 1506 409 1894 409 
Q 2359 409 2629 706 
Q 2900 1003 2900 1516 
L 2900 3500 
L 3475 3500 
L 3475 0 
L 2900 0 
L 2900 538 
Q 2691 219 2414 64 
Q 2138 -91 1772 -91 
Q 1169 -91 856 284 
Q 544 659 544 1381 
z
M 1991 3584 
L 1991 3584 
z
" transform="scale(0.015625)"/>
       <path id="DejaVuSans-72" d="M 2631 2963 
Q 2534 3019 2420 3045 
Q 2306 3072 2169 3072 
Q 1681 3072 1420 2755 
Q 1159 2438 1159 1844 
L 1159 0 
L 581 0 
L 581 3500 
L 1159 3500 
L 1159 2956 
Q 1341 3275 1631 3429 
Q 1922 3584 2338 3584 
Q 2397 3584 2469 3576 
Q 2541 3569 2628 3553 
L 2631 2963 
z
" transform="scale(0.015625)"/>
       <path id="DejaVuSans-61" d="M 2194 1759 
Q 1497 1759 1228 1600 
Q 959 1441 959 1056 
Q 959 750 1161 570 
Q 1363 391 1709 391 
Q 2188 391 2477 730 
Q 2766 1069 2766 1631 
L 2766 1759 
L 2194 1759 
z
M 3341 1997 
L 3341 0 
L 2766 0 
L 2766 531 
Q 2569 213 2275 61 
Q 1981 -91 1556 -91 
Q 1019 -91 701 211 
Q 384 513 384 1019 
Q 384 1609 779 1909 
Q 1175 2209 1959 2209 
L 2766 2209 
L 2766 2266 
Q 2766 2663 2505 2880 
Q 2244 3097 1772 3097 
Q 1472 3097 1187 3025 
Q 903 2953 641 2809 
L 641 3341 
Q 956 3463 1253 3523 
Q 1550 3584 1831 3584 
Q 2591 3584 2966 3190 
Q 3341 2797 3341 1997 
z
" transform="scale(0.015625)"/>
       <path id="DejaVuSans-79" d="M 2059 -325 
Q 1816 -950 1584 -1140 
Q 1353 -1331 966 -1331 
L 506 -1331 
L 506 -850 
L 844 -850 
Q 1081 -850 1212 -737 
Q 1344 -625 1503 -206 
L 1606 56 
L 191 3500 
L 800 3500 
L 1894 763 
L 2988 3500 
L 3597 3500 
L 2059 -325 
z
" transform="scale(0.015625)"/>
      </defs>
      <use xlink:href="#DejaVuSans-41"/>
      <use xlink:href="#DejaVuSans-63" transform="translate(66.658203 0)"/>
      <use xlink:href="#DejaVuSans-63" transform="translate(121.638672 0)"/>
      <use xlink:href="#DejaVuSans-75" transform="translate(176.619141 0)"/>
      <use xlink:href="#DejaVuSans-72" transform="translate(239.998047 0)"/>
      <use xlink:href="#DejaVuSans-61" transform="translate(281.111328 0)"/>
      <use xlink:href="#DejaVuSans-63" transform="translate(342.390625 0)"/>
      <use xlink:href="#DejaVuSans-79" transform="translate(397.371094 0)"/>
     </g>
    </g>
   </g>
   <g id="line2d_19">
    <path d="M 51.455625 255.084878 
L 324.615625 255.084878 
" clip-path="url(#p14cbdf87d2)" style="fill: none; stroke-dasharray: 1.5,2.475; stroke-dashoffset: 0; stroke: #808080; stroke-width: 1.5"/>
   </g>
   <g id="line2d_20">
    <path d="M 51.455625 133.679315 
L 324.615625 133.679315 
" clip-path="url(#p14cbdf87d2)" style="fill: none; stroke-dasharray: 7.4,3.2; stroke-dashoffset: 0; stroke: #2c3e50; stroke-width: 2"/>
   </g>
   <g id="patch_4">
    <path d="M 51.455625 352.68 
L 51.455625 85.92 
" style="fill: none; stroke: #000000; stroke-width: 0.8; stroke-linejoin: miter; stroke-linecap: square"/>
   </g>
   <g id="patch_5">
    <path d="M 51.455625 352.68 
L 324.615625 352.68 
" style="fill: none; stroke: #000000; stroke-width: 0.8; stroke-linejoin: miter; stroke-linecap: square"/>
   </g>
   <g id="PathCollection_1">
    <defs>
     <path id="m39792f3393" d="M 0 3.872983 
C 1.027127 3.872983 2.012324 3.464901 2.738613 2.738613 
C 3.464901 2.012324 3.872983 1.027127 3.872983 0 
C 3.872983 -1.027127 3.464901 -2.012324 2.738613 -2.738613 
C 2.012324 -3.464901 1.027127 -3.872983 0 -3.872983 
C -1.027127 -3.872983 -2.012324 -3.464901 -2.738613 -2.738613 
C -3.464901 -2.012324 -3.872983 -1.027127 -3.872983 0 
C -3.872983 1.027127 -3.464901 2.012324 -2.738613 2.738613 
C -2.012324 3.464901 -1.027127 3.872983 0 3.872983 
z
" style="stroke: #ffffff; stroke-opacity: 0.75; stroke-width: 0.5"/>
    </defs>
    <g clip-path="url(#p14cbdf87d2)">
     <use xlink:href="#m39792f3393" x="177.754439" y="120.112901" style="fill: #e74c3c; fill-opacity: 0.75; stroke: #ffffff; stroke-opacity: 0.75; stroke-width: 0.5"/>
     <use xlink:href="#m39792f3393" x="224.970761" y="147.79946" style="fill: #e74c3c; fill-opacity: 0.75; stroke: #ffffff; stroke-opacity: 0.75; stroke-width: 0.5"/>
     <use xlink:href="#m39792f3393" x="207.047065" y="140.87782" style="fill: #e74c3c; fill-opacity: 0.75; stroke: #ffffff; stroke-opacity: 0.75; stroke-width: 0.5"/>
     <use xlink:href="#m39792f3393" x="196.12049" y="127.034541" style="fill: #e74c3c; fill-opacity: 0.75; stroke: #ffffff; stroke-opacity: 0.75; stroke-width: 0.5"/>
     <use xlink:href="#m39792f3393" x="159.847041" y="113.191261" style="fill: #e74c3c; fill-opacity: 0.75; stroke: #ffffff; stroke-opacity: 0.75; stroke-width: 0.5"/>
     <use xlink:href="#m39792f3393" x="159.845064" y="127.034541" style="fill: #e74c3c; fill-opacity: 0.75; stroke: #ffffff; stroke-opacity: 0.75; stroke-width: 0.5"/>
     <use xlink:href="#m39792f3393" x="151.821461" y="147.79946" style="fill: #e74c3c; fill-opacity: 0.75; stroke: #ffffff; stroke-opacity: 0.75; stroke-width: 0.5"/>
     <use xlink:href="#m39792f3393" x="218.043028" y="147.79946" style="fill: #e74c3c; fill-opacity: 0.75; stroke: #ffffff; stroke-opacity: 0.75; stroke-width: 0.5"/>
     <use xlink:href="#m39792f3393" x="196.321798" y="140.87782" style="fill: #e74c3c; fill-opacity: 0.75; stroke: #ffffff; stroke-opacity: 0.75; stroke-width: 0.5"/>
     <use xlink:href="#m39792f3393" x="205.086757" y="133.956181" style="fill: #e74c3c; fill-opacity: 0.75; stroke: #ffffff; stroke-opacity: 0.75; stroke-width: 0.5"/>
     <use xlink:href="#m39792f3393" x="148.748483" y="140.87782" style="fill: #e74c3c; fill-opacity: 0.75; stroke: #ffffff; stroke-opacity: 0.75; stroke-width: 0.5"/>
     <use xlink:href="#m39792f3393" x="226.543798" y="133.956181" style="fill: #e74c3c; fill-opacity: 0.75; stroke: #ffffff; stroke-opacity: 0.75; stroke-width: 0.5"/>
     <use xlink:href="#m39792f3393" x="215.278635" y="133.956181" style="fill: #e74c3c; fill-opacity: 0.75; stroke: #ffffff; stroke-opacity: 0.75; stroke-width: 0.5"/>
     <use xlink:href="#m39792f3393" x="164.46239" y="147.79946" style="fill: #e74c3c; fill-opacity: 0.75; stroke: #ffffff; stroke-opacity: 0.75; stroke-width: 0.5"/>
     <use xlink:href="#m39792f3393" x="161.961817" y="113.191261" style="fill: #e74c3c; fill-opacity: 0.75; stroke: #ffffff; stroke-opacity: 0.75; stroke-width: 0.5"/>
     <use xlink:href="#m39792f3393" x="162.091258" y="127.034541" style="fill: #e74c3c; fill-opacity: 0.75; stroke: #ffffff; stroke-opacity: 0.75; stroke-width: 0.5"/>
     <use xlink:href="#m39792f3393" x="171.993668" y="133.956181" style="fill: #e74c3c; fill-opacity: 0.75; stroke: #ffffff; stroke-opacity: 0.75; stroke-width: 0.5"/>
     <use xlink:href="#m39792f3393" x="190.064365" y="140.87782" style="fill: #e74c3c; fill-opacity: 0.75; stroke: #ffffff; stroke-opacity: 0.75; stroke-width: 0.5"/>
     <use xlink:href="#m39792f3393" x="182.458655" y="133.956181" style="fill: #e74c3c; fill-opacity: 0.75; stroke: #ffffff; stroke-opacity: 0.75; stroke-width: 0.5"/>
     <use xlink:href="#m39792f3393" x="170.927271" y="120.112901" style="fill: #e74c3c; fill-opacity: 0.75; stroke: #ffffff; stroke-opacity: 0.75; stroke-width: 0.5"/>
     <use xlink:href="#m39792f3393" x="197.201746" y="147.79946" style="fill: #e74c3c; fill-opacity: 0.75; stroke: #ffffff; stroke-opacity: 0.75; stroke-width: 0.5"/>
     <use xlink:href="#m39792f3393" x="158.492868" y="133.956181" style="fill: #e74c3c; fill-opacity: 0.75; stroke: #ffffff; stroke-opacity: 0.75; stroke-width: 0.5"/>
     <use xlink:href="#m39792f3393" x="171.002295" y="127.034541" style="fill: #e74c3c; fill-opacity: 0.75; stroke: #ffffff; stroke-opacity: 0.75; stroke-width: 0.5"/>
     <use xlink:href="#m39792f3393" x="177.084245" y="127.034541" style="fill: #e74c3c; fill-opacity: 0.75; stroke: #ffffff; stroke-opacity: 0.75; stroke-width: 0.5"/>
     <use xlink:href="#m39792f3393" x="184.435648" y="133.956181" style="fill: #e74c3c; fill-opacity: 0.75; stroke: #ffffff; stroke-opacity: 0.75; stroke-width: 0.5"/>
    </g>
   </g>
   <g id="text_11">
    <!-- Accuracy across 25 folds -->
    <g transform="translate(90.498281 79.92) scale(0.14 -0.14)">
     <defs>
      <path id="DejaVuSans-Bold-41" d="M 3419 850 
L 1538 850 
L 1241 0 
L 31 0 
L 1759 4666 
L 3194 4666 
L 4922 0 
L 3713 0 
L 3419 850 
z
M 1838 1716 
L 3116 1716 
L 2478 3572 
L 1838 1716 
z
" transform="scale(0.015625)"/>
      <path id="DejaVuSans-Bold-63" d="M 3366 3391 
L 3366 2478 
Q 3138 2634 2908 2709 
Q 2678 2784 2431 2784 
Q 1963 2784 1702 2511 
Q 1441 2238 1441 1747 
Q 1441 1256 1702 982 
Q 1963 709 2431 709 
Q 2694 709 2930 787 
Q 3166 866 3366 1019 
L 3366 103 
Q 3103 6 2833 -42 
Q 2563 -91 2291 -91 
Q 1344 -91 809 395 
Q 275 881 275 1747 
Q 275 2613 809 3098 
Q 1344 3584 2291 3584 
Q 2566 3584 2833 3536 
Q 3100 3488 3366 3391 
z
" transform="scale(0.015625)"/>
      <path id="DejaVuSans-Bold-75" d="M 500 1363 
L 500 3500 
L 1625 3500 
L 1625 3150 
Q 1625 2866 1622 2436 
Q 1619 2006 1619 1863 
Q 1619 1441 1641 1255 
Q 1663 1069 1716 984 
Q 1784 875 1895 815 
Q 2006 756 2150 756 
Q 2500 756 2700 1025 
Q 2900 1294 2900 1772 
L 2900 3500 
L 4019 3500 
L 4019 0 
L 2900 0 
L 2900 506 
Q 2647 200 2364 54 
Q 2081 -91 1741 -91 
Q 1134 -91 817 281 
Q 500 653 500 1363 
z
" transform="scale(0.015625)"/>
      <path id="DejaVuSans-Bold-72" d="M 3138 2547 
Q 2991 2616 2845 2648 
Q 2700 2681 2553 2681 
Q 2122 2681 1889 2404 
Q 1656 2128 1656 1613 
L 1656 0 
L 538 0 
L 538 3500 
L 1656 3500 
L 1656 2925 
Q 1872 3269 2151 3426 
Q 2431 3584 2822 3584 
Q 2878 3584 2943 3579 
Q 3009 3575 3134 3559 
L 3138 2547 
z
" transform="scale(0.015625)"/>
      <path id="DejaVuSans-Bold-61" d="M 2106 1575 
Q 1756 1575 1579 1456 
Q 1403 1338 1403 1106 
Q 1403 894 1545 773 
Q 1688 653 1941 653 
Q 2256 653 2472 879 
Q 2688 1106 2688 1447 
L 2688 1575 
L 2106 1575 
z
M 3816 1997 
L 3816 0 
L 2688 0 
L 2688 519 
Q 2463 200 2181 54 
Q 1900 -91 1497 -91 
Q 953 -91 614 226 
Q 275 544 275 1050 
Q 275 1666 698 1953 
Q 1122 2241 2028 2241 
L 2688 2241 
L 2688 2328 
Q 2688 2594 2478 2717 
Q 2269 2841 1825 2841 
Q 1466 2841 1156 2769 
Q 847 2697 581 2553 
L 581 3406 
Q 941 3494 1303 3539 
Q 1666 3584 2028 3584 
Q 2975 3584 3395 3211 
Q 3816 2838 3816 1997 
z
" transform="scale(0.015625)"/>
      <path id="DejaVuSans-Bold-79" d="M 78 3500 
L 1197 3500 
L 2138 1125 
L 2938 3500 
L 4056 3500 
L 2584 -331 
Q 2363 -916 2067 -1148 
Q 1772 -1381 1288 -1381 
L 641 -1381 
L 641 -647 
L 991 -647 
Q 1275 -647 1404 -556 
Q 1534 -466 1606 -231 
L 1638 -134 
L 78 3500 
z
" transform="scale(0.015625)"/>
      <path id="DejaVuSans-Bold-20" transform="scale(0.015625)"/>
      <path id="DejaVuSans-Bold-6f" d="M 2203 2784 
Q 1831 2784 1636 2517 
Q 1441 2250 1441 1747 
Q 1441 1244 1636 976 
Q 1831 709 2203 709 
Q 2569 709 2762 976 
Q 2956 1244 2956 1747 
Q 2956 2250 2762 2517 
Q 2569 2784 2203 2784 
z
M 2203 3584 
Q 3106 3584 3614 3096 
Q 4122 2609 4122 1747 
Q 4122 884 3614 396 
Q 3106 -91 2203 -91 
Q 1297 -91 786 396 
Q 275 884 275 1747 
Q 275 2609 786 3096 
Q 1297 3584 2203 3584 
z
" transform="scale(0.015625)"/>
      <path id="DejaVuSans-Bold-73" d="M 3272 3391 
L 3272 2541 
Q 2913 2691 2578 2766 
Q 2244 2841 1947 2841 
Q 1628 2841 1473 2761 
Q 1319 2681 1319 2516 
Q 1319 2381 1436 2309 
Q 1553 2238 1856 2203 
L 2053 2175 
Q 2913 2066 3209 1816 
Q 3506 1566 3506 1031 
Q 3506 472 3093 190 
Q 2681 -91 1863 -91 
Q 1516 -91 1145 -36 
Q 775 19 384 128 
L 384 978 
Q 719 816 1070 734 
Q 1422 653 1784 653 
Q 2113 653 2278 743 
Q 2444 834 2444 1013 
Q 2444 1163 2330 1236 
Q 2216 1309 1875 1350 
L 1678 1375 
Q 931 1469 631 1722 
Q 331 1975 331 2491 
Q 331 3047 712 3315 
Q 1094 3584 1881 3584 
Q 2191 3584 2531 3537 
Q 2872 3491 3272 3391 
z
" transform="scale(0.015625)"/>
      <path id="DejaVuSans-Bold-32" d="M 1844 884 
L 3897 884 
L 3897 0 
L 506 0 
L 506 884 
L 2209 2388 
Q 2438 2594 2547 2791 
Q 2656 2988 2656 3200 
Q 2656 3528 2436 3728 
Q 2216 3928 1850 3928 
Q 1569 3928 1234 3808 
Q 900 3688 519 3450 
L 519 4475 
Q 925 4609 1322 4679 
Q 1719 4750 2100 4750 
Q 2938 4750 3402 4381 
Q 3866 4013 3866 3353 
Q 3866 2972 3669 2642 
Q 3472 2313 2841 1759 
L 1844 884 
z
" transform="scale(0.015625)"/>
      <path id="DejaVuSans-Bold-35" d="M 678 4666 
L 3669 4666 
L 3669 3781 
L 1638 3781 
L 1638 3059 
Q 1775 3097 1914 3117 
Q 2053 3138 2203 3138 
Q 3056 3138 3531 2711 
Q 4006 2284 4006 1522 
Q 4006 766 3489 337 
Q 2972 -91 2053 -91 
Q 1656 -91 1267 -14 
Q 878 63 494 219 
L 494 1166 
Q 875 947 1217 837 
Q 1559 728 1863 728 
Q 2300 728 2551 942 
Q 2803 1156 2803 1522 
Q 2803 1891 2551 2103 
Q 2300 2316 1863 2316 
Q 1603 2316 1309 2248 
Q 1016 2181 678 2041 
L 678 4666 
z
" transform="scale(0.015625)"/>
      <path id="DejaVuSans-Bold-66" d="M 2841 4863 
L 2841 4128 
L 2222 4128 
Q 1984 4128 1890 4042 
Q 1797 3956 1797 3744 
L 1797 3500 
L 2753 3500 
L 2753 2700 
L 1797 2700 
L 1797 0 
L 678 0 
L 678 2700 
L 122 2700 
L 122 3500 
L 678 3500 
L 678 3744 
Q 678 4316 997 4589 
Q 1316 4863 1984 4863 
L 2841 4863 
z
" transform="scale(0.015625)"/>
      <path id="DejaVuSans-Bold-6c" d="M 538 4863 
L 1656 4863 
L 1656 0 
L 538 0 
L 538 4863 
z
" transform="scale(0.015625)"/>
      <path id="DejaVuSans-Bold-64" d="M 2919 2988 
L 2919 4863 
L 4044 4863 
L 4044 0 
L 2919 0 
L 2919 506 
Q 2688 197 2409 53 
Q 2131 -91 1766 -91 
Q 1119 -91 703 423 
Q 288 938 288 1747 
Q 288 2556 703 3070 
Q 1119 3584 1766 3584 
Q 2128 3584 2408 3439 
Q 2688 3294 2919 2988 
z
M 2181 722 
Q 2541 722 2730 984 
Q 2919 1247 2919 1747 
Q 2919 2247 2730 2509 
Q 2541 2772 2181 2772 
Q 1825 2772 1636 2509 
Q 1447 2247 1447 1747 
Q 1447 1247 1636 984 
Q 1825 722 2181 722 
z
" transform="scale(0.015625)"/>
     </defs>
     <use xlink:href="#DejaVuSans-Bold-41"/>
     <use xlink:href="#DejaVuSans-Bold-63" transform="translate(77.392578 0)"/>
     <use xlink:href="#DejaVuSans-Bold-63" transform="translate(136.669922 0)"/>
     <use xlink:href="#DejaVuSans-Bold-75" transform="translate(195.947266 0)"/>
     <use xlink:href="#DejaVuSans-Bold-72" transform="translate(267.138672 0)"/>
     <use xlink:href="#DejaVuSans-Bold-61" transform="translate(316.455078 0)"/>
     <use xlink:href="#DejaVuSans-Bold-63" transform="translate(383.935547 0)"/>
     <use xlink:href="#DejaVuSans-Bold-79" transform="translate(443.212891 0)"/>
     <use xlink:href="#DejaVuSans-Bold-20" transform="translate(508.398438 0)"/>
     <use xlink:href="#DejaVuSans-Bold-61" transform="translate(543.212891 0)"/>
     <use xlink:href="#DejaVuSans-Bold-63" transform="translate(610.693359 0)"/>
     <use xlink:href="#DejaVuSans-Bold-72" transform="translate(669.970703 0)"/>
     <use xlink:href="#DejaVuSans-Bold-6f" transform="translate(719.287109 0)"/>
     <use xlink:href="#DejaVuSans-Bold-73" transform="translate(787.988281 0)"/>
     <use xlink:href="#DejaVuSans-Bold-73" transform="translate(847.509766 0)"/>
     <use xlink:href="#DejaVuSans-Bold-20" transform="translate(907.03125 0)"/>
     <use xlink:href="#DejaVuSans-Bold-32" transform="translate(941.845703 0)"/>
     <use xlink:href="#DejaVuSans-Bold-35" transform="translate(1011.425781 0)"/>
     <use xlink:href="#DejaVuSans-Bold-20" transform="translate(1081.005859 0)"/>
     <use xlink:href="#DejaVuSans-Bold-66" transform="translate(1115.820312 0)"/>
     <use xlink:href="#DejaVuSans-Bold-6f" transform="translate(1159.326172 0)"/>
     <use xlink:href="#DejaVuSans-Bold-6c" transform="translate(1228.027344 0)"/>
     <use xlink:href="#DejaVuSans-Bold-64" transform="translate(1262.304688 0)"/>
     <use xlink:href="#DejaVuSans-Bold-73" transform="translate(1333.886719 0)"/>
    </g>
   </g>
   <g id="legend_1">
    <g id="patch_6">
     <path d="M 205.63125 347.68 
L 317.615625 347.68 
Q 319.615625 347.68 319.615625 345.68 
L 319.615625 302.645625 
Q 319.615625 300.645625 317.615625 300.645625 
L 205.63125 300.645625 
Q 203.63125 300.645625 203.63125 302.645625 
L 203.63125 345.68 
Q 203.63125 347.68 205.63125 347.68 
z
" style="fill: #ffffff; opacity: 0.8; stroke: #cccccc; stroke-linejoin: miter"/>
    </g>
    <g id="patch_7">
     <path d="M 207.63125 312.244062 
L 227.63125 312.244062 
L 227.63125 305.244062 
L 207.63125 305.244062 
z
" style="fill: #e74c3c; opacity: 0.12; stroke: #e74c3c; stroke-linejoin: miter"/>
    </g>
    <g id="text_12">
     <!-- +/-1 std (0.032) -->
     <g transform="translate(235.63125 312.244062) scale(0.1 -0.1)">
      <defs>
       <path id="DejaVuSans-2b" d="M 2944 4013 
L 2944 2272 
L 4684 2272 
L 4684 1741 
L 2944 1741 
L 2944 0 
L 2419 0 
L 2419 1741 
L 678 1741 
L 678 2272 
L 2419 2272 
L 2419 4013 
L 2944 4013 
z
" transform="scale(0.015625)"/>
       <path id="DejaVuSans-2f" d="M 1625 4666 
L 2156 4666 
L 531 -594 
L 0 -594 
L 1625 4666 
z
" transform="scale(0.015625)"/>
       <path id="DejaVuSans-2d" d="M 313 2009 
L 1997 2009 
L 1997 1497 
L 313 1497 
L 313 2009 
z
" transform="scale(0.015625)"/>
       <path id="DejaVuSans-20" transform="scale(0.015625)"/>
       <path id="DejaVuSans-73" d="M 2834 3397 
L 2834 2853 
Q 2591 2978 2328 3040 
Q 2066 3103 1784 3103 
Q 1356 3103 1142 2972 
Q 928 2841 928 2578 
Q 928 2378 1081 2264 
Q 1234 2150 1697 2047 
L 1894 2003 
Q 2506 1872 2764 1633 
Q 3022 1394 3022 966 
Q 3022 478 2636 193 
Q 2250 -91 1575 -91 
Q 1294 -91 989 -36 
Q 684 19 347 128 
L 347 722 
Q 666 556 975 473 
Q 1284 391 1588 391 
Q 1994 391 2212 530 
Q 2431 669 2431 922 
Q 2431 1156 2273 1281 
Q 2116 1406 1581 1522 
L 1381 1569 
Q 847 1681 609 1914 
Q 372 2147 372 2553 
Q 372 3047 722 3315 
Q 1072 3584 1716 3584 
Q 2034 3584 2315 3537 
Q 2597 3491 2834 3397 
z
" transform="scale(0.015625)"/>
       <path id="DejaVuSans-74" d="M 1172 4494 
L 1172 3500 
L 2356 3500 
L 2356 3053 
L 1172 3053 
L 1172 1153 
Q 1172 725 1289 603 
Q 1406 481 1766 481 
L 2356 481 
L 2356 0 
L 1766 0 
Q 1100 0 847 248 
Q 594 497 594 1153 
L 594 3053 
L 172 3053 
L 172 3500 
L 594 3500 
L 594 4494 
L 1172 4494 
z
" transform="scale(0.015625)"/>
       <path id="DejaVuSans-64" d="M 2906 2969 
L 2906 4863 
L 3481 4863 
L 3481 0 
L 2906 0 
L 2906 525 
Q 2725 213 2448 61 
Q 2172 -91 1784 -91 
Q 1150 -91 751 415 
Q 353 922 353 1747 
Q 353 2572 751 3078 
Q 1150 3584 1784 3584 
Q 2172 3584 2448 3432 
Q 2725 3281 2906 2969 
z
M 947 1747 
Q 947 1113 1208 752 
Q 1469 391 1925 391 
Q 2381 391 2643 752 
Q 2906 1113 2906 1747 
Q 2906 2381 2643 2742 
Q 2381 3103 1925 3103 
Q 1469 3103 1208 2742 
Q 947 2381 947 1747 
z
" transform="scale(0.015625)"/>
       <path id="DejaVuSans-28" d="M 1984 4856 
Q 1566 4138 1362 3434 
Q 1159 2731 1159 2009 
Q 1159 1288 1364 580 
Q 1569 -128 1984 -844 
L 1484 -844 
Q 1016 -109 783 600 
Q 550 1309 550 2009 
Q 550 2706 781 3412 
Q 1013 4119 1484 4856 
L 1984 4856 
z
" transform="scale(0.015625)"/>
       <path id="DejaVuSans-29" d="M 513 4856 
L 1013 4856 
Q 1481 4119 1714 3412 
Q 1947 2706 1947 2009 
Q 1947 1309 1714 600 
Q 1481 -109 1013 -844 
L 513 -844 
Q 928 -128 1133 580 
Q 1338 1288 1338 2009 
Q 1338 2731 1133 3434 
Q 928 4138 513 4856 
z
" transform="scale(0.015625)"/>
      </defs>
      <use xlink:href="#DejaVuSans-2b"/>
      <use xlink:href="#DejaVuSans-2f" transform="translate(83.789062 0)"/>
      <use xlink:href="#DejaVuSans-2d" transform="translate(117.480469 0)"/>
      <use xlink:href="#DejaVuSans-31" transform="translate(153.564453 0)"/>
      <use xlink:href="#DejaVuSans-20" transform="translate(217.1875 0)"/>
      <use xlink:href="#DejaVuSans-73" transform="translate(248.974609 0)"/>
      <use xlink:href="#DejaVuSans-74" transform="translate(301.074219 0)"/>
      <use xlink:href="#DejaVuSans-64" transform="translate(340.283203 0)"/>
      <use xlink:href="#DejaVuSans-20" transform="translate(403.759766 0)"/>
      <use xlink:href="#DejaVuSans-28" transform="translate(435.546875 0)"/>
      <use xlink:href="#DejaVuSans-30" transform="translate(474.560547 0)"/>
      <use xlink:href="#DejaVuSans-2e" transform="translate(538.183594 0)"/>
      <use xlink:href="#DejaVuSans-30" transform="translate(569.970703 0)"/>
      <use xlink:href="#DejaVuSans-33" transform="translate(633.59375 0)"/>
      <use xlink:href="#DejaVuSans-32" transform="translate(697.216797 0)"/>
      <use xlink:href="#DejaVuSans-29" transform="translate(760.839844 0)"/>
     </g>
    </g>
    <g id="line2d_21">
     <path d="M 207.63125 323.422188 
L 217.63125 323.422188 
L 227.63125 323.422188 
" style="fill: none; stroke-dasharray: 1.5,2.475; stroke-dashoffset: 0; stroke: #808080; stroke-width: 1.5"/>
    </g>
    <g id="text_13">
     <!-- Random (50%) -->
     <g transform="translate(235.63125 326.922188) scale(0.1 -0.1)">
      <defs>
       <path id="DejaVuSans-52" d="M 2841 2188 
Q 3044 2119 3236 1894 
Q 3428 1669 3622 1275 
L 4263 0 
L 3584 0 
L 2988 1197 
Q 2756 1666 2539 1819 
Q 2322 1972 1947 1972 
L 1259 1972 
L 1259 0 
L 628 0 
L 628 4666 
L 2053 4666 
Q 2853 4666 3247 4331 
Q 3641 3997 3641 3322 
Q 3641 2881 3436 2590 
Q 3231 2300 2841 2188 
z
M 1259 4147 
L 1259 2491 
L 2053 2491 
Q 2509 2491 2742 2702 
Q 2975 2913 2975 3322 
Q 2975 3731 2742 3939 
Q 2509 4147 2053 4147 
L 1259 4147 
z
" transform="scale(0.015625)"/>
       <path id="DejaVuSans-6e" d="M 3513 2113 
L 3513 0 
L 2938 0 
L 2938 2094 
Q 2938 2591 2744 2837 
Q 2550 3084 2163 3084 
Q 1697 3084 1428 2787 
Q 1159 2491 1159 1978 
L 1159 0 
L 581 0 
L 581 3500 
L 1159 3500 
L 1159 2956 
Q 1366 3272 1645 3428 
Q 1925 3584 2291 3584 
Q 2894 3584 3203 3211 
Q 3513 2838 3513 2113 
z
" transform="scale(0.015625)"/>
       <path id="DejaVuSans-6f" d="M 1959 3097 
Q 1497 3097 1228 2736 
Q 959 2375 959 1747 
Q 959 1119 1226 758 
Q 1494 397 1959 397 
Q 2419 397 2687 759 
Q 2956 1122 2956 1747 
Q 2956 2369 2687 2733 
Q 2419 3097 1959 3097 
z
M 1959 3584 
Q 2709 3584 3137 3096 
Q 3566 2609 3566 1747 
Q 3566 888 3137 398 
Q 2709 -91 1959 -91 
Q 1206 -91 779 398 
Q 353 888 353 1747 
Q 353 2609 779 3096 
Q 1206 3584 1959 3584 
z
" transform="scale(0.015625)"/>
       <path id="DejaVuSans-6d" d="M 3328 2828 
Q 3544 3216 3844 3400 
Q 4144 3584 4550 3584 
Q 5097 3584 5394 3201 
Q 5691 2819 5691 2113 
L 5691 0 
L 5113 0 
L 5113 2094 
Q 5113 2597 4934 2840 
Q 4756 3084 4391 3084 
Q 3944 3084 3684 2787 
Q 3425 2491 3425 1978 
L 3425 0 
L 2847 0 
L 2847 2094 
Q 2847 2600 2669 2842 
Q 2491 3084 2119 3084 
Q 1678 3084 1418 2786 
Q 1159 2488 1159 1978 
L 1159 0 
L 581 0 
L 581 3500 
L 1159 3500 
L 1159 2956 
Q 1356 3278 1631 3431 
Q 1906 3584 2284 3584 
Q 2666 3584 2933 3390 
Q 3200 3197 3328 2828 
z
" transform="scale(0.015625)"/>
       <path id="DejaVuSans-25" d="M 4653 2053 
Q 4381 2053 4226 1822 
Q 4072 1591 4072 1178 
Q 4072 772 4226 539 
Q 4381 306 4653 306 
Q 4919 306 5073 539 
Q 5228 772 5228 1178 
Q 5228 1588 5073 1820 
Q 4919 2053 4653 2053 
z
M 4653 2450 
Q 5147 2450 5437 2106 
Q 5728 1763 5728 1178 
Q 5728 594 5436 251 
Q 5144 -91 4653 -91 
Q 4153 -91 3862 251 
Q 3572 594 3572 1178 
Q 3572 1766 3864 2108 
Q 4156 2450 4653 2450 
z
M 1428 4353 
Q 1159 4353 1004 4120 
Q 850 3888 850 3481 
Q 850 3069 1003 2837 
Q 1156 2606 1428 2606 
Q 1700 2606 1854 2837 
Q 2009 3069 2009 3481 
Q 2009 3884 1853 4118 
Q 1697 4353 1428 4353 
z
M 4250 4750 
L 4750 4750 
L 1831 -91 
L 1331 -91 
L 4250 4750 
z
M 1428 4750 
Q 1922 4750 2215 4408 
Q 2509 4066 2509 3481 
Q 2509 2891 2217 2550 
Q 1925 2209 1428 2209 
Q 931 2209 642 2551 
Q 353 2894 353 3481 
Q 353 4063 643 4406 
Q 934 4750 1428 4750 
z
" transform="scale(0.015625)"/>
      </defs>
      <use xlink:href="#DejaVuSans-52"/>
      <use xlink:href="#DejaVuSans-61" transform="translate(67.232422 0)"/>
      <use xlink:href="#DejaVuSans-6e" transform="translate(128.511719 0)"/>
      <use xlink:href="#DejaVuSans-64" transform="translate(191.890625 0)"/>
      <use xlink:href="#DejaVuSans-6f" transform="translate(255.367188 0)"/>
      <use xlink:href="#DejaVuSans-6d" transform="translate(316.548828 0)"/>
      <use xlink:href="#DejaVuSans-20" transform="translate(413.960938 0)"/>
      <use xlink:href="#DejaVuSans-28" transform="translate(445.748047 0)"/>
      <use xlink:href="#DejaVuSans-35" transform="translate(484.761719 0)"/>
      <use xlink:href="#DejaVuSans-30" transform="translate(548.384766 0)"/>
      <use xlink:href="#DejaVuSans-25" transform="translate(612.007812 0)"/>
      <use xlink:href="#DejaVuSans-29" transform="translate(707.027344 0)"/>
     </g>
    </g>
    <g id="line2d_22">
     <path d="M 207.63125 338.100312 
L 217.63125 338.100312 
L 227.63125 338.100312 
" style="fill: none; stroke-dasharray: 7.4,3.2; stroke-dashoffset: 0; stroke: #2c3e50; stroke-width: 2"/>
    </g>
    <g id="text_14">
     <!-- Mean = 0.873 -->
     <g transform="translate(235.63125 341.600312) scale(0.1 -0.1)">
      <defs>
       <path id="DejaVuSans-4d" d="M 628 4666 
L 1569 4666 
L 2759 1491 
L 3956 4666 
L 4897 4666 
L 4897 0 
L 4281 0 
L 4281 4097 
L 3078 897 
L 2444 897 
L 1241 4097 
L 1241 0 
L 628 0 
L 628 4666 
z
" transform="scale(0.015625)"/>
       <path id="DejaVuSans-65" d="M 3597 1894 
L 3597 1613 
L 953 1613 
Q 991 1019 1311 708 
Q 1631 397 2203 397 
Q 2534 397 2845 478 
Q 3156 559 3463 722 
L 3463 178 
Q 3153 47 2828 -22 
Q 2503 -91 2169 -91 
Q 1331 -91 842 396 
Q 353 884 353 1716 
Q 353 2575 817 3079 
Q 1281 3584 2069 3584 
Q 2775 3584 3186 3129 
Q 3597 2675 3597 1894 
z
M 3022 2063 
Q 3016 2534 2758 2815 
Q 2500 3097 2075 3097 
Q 1594 3097 1305 2825 
Q 1016 2553 972 2059 
L 3022 2063 
z
" transform="scale(0.015625)"/>
       <path id="DejaVuSans-3d" d="M 678 2906 
L 4684 2906 
L 4684 2381 
L 678 2381 
L 678 2906 
z
M 678 1631 
L 4684 1631 
L 4684 1100 
L 678 1100 
L 678 1631 
z
" transform="scale(0.015625)"/>
      </defs>
      <use xlink:href="#DejaVuSans-4d"/>
      <use xlink:href="#DejaVuSans-65" transform="translate(86.279297 0)"/>
      <use xlink:href="#DejaVuSans-61" transform="translate(147.802734 0)"/>
      <use xlink:href="#DejaVuSans-6e" transform="translate(209.082031 0)"/>
      <use xlink:href="#DejaVuSans-20" transform="translate(272.460938 0)"/>
      <use xlink:href="#DejaVuSans-3d" transform="translate(304.248047 0)"/>
      <use xlink:href="#DejaVuSans-20" transform="translate(388.037109 0)"/>
      <use xlink:href="#DejaVuSans-30" transform="translate(419.824219 0)"/>
      <use xlink:href="#DejaVuSans-2e" transform="translate(483.447266 0)"/>
      <use xlink:href="#DejaVuSans-38" transform="translate(515.234375 0)"/>
      <use xlink:href="#DejaVuSans-37" transform="translate(578.857422 0)"/>
      <use xlink:href="#DejaVuSans-33" transform="translate(642.480469 0)"/>
     </g>
    </g>
   </g>
  </g>
  <g id="axes_2">
   <g id="patch_8">
    <path d="M 382.775625 352.68 
L 655.935625 352.68 
L 655.935625 85.92 
L 382.775625 85.92 
z
" style="fill: #ffffff"/>
   </g>
   <g id="patch_9">
    <path d="M 382.775625 146.041525 
L 655.935625 146.041525 
L 655.935625 123.729546 
L 382.775625 123.729546 
z
" clip-path="url(#pbb9d6d491e)" style="fill: #2980b9; opacity: 0.12; stroke: #2980b9; stroke-linejoin: miter"/>
   </g>
   <g id="matplotlib.axis_3"/>
   <g id="matplotlib.axis_4">
    <g id="ytick_10">
     <g id="line2d_23">
      <path d="M 382.775625 352.68 
L 655.935625 352.68 
" clip-path="url(#pbb9d6d491e)" style="fill: none; stroke: #b0b0b0; stroke-opacity: 0.3; stroke-width: 0.8; stroke-linecap: square"/>
     </g>
     <g id="line2d_24">
      <g>
       <use xlink:href="#m598aefc114" x="382.775625" y="352.68" style="stroke: #000000; stroke-width: 0.8"/>
      </g>
     </g>
     <g id="text_15">
      <!-- 0.2 -->
      <g transform="translate(355.101562 357.618984) scale(0.13 -0.13)">
       <use xlink:href="#DejaVuSans-30"/>
       <use xlink:href="#DejaVuSans-2e" transform="translate(63.623047 0)"/>
       <use xlink:href="#DejaVuSans-32" transform="translate(95.410156 0)"/>
      </g>
     </g>
    </g>
    <g id="ytick_11">
     <g id="line2d_25">
      <path d="M 382.775625 320.148293 
L 655.935625 320.148293 
" clip-path="url(#pbb9d6d491e)" style="fill: none; stroke: #b0b0b0; stroke-opacity: 0.3; stroke-width: 0.8; stroke-linecap: square"/>
     </g>
     <g id="line2d_26">
      <g>
       <use xlink:href="#m598aefc114" x="382.775625" y="320.148293" style="stroke: #000000; stroke-width: 0.8"/>
      </g>
     </g>
     <g id="text_16">
      <!-- 0.3 -->
      <g transform="translate(355.101562 325.087277) scale(0.13 -0.13)">
       <use xlink:href="#DejaVuSans-30"/>
       <use xlink:href="#DejaVuSans-2e" transform="translate(63.623047 0)"/>
       <use xlink:href="#DejaVuSans-33" transform="translate(95.410156 0)"/>
      </g>
     </g>
    </g>
    <g id="ytick_12">
     <g id="line2d_27">
      <path d="M 382.775625 287.616585 
L 655.935625 287.616585 
" clip-path="url(#pbb9d6d491e)" style="fill: none; stroke: #b0b0b0; stroke-opacity: 0.3; stroke-width: 0.8; stroke-linecap: square"/>
     </g>
     <g id="line2d_28">
      <g>
       <use xlink:href="#m598aefc114" x="382.775625" y="287.616585" style="stroke: #000000; stroke-width: 0.8"/>
      </g>
     </g>
     <g id="text_17">
      <!-- 0.4 -->
      <g transform="translate(355.101562 292.55557) scale(0.13 -0.13)">
       <use xlink:href="#DejaVuSans-30"/>
       <use xlink:href="#DejaVuSans-2e" transform="translate(63.623047 0)"/>
       <use xlink:href="#DejaVuSans-34" transform="translate(95.410156 0)"/>
      </g>
     </g>
    </g>
    <g id="ytick_13">
     <g id="line2d_29">
      <path d="M 382.775625 255.084878 
L 655.935625 255.084878 
" clip-path="url(#pbb9d6d491e)" style="fill: none; stroke: #b0b0b0; stroke-opacity: 0.3; stroke-width: 0.8; stroke-linecap: square"/>
     </g>
     <g id="line2d_30">
      <g>
       <use xlink:href="#m598aefc114" x="382.775625" y="255.084878" style="stroke: #000000; stroke-width: 0.8"/>
      </g>
     </g>
     <g id="text_18">
      <!-- 0.5 -->
      <g transform="translate(355.101562 260.023862) scale(0.13 -0.13)">
       <use xlink:href="#DejaVuSans-30"/>
       <use xlink:href="#DejaVuSans-2e" transform="translate(63.623047 0)"/>
       <use xlink:href="#DejaVuSans-35" transform="translate(95.410156 0)"/>
      </g>
     </g>
    </g>
    <g id="ytick_14">
     <g id="line2d_31">
      <path d="M 382.775625 222.553171 
L 655.935625 222.553171 
" clip-path="url(#pbb9d6d491e)" style="fill: none; stroke: #b0b0b0; stroke-opacity: 0.3; stroke-width: 0.8; stroke-linecap: square"/>
     </g>
     <g id="line2d_32">
      <g>
       <use xlink:href="#m598aefc114" x="382.775625" y="222.553171" style="stroke: #000000; stroke-width: 0.8"/>
      </g>
     </g>
     <g id="text_19">
      <!-- 0.6 -->
      <g transform="translate(355.101562 227.492155) scale(0.13 -0.13)">
       <use xlink:href="#DejaVuSans-30"/>
       <use xlink:href="#DejaVuSans-2e" transform="translate(63.623047 0)"/>
       <use xlink:href="#DejaVuSans-36" transform="translate(95.410156 0)"/>
      </g>
     </g>
    </g>
    <g id="ytick_15">
     <g id="line2d_33">
      <path d="M 382.775625 190.021463 
L 655.935625 190.021463 
" clip-path="url(#pbb9d6d491e)" style="fill: none; stroke: #b0b0b0; stroke-opacity: 0.3; stroke-width: 0.8; stroke-linecap: square"/>
     </g>
     <g id="line2d_34">
      <g>
       <use xlink:href="#m598aefc114" x="382.775625" y="190.021463" style="stroke: #000000; stroke-width: 0.8"/>
      </g>
     </g>
     <g id="text_20">
      <!-- 0.7 -->
      <g transform="translate(355.101562 194.960448) scale(0.13 -0.13)">
       <use xlink:href="#DejaVuSans-30"/>
       <use xlink:href="#DejaVuSans-2e" transform="translate(63.623047 0)"/>
       <use xlink:href="#DejaVuSans-37" transform="translate(95.410156 0)"/>
      </g>
     </g>
    </g>
    <g id="ytick_16">
     <g id="line2d_35">
      <path d="M 382.775625 157.489756 
L 655.935625 157.489756 
" clip-path="url(#pbb9d6d491e)" style="fill: none; stroke: #b0b0b0; stroke-opacity: 0.3; stroke-width: 0.8; stroke-linecap: square"/>
     </g>
     <g id="line2d_36">
      <g>
       <use xlink:href="#m598aefc114" x="382.775625" y="157.489756" style="stroke: #000000; stroke-width: 0.8"/>
      </g>
     </g>
     <g id="text_21">
      <!-- 0.8 -->
      <g transform="translate(355.101562 162.42874) scale(0.13 -0.13)">
       <use xlink:href="#DejaVuSans-30"/>
       <use xlink:href="#DejaVuSans-2e" transform="translate(63.623047 0)"/>
       <use xlink:href="#DejaVuSans-38" transform="translate(95.410156 0)"/>
      </g>
     </g>
    </g>
    <g id="ytick_17">
     <g id="line2d_37">
      <path d="M 382.775625 124.958049 
L 655.935625 124.958049 
" clip-path="url(#pbb9d6d491e)" style="fill: none; stroke: #b0b0b0; stroke-opacity: 0.3; stroke-width: 0.8; stroke-linecap: square"/>
     </g>
     <g id="line2d_38">
      <g>
       <use xlink:href="#m598aefc114" x="382.775625" y="124.958049" style="stroke: #000000; stroke-width: 0.8"/>
      </g>
     </g>
     <g id="text_22">
      <!-- 0.9 -->
      <g transform="translate(355.101562 129.897033) scale(0.13 -0.13)">
       <use xlink:href="#DejaVuSans-30"/>
       <use xlink:href="#DejaVuSans-2e" transform="translate(63.623047 0)"/>
       <use xlink:href="#DejaVuSans-39" transform="translate(95.410156 0)"/>
      </g>
     </g>
    </g>
    <g id="ytick_18">
     <g id="line2d_39">
      <path d="M 382.775625 92.426341 
L 655.935625 92.426341 
" clip-path="url(#pbb9d6d491e)" style="fill: none; stroke: #b0b0b0; stroke-opacity: 0.3; stroke-width: 0.8; stroke-linecap: square"/>
     </g>
     <g id="line2d_40">
      <g>
       <use xlink:href="#m598aefc114" x="382.775625" y="92.426341" style="stroke: #000000; stroke-width: 0.8"/>
      </g>
     </g>
     <g id="text_23">
      <!-- 1.0 -->
      <g transform="translate(355.101562 97.365326) scale(0.13 -0.13)">
       <use xlink:href="#DejaVuSans-31"/>
       <use xlink:href="#DejaVuSans-2e" transform="translate(63.623047 0)"/>
       <use xlink:href="#DejaVuSans-30" transform="translate(95.410156 0)"/>
      </g>
     </g>
    </g>
    <g id="text_24">
     <!-- Macro-F1 -->
     <g transform="translate(348.397969 249.309687) rotate(-90) scale(0.13 -0.13)">
      <defs>
       <path id="DejaVuSans-46" d="M 628 4666 
L 3309 4666 
L 3309 4134 
L 1259 4134 
L 1259 2759 
L 3109 2759 
L 3109 2228 
L 1259 2228 
L 1259 0 
L 628 0 
L 628 4666 
z
" transform="scale(0.015625)"/>
      </defs>
      <use xlink:href="#DejaVuSans-4d"/>
      <use xlink:href="#DejaVuSans-61" transform="translate(86.279297 0)"/>
      <use xlink:href="#DejaVuSans-63" transform="translate(147.558594 0)"/>
      <use xlink:href="#DejaVuSans-72" transform="translate(202.539062 0)"/>
      <use xlink:href="#DejaVuSans-6f" transform="translate(241.402344 0)"/>
      <use xlink:href="#DejaVuSans-2d" transform="translate(304.458984 0)"/>
      <use xlink:href="#DejaVuSans-46" transform="translate(340.542969 0)"/>
      <use xlink:href="#DejaVuSans-31" transform="translate(398.0625 0)"/>
     </g>
    </g>
   </g>
   <g id="line2d_41">
    <path d="M 382.775625 255.084878 
L 655.935625 255.084878 
" clip-path="url(#pbb9d6d491e)" style="fill: none; stroke-dasharray: 1.5,2.475; stroke-dashoffset: 0; stroke: #808080; stroke-width: 1.5"/>
   </g>
   <g id="line2d_42">
    <path d="M 382.775625 134.885535 
L 655.935625 134.885535 
" clip-path="url(#pbb9d6d491e)" style="fill: none; stroke-dasharray: 7.4,3.2; stroke-dashoffset: 0; stroke: #2c3e50; stroke-width: 2"/>
   </g>
   <g id="patch_10">
    <path d="M 382.775625 352.68 
L 382.775625 85.92 
" style="fill: none; stroke: #000000; stroke-width: 0.8; stroke-linejoin: miter; stroke-linecap: square"/>
   </g>
   <g id="patch_11">
    <path d="M 382.775625 352.68 
L 655.935625 352.68 
" style="fill: none; stroke: #000000; stroke-width: 0.8; stroke-linejoin: miter; stroke-linecap: square"/>
   </g>
   <g id="PathCollection_2">
    <defs>
     <path id="m77e3ff7c03" d="M 0 3.872983 
C 1.027127 3.872983 2.012324 3.464901 2.738613 2.738613 
C 3.464901 2.012324 3.872983 1.027127 3.872983 0 
C 3.872983 -1.027127 3.464901 -2.012324 2.738613 -2.738613 
C 2.012324 -3.464901 1.027127 -3.872983 0 -3.872983 
C -1.027127 -3.872983 -2.012324 -3.464901 -2.738613 -2.738613 
C -3.464901 -2.012324 -3.872983 -1.027127 -3.872983 0 
C -3.872983 1.027127 -3.464901 2.012324 -2.738613 2.738613 
C -2.012324 3.464901 -1.027127 3.872983 0 3.872983 
z
" style="stroke: #ffffff; stroke-opacity: 0.75; stroke-width: 0.5"/>
    </defs>
    <g clip-path="url(#pbb9d6d491e)">
     <use xlink:href="#m77e3ff7c03" x="542.725225" y="120.429826" style="fill: #2980b9; fill-opacity: 0.75; stroke: #ffffff; stroke-opacity: 0.75; stroke-width: 0.5"/>
     <use xlink:href="#m77e3ff7c03" x="494.744492" y="149.05561" style="fill: #2980b9; fill-opacity: 0.75; stroke: #ffffff; stroke-opacity: 0.75; stroke-width: 0.5"/>
     <use xlink:href="#m77e3ff7c03" x="520.522109" y="144.256519" style="fill: #2980b9; fill-opacity: 0.75; stroke: #ffffff; stroke-opacity: 0.75; stroke-width: 0.5"/>
     <use xlink:href="#m77e3ff7c03" x="526.928814" y="127.097322" style="fill: #2980b9; fill-opacity: 0.75; stroke: #ffffff; stroke-opacity: 0.75; stroke-width: 0.5"/>
     <use xlink:href="#m77e3ff7c03" x="482.188143" y="113.81082" style="fill: #2980b9; fill-opacity: 0.75; stroke: #ffffff; stroke-opacity: 0.75; stroke-width: 0.5"/>
     <use xlink:href="#m77e3ff7c03" x="528.168711" y="127.28704" style="fill: #2980b9; fill-opacity: 0.75; stroke: #ffffff; stroke-opacity: 0.75; stroke-width: 0.5"/>
     <use xlink:href="#m77e3ff7c03" x="492.355736" y="148.43331" style="fill: #2980b9; fill-opacity: 0.75; stroke: #ffffff; stroke-opacity: 0.75; stroke-width: 0.5"/>
     <use xlink:href="#m77e3ff7c03" x="483.712473" y="148.43331" style="fill: #2980b9; fill-opacity: 0.75; stroke: #ffffff; stroke-opacity: 0.75; stroke-width: 0.5"/>
     <use xlink:href="#m77e3ff7c03" x="556.140897" y="140.965714" style="fill: #2980b9; fill-opacity: 0.75; stroke: #ffffff; stroke-opacity: 0.75; stroke-width: 0.5"/>
     <use xlink:href="#m77e3ff7c03" x="557.513239" y="134.126075" style="fill: #2980b9; fill-opacity: 0.75; stroke: #ffffff; stroke-opacity: 0.75; stroke-width: 0.5"/>
     <use xlink:href="#m77e3ff7c03" x="544.628171" y="141.680514" style="fill: #2980b9; fill-opacity: 0.75; stroke: #ffffff; stroke-opacity: 0.75; stroke-width: 0.5"/>
     <use xlink:href="#m77e3ff7c03" x="503.344114" y="147.033136" style="fill: #2980b9; fill-opacity: 0.75; stroke: #ffffff; stroke-opacity: 0.75; stroke-width: 0.5"/>
     <use xlink:href="#m77e3ff7c03" x="486.385659" y="134.431568" style="fill: #2980b9; fill-opacity: 0.75; stroke: #ffffff; stroke-opacity: 0.75; stroke-width: 0.5"/>
     <use xlink:href="#m77e3ff7c03" x="534.453153" y="149.907178" style="fill: #2980b9; fill-opacity: 0.75; stroke: #ffffff; stroke-opacity: 0.75; stroke-width: 0.5"/>
     <use xlink:href="#m77e3ff7c03" x="514.451242" y="113.342761" style="fill: #2980b9; fill-opacity: 0.75; stroke: #ffffff; stroke-opacity: 0.75; stroke-width: 0.5"/>
     <use xlink:href="#m77e3ff7c03" x="488.382414" y="127.607893" style="fill: #2980b9; fill-opacity: 0.75; stroke: #ffffff; stroke-opacity: 0.75; stroke-width: 0.5"/>
     <use xlink:href="#m77e3ff7c03" x="518.960382" y="135.536969" style="fill: #2980b9; fill-opacity: 0.75; stroke: #ffffff; stroke-opacity: 0.75; stroke-width: 0.5"/>
     <use xlink:href="#m77e3ff7c03" x="481.199696" y="143.175188" style="fill: #2980b9; fill-opacity: 0.75; stroke: #ffffff; stroke-opacity: 0.75; stroke-width: 0.5"/>
     <use xlink:href="#m77e3ff7c03" x="552.898613" y="134.431568" style="fill: #2980b9; fill-opacity: 0.75; stroke: #ffffff; stroke-opacity: 0.75; stroke-width: 0.5"/>
     <use xlink:href="#m77e3ff7c03" x="499.588127" y="120.429826" style="fill: #2980b9; fill-opacity: 0.75; stroke: #ffffff; stroke-opacity: 0.75; stroke-width: 0.5"/>
     <use xlink:href="#m77e3ff7c03" x="532.674001" y="148.43331" style="fill: #2980b9; fill-opacity: 0.75; stroke: #ffffff; stroke-opacity: 0.75; stroke-width: 0.5"/>
     <use xlink:href="#m77e3ff7c03" x="503.925724" y="134.126075" style="fill: #2980b9; fill-opacity: 0.75; stroke: #ffffff; stroke-opacity: 0.75; stroke-width: 0.5"/>
     <use xlink:href="#m77e3ff7c03" x="521.000159" y="127.097322" style="fill: #2980b9; fill-opacity: 0.75; stroke: #ffffff; stroke-opacity: 0.75; stroke-width: 0.5"/>
     <use xlink:href="#m77e3ff7c03" x="523.183439" y="127.034541" style="fill: #2980b9; fill-opacity: 0.75; stroke: #ffffff; stroke-opacity: 0.75; stroke-width: 0.5"/>
     <use xlink:href="#m77e3ff7c03" x="493.530078" y="133.974989" style="fill: #2980b9; fill-opacity: 0.75; stroke: #ffffff; stroke-opacity: 0.75; stroke-width: 0.5"/>
    </g>
   </g>
   <g id="text_25">
    <!-- Macro-F1 across 25 folds -->
    <g transform="translate(420.748594 79.92) scale(0.14 -0.14)">
     <defs>
      <path id="DejaVuSans-Bold-4d" d="M 588 4666 
L 2119 4666 
L 3181 2169 
L 4250 4666 
L 5778 4666 
L 5778 0 
L 4641 0 
L 4641 3413 
L 3566 897 
L 2803 897 
L 1728 3413 
L 1728 0 
L 588 0 
L 588 4666 
z
" transform="scale(0.015625)"/>
      <path id="DejaVuSans-Bold-2d" d="M 347 2297 
L 2309 2297 
L 2309 1388 
L 347 1388 
L 347 2297 
z
" transform="scale(0.015625)"/>
      <path id="DejaVuSans-Bold-46" d="M 588 4666 
L 3834 4666 
L 3834 3756 
L 1791 3756 
L 1791 2888 
L 3713 2888 
L 3713 1978 
L 1791 1978 
L 1791 0 
L 588 0 
L 588 4666 
z
" transform="scale(0.015625)"/>
      <path id="DejaVuSans-Bold-31" d="M 750 831 
L 1813 831 
L 1813 3847 
L 722 3622 
L 722 4441 
L 1806 4666 
L 2950 4666 
L 2950 831 
L 4013 831 
L 4013 0 
L 750 0 
L 750 831 
z
" transform="scale(0.015625)"/>
     </defs>
     <use xlink:href="#DejaVuSans-Bold-4d"/>
     <use xlink:href="#DejaVuSans-Bold-61" transform="translate(99.511719 0)"/>
     <use xlink:href="#DejaVuSans-Bold-63" transform="translate(166.992188 0)"/>
     <use xlink:href="#DejaVuSans-Bold-72" transform="translate(226.269531 0)"/>
     <use xlink:href="#DejaVuSans-Bold-6f" transform="translate(275.585938 0)"/>
     <use xlink:href="#DejaVuSans-Bold-2d" transform="translate(344.287109 0)"/>
     <use xlink:href="#DejaVuSans-Bold-46" transform="translate(385.791016 0)"/>
     <use xlink:href="#DejaVuSans-Bold-31" transform="translate(454.101562 0)"/>
     <use xlink:href="#DejaVuSans-Bold-20" transform="translate(523.681641 0)"/>
     <use xlink:href="#DejaVuSans-Bold-61" transform="translate(558.496094 0)"/>
     <use xlink:href="#DejaVuSans-Bold-63" transform="translate(625.976562 0)"/>
     <use xlink:href="#DejaVuSans-Bold-72" transform="translate(685.253906 0)"/>
     <use xlink:href="#DejaVuSans-Bold-6f" transform="translate(734.570312 0)"/>
     <use xlink:href="#DejaVuSans-Bold-73" transform="translate(803.271484 0)"/>
     <use xlink:href="#DejaVuSans-Bold-73" transform="translate(862.792969 0)"/>
     <use xlink:href="#DejaVuSans-Bold-20" transform="translate(922.314453 0)"/>
     <use xlink:href="#DejaVuSans-Bold-32" transform="translate(957.128906 0)"/>
     <use xlink:href="#DejaVuSans-Bold-35" transform="translate(1026.708984 0)"/>
     <use xlink:href="#DejaVuSans-Bold-20" transform="translate(1096.289062 0)"/>
     <use xlink:href="#DejaVuSans-Bold-66" transform="translate(1131.103516 0)"/>
     <use xlink:href="#DejaVuSans-Bold-6f" transform="translate(1174.609375 0)"/>
     <use xlink:href="#DejaVuSans-Bold-6c" transform="translate(1243.310547 0)"/>
     <use xlink:href="#DejaVuSans-Bold-64" transform="translate(1277.587891 0)"/>
     <use xlink:href="#DejaVuSans-Bold-73" transform="translate(1349.169922 0)"/>
    </g>
   </g>
   <g id="legend_2">
    <g id="patch_12">
     <path d="M 536.95125 347.68 
L 648.935625 347.68 
Q 650.935625 347.68 650.935625 345.68 
L 650.935625 302.645625 
Q 650.935625 300.645625 648.935625 300.645625 
L 536.95125 300.645625 
Q 534.95125 300.645625 534.95125 302.645625 
L 534.95125 345.68 
Q 534.95125 347.68 536.95125 347.68 
z
" style="fill: #ffffff; opacity: 0.8; stroke: #cccccc; stroke-linejoin: miter"/>
    </g>
    <g id="patch_13">
     <path d="M 538.95125 312.244062 
L 558.95125 312.244062 
L 558.95125 305.244062 
L 538.95125 305.244062 
z
" style="fill: #2980b9; opacity: 0.12; stroke: #2980b9; stroke-linejoin: miter"/>
    </g>
    <g id="text_26">
     <!-- +/-1 std (0.034) -->
     <g transform="translate(566.95125 312.244062) scale(0.1 -0.1)">
      <use xlink:href="#DejaVuSans-2b"/>
      <use xlink:href="#DejaVuSans-2f" transform="translate(83.789062 0)"/>
      <use xlink:href="#DejaVuSans-2d" transform="translate(117.480469 0)"/>
      <use xlink:href="#DejaVuSans-31" transform="translate(153.564453 0)"/>
      <use xlink:href="#DejaVuSans-20" transform="translate(217.1875 0)"/>
      <use xlink:href="#DejaVuSans-73" transform="translate(248.974609 0)"/>
      <use xlink:href="#DejaVuSans-74" transform="translate(301.074219 0)"/>
      <use xlink:href="#DejaVuSans-64" transform="translate(340.283203 0)"/>
      <use xlink:href="#DejaVuSans-20" transform="translate(403.759766 0)"/>
      <use xlink:href="#DejaVuSans-28" transform="translate(435.546875 0)"/>
      <use xlink:href="#DejaVuSans-30" transform="translate(474.560547 0)"/>
      <use xlink:href="#DejaVuSans-2e" transform="translate(538.183594 0)"/>
      <use xlink:href="#DejaVuSans-30" transform="translate(569.970703 0)"/>
      <use xlink:href="#DejaVuSans-33" transform="translate(633.59375 0)"/>
      <use xlink:href="#DejaVuSans-34" transform="translate(697.216797 0)"/>
      <use xlink:href="#DejaVuSans-29" transform="translate(760.839844 0)"/>
     </g>
    </g>
    <g id="line2d_43">
     <path d="M 538.95125 323.422188 
L 548.95125 323.422188 
L 558.95125 323.422188 
" style="fill: none; stroke-dasharray: 1.5,2.475; stroke-dashoffset: 0; stroke: #808080; stroke-width: 1.5"/>
    </g>
    <g id="text_27">
     <!-- Random (50%) -->
     <g transform="translate(566.95125 326.922188) scale(0.1 -0.1)">
      <use xlink:href="#DejaVuSans-52"/>
      <use xlink:href="#DejaVuSans-61" transform="translate(67.232422 0)"/>
      <use xlink:href="#DejaVuSans-6e" transform="translate(128.511719 0)"/>
      <use xlink:href="#DejaVuSans-64" transform="translate(191.890625 0)"/>
      <use xlink:href="#DejaVuSans-6f" transform="translate(255.367188 0)"/>
      <use xlink:href="#DejaVuSans-6d" transform="translate(316.548828 0)"/>
      <use xlink:href="#DejaVuSans-20" transform="translate(413.960938 0)"/>
      <use xlink:href="#DejaVuSans-28" transform="translate(445.748047 0)"/>
      <use xlink:href="#DejaVuSans-35" transform="translate(484.761719 0)"/>
      <use xlink:href="#DejaVuSans-30" transform="translate(548.384766 0)"/>
      <use xlink:href="#DejaVuSans-25" transform="translate(612.007812 0)"/>
      <use xlink:href="#DejaVuSans-29" transform="translate(707.027344 0)"/>
     </g>
    </g>
    <g id="line2d_44">
     <path d="M 538.95125 338.100312 
L 548.95125 338.100312 
L 558.95125 338.100312 
" style="fill: none; stroke-dasharray: 7.4,3.2; stroke-dashoffset: 0; stroke: #2c3e50; stroke-width: 2"/>
    </g>
    <g id="text_28">
     <!-- Mean = 0.869 -->
     <g transform="translate(566.95125 341.600312) scale(0.1 -0.1)">
      <use xlink:href="#DejaVuSans-4d"/>
      <use xlink:href="#DejaVuSans-65" transform="translate(86.279297 0)"/>
      <use xlink:href="#DejaVuSans-61" transform="translate(147.802734 0)"/>
      <use xlink:href="#DejaVuSans-6e" transform="translate(209.082031 0)"/>
      <use xlink:href="#DejaVuSans-20" transform="translate(272.460938 0)"/>
      <use xlink:href="#DejaVuSans-3d" transform="translate(304.248047 0)"/>
      <use xlink:href="#DejaVuSans-20" transform="translate(388.037109 0)"/>
      <use xlink:href="#DejaVuSans-30" transform="translate(419.824219 0)"/>
      <use xlink:href="#DejaVuSans-2e" transform="translate(483.447266 0)"/>
      <use xlink:href="#DejaVuSans-38" transform="translate(515.234375 0)"/>
      <use xlink:href="#DejaVuSans-36" transform="translate(578.857422 0)"/>
      <use xlink:href="#DejaVuSans-39" transform="translate(642.480469 0)"/>
     </g>
    </g>
   </g>
  </g>
  <g id="axes_3">
   <g id="patch_14">
    <path d="M 714.095625 352.68 
L 987.255625 352.68 
L 987.255625 85.92 
L 714.095625 85.92 
z
" style="fill: #ffffff"/>
   </g>
   <g id="patch_15">
    <path d="M 714.095625 98.706089 
L 987.255625 98.706089 
L 987.255625 92.536521 
L 714.095625 92.536521 
z
" clip-path="url(#p6d5f7df79f)" style="fill: #27ae60; opacity: 0.12; stroke: #27ae60; stroke-linejoin: miter"/>
   </g>
   <g id="matplotlib.axis_5"/>
   <g id="matplotlib.axis_6">
    <g id="ytick_19">
     <g id="line2d_45">
      <path d="M 714.095625 352.68 
L 987.255625 352.68 
" clip-path="url(#p6d5f7df79f)" style="fill: none; stroke: #b0b0b0; stroke-opacity: 0.3; stroke-width: 0.8; stroke-linecap: square"/>
     </g>
     <g id="line2d_46">
      <g>
       <use xlink:href="#m598aefc114" x="714.095625" y="352.68" style="stroke: #000000; stroke-width: 0.8"/>
      </g>
     </g>
     <g id="text_29">
      <!-- 0.2 -->
      <g transform="translate(686.421563 357.618984) scale(0.13 -0.13)">
       <use xlink:href="#DejaVuSans-30"/>
       <use xlink:href="#DejaVuSans-2e" transform="translate(63.623047 0)"/>
       <use xlink:href="#DejaVuSans-32" transform="translate(95.410156 0)"/>
      </g>
     </g>
    </g>
    <g id="ytick_20">
     <g id="line2d_47">
      <path d="M 714.095625 320.148293 
L 987.255625 320.148293 
" clip-path="url(#p6d5f7df79f)" style="fill: none; stroke: #b0b0b0; stroke-opacity: 0.3; stroke-width: 0.8; stroke-linecap: square"/>
     </g>
     <g id="line2d_48">
      <g>
       <use xlink:href="#m598aefc114" x="714.095625" y="320.148293" style="stroke: #000000; stroke-width: 0.8"/>
      </g>
     </g>
     <g id="text_30">
      <!-- 0.3 -->
      <g transform="translate(686.421563 325.087277) scale(0.13 -0.13)">
       <use xlink:href="#DejaVuSans-30"/>
       <use xlink:href="#DejaVuSans-2e" transform="translate(63.623047 0)"/>
       <use xlink:href="#DejaVuSans-33" transform="translate(95.410156 0)"/>
      </g>
     </g>
    </g>
    <g id="ytick_21">
     <g id="line2d_49">
      <path d="M 714.095625 287.616585 
L 987.255625 287.616585 
" clip-path="url(#p6d5f7df79f)" style="fill: none; stroke: #b0b0b0; stroke-opacity: 0.3; stroke-width: 0.8; stroke-linecap: square"/>
     </g>
     <g id="line2d_50">
      <g>
       <use xlink:href="#m598aefc114" x="714.095625" y="287.616585" style="stroke: #000000; stroke-width: 0.8"/>
      </g>
     </g>
     <g id="text_31">
      <!-- 0.4 -->
      <g transform="translate(686.421563 292.55557) scale(0.13 -0.13)">
       <use xlink:href="#DejaVuSans-30"/>
       <use xlink:href="#DejaVuSans-2e" transform="translate(63.623047 0)"/>
       <use xlink:href="#DejaVuSans-34" transform="translate(95.410156 0)"/>
      </g>
     </g>
    </g>
    <g id="ytick_22">
     <g id="line2d_51">
      <path d="M 714.095625 255.084878 
L 987.255625 255.084878 
" clip-path="url(#p6d5f7df79f)" style="fill: none; stroke: #b0b0b0; stroke-opacity: 0.3; stroke-width: 0.8; stroke-linecap: square"/>
     </g>
     <g id="line2d_52">
      <g>
       <use xlink:href="#m598aefc114" x="714.095625" y="255.084878" style="stroke: #000000; stroke-width: 0.8"/>
      </g>
     </g>
     <g id="text_32">
      <!-- 0.5 -->
      <g transform="translate(686.421563 260.023862) scale(0.13 -0.13)">
       <use xlink:href="#DejaVuSans-30"/>
       <use xlink:href="#DejaVuSans-2e" transform="translate(63.623047 0)"/>
       <use xlink:href="#DejaVuSans-35" transform="translate(95.410156 0)"/>
      </g>
     </g>
    </g>
    <g id="ytick_23">
     <g id="line2d_53">
      <path d="M 714.095625 222.553171 
L 987.255625 222.553171 
" clip-path="url(#p6d5f7df79f)" style="fill: none; stroke: #b0b0b0; stroke-opacity: 0.3; stroke-width: 0.8; stroke-linecap: square"/>
     </g>
     <g id="line2d_54">
      <g>
       <use xlink:href="#m598aefc114" x="714.095625" y="222.553171" style="stroke: #000000; stroke-width: 0.8"/>
      </g>
     </g>
     <g id="text_33">
      <!-- 0.6 -->
      <g transform="translate(686.421563 227.492155) scale(0.13 -0.13)">
       <use xlink:href="#DejaVuSans-30"/>
       <use xlink:href="#DejaVuSans-2e" transform="translate(63.623047 0)"/>
       <use xlink:href="#DejaVuSans-36" transform="translate(95.410156 0)"/>
      </g>
     </g>
    </g>
    <g id="ytick_24">
     <g id="line2d_55">
      <path d="M 714.095625 190.021463 
L 987.255625 190.021463 
" clip-path="url(#p6d5f7df79f)" style="fill: none; stroke: #b0b0b0; stroke-opacity: 0.3; stroke-width: 0.8; stroke-linecap: square"/>
     </g>
     <g id="line2d_56">
      <g>
       <use xlink:href="#m598aefc114" x="714.095625" y="190.021463" style="stroke: #000000; stroke-width: 0.8"/>
      </g>
     </g>
     <g id="text_34">
      <!-- 0.7 -->
      <g transform="translate(686.421563 194.960448) scale(0.13 -0.13)">
       <use xlink:href="#DejaVuSans-30"/>
       <use xlink:href="#DejaVuSans-2e" transform="translate(63.623047 0)"/>
       <use xlink:href="#DejaVuSans-37" transform="translate(95.410156 0)"/>
      </g>
     </g>
    </g>
    <g id="ytick_25">
     <g id="line2d_57">
      <path d="M 714.095625 157.489756 
L 987.255625 157.489756 
" clip-path="url(#p6d5f7df79f)" style="fill: none; stroke: #b0b0b0; stroke-opacity: 0.3; stroke-width: 0.8; stroke-linecap: square"/>
     </g>
     <g id="line2d_58">
      <g>
       <use xlink:href="#m598aefc114" x="714.095625" y="157.489756" style="stroke: #000000; stroke-width: 0.8"/>
      </g>
     </g>
     <g id="text_35">
      <!-- 0.8 -->
      <g transform="translate(686.421563 162.42874) scale(0.13 -0.13)">
       <use xlink:href="#DejaVuSans-30"/>
       <use xlink:href="#DejaVuSans-2e" transform="translate(63.623047 0)"/>
       <use xlink:href="#DejaVuSans-38" transform="translate(95.410156 0)"/>
      </g>
     </g>
    </g>
    <g id="ytick_26">
     <g id="line2d_59">
      <path d="M 714.095625 124.958049 
L 987.255625 124.958049 
" clip-path="url(#p6d5f7df79f)" style="fill: none; stroke: #b0b0b0; stroke-opacity: 0.3; stroke-width: 0.8; stroke-linecap: square"/>
     </g>
     <g id="line2d_60">
      <g>
       <use xlink:href="#m598aefc114" x="714.095625" y="124.958049" style="stroke: #000000; stroke-width: 0.8"/>
      </g>
     </g>
     <g id="text_36">
      <!-- 0.9 -->
      <g transform="translate(686.421563 129.897033) scale(0.13 -0.13)">
       <use xlink:href="#DejaVuSans-30"/>
       <use xlink:href="#DejaVuSans-2e" transform="translate(63.623047 0)"/>
       <use xlink:href="#DejaVuSans-39" transform="translate(95.410156 0)"/>
      </g>
     </g>
    </g>
    <g id="ytick_27">
     <g id="line2d_61">
      <path d="M 714.095625 92.426341 
L 987.255625 92.426341 
" clip-path="url(#p6d5f7df79f)" style="fill: none; stroke: #b0b0b0; stroke-opacity: 0.3; stroke-width: 0.8; stroke-linecap: square"/>
     </g>
     <g id="line2d_62">
      <g>
       <use xlink:href="#m598aefc114" x="714.095625" y="92.426341" style="stroke: #000000; stroke-width: 0.8"/>
      </g>
     </g>
     <g id="text_37">
      <!-- 1.0 -->
      <g transform="translate(686.421563 97.365326) scale(0.13 -0.13)">
       <use xlink:href="#DejaVuSans-31"/>
       <use xlink:href="#DejaVuSans-2e" transform="translate(63.623047 0)"/>
       <use xlink:href="#DejaVuSans-30" transform="translate(95.410156 0)"/>
      </g>
     </g>
    </g>
    <g id="text_38">
     <!-- ROC-AUC -->
     <g transform="translate(679.717969 249.413281) rotate(-90) scale(0.13 -0.13)">
      <defs>
       <path id="DejaVuSans-4f" d="M 2522 4238 
Q 1834 4238 1429 3725 
Q 1025 3213 1025 2328 
Q 1025 1447 1429 934 
Q 1834 422 2522 422 
Q 3209 422 3611 934 
Q 4013 1447 4013 2328 
Q 4013 3213 3611 3725 
Q 3209 4238 2522 4238 
z
M 2522 4750 
Q 3503 4750 4090 4092 
Q 4678 3434 4678 2328 
Q 4678 1225 4090 567 
Q 3503 -91 2522 -91 
Q 1538 -91 948 565 
Q 359 1222 359 2328 
Q 359 3434 948 4092 
Q 1538 4750 2522 4750 
z
" transform="scale(0.015625)"/>
       <path id="DejaVuSans-43" d="M 4122 4306 
L 4122 3641 
Q 3803 3938 3442 4084 
Q 3081 4231 2675 4231 
Q 1875 4231 1450 3742 
Q 1025 3253 1025 2328 
Q 1025 1406 1450 917 
Q 1875 428 2675 428 
Q 3081 428 3442 575 
Q 3803 722 4122 1019 
L 4122 359 
Q 3791 134 3420 21 
Q 3050 -91 2638 -91 
Q 1578 -91 968 557 
Q 359 1206 359 2328 
Q 359 3453 968 4101 
Q 1578 4750 2638 4750 
Q 3056 4750 3426 4639 
Q 3797 4528 4122 4306 
z
" transform="scale(0.015625)"/>
       <path id="DejaVuSans-55" d="M 556 4666 
L 1191 4666 
L 1191 1831 
Q 1191 1081 1462 751 
Q 1734 422 2344 422 
Q 2950 422 3222 751 
Q 3494 1081 3494 1831 
L 3494 4666 
L 4128 4666 
L 4128 1753 
Q 4128 841 3676 375 
Q 3225 -91 2344 -91 
Q 1459 -91 1007 375 
Q 556 841 556 1753 
L 556 4666 
z
" transform="scale(0.015625)"/>
      </defs>
      <use xlink:href="#DejaVuSans-52"/>
      <use xlink:href="#DejaVuSans-4f" transform="translate(69.482422 0)"/>
      <use xlink:href="#DejaVuSans-43" transform="translate(148.193359 0)"/>
      <use xlink:href="#DejaVuSans-2d" transform="translate(218.017578 0)"/>
      <use xlink:href="#DejaVuSans-41" transform="translate(251.851562 0)"/>
      <use xlink:href="#DejaVuSans-55" transform="translate(320.259766 0)"/>
      <use xlink:href="#DejaVuSans-43" transform="translate(393.453125 0)"/>
     </g>
    </g>
   </g>
   <g id="line2d_63">
    <path d="M 714.095625 255.084878 
L 987.255625 255.084878 
" clip-path="url(#p6d5f7df79f)" style="fill: none; stroke-dasharray: 1.5,2.475; stroke-dashoffset: 0; stroke: #808080; stroke-width: 1.5"/>
   </g>
   <g id="line2d_64">
    <path d="M 714.095625 95.621305 
L 987.255625 95.621305 
" clip-path="url(#p6d5f7df79f)" style="fill: none; stroke-dasharray: 7.4,3.2; stroke-dashoffset: 0; stroke: #2c3e50; stroke-width: 2"/>
   </g>
   <g id="patch_16">
    <path d="M 714.095625 352.68 
L 714.095625 85.92 
" style="fill: none; stroke: #000000; stroke-width: 0.8; stroke-linejoin: miter; stroke-linecap: square"/>
   </g>
   <g id="patch_17">
    <path d="M 714.095625 352.68 
L 987.255625 352.68 
" style="fill: none; stroke: #000000; stroke-width: 0.8; stroke-linejoin: miter; stroke-linecap: square"/>
   </g>
   <g id="PathCollection_3">
    <defs>
     <path id="m50821ddcda" d="M 0 3.872983 
C 1.027127 3.872983 2.012324 3.464901 2.738613 2.738613 
C 3.464901 2.012324 3.872983 1.027127 3.872983 0 
C 3.872983 -1.027127 3.464901 -2.012324 2.738613 -2.738613 
C 2.012324 -3.464901 1.027127 -3.872983 0 -3.872983 
C -1.027127 -3.872983 -2.012324 -3.464901 -2.738613 -2.738613 
C -3.464901 -2.012324 -3.872983 -1.027127 -3.872983 0 
C -3.872983 1.027127 -3.464901 2.012324 -2.738613 2.738613 
C -2.012324 3.464901 -1.027127 3.872983 0 3.872983 
z
" style="stroke: #ffffff; stroke-opacity: 0.75; stroke-width: 0.5"/>
    </defs>
    <g clip-path="url(#p6d5f7df79f)">
     <use xlink:href="#m50821ddcda" x="889.157146" y="92.426341" style="fill: #27ae60; fill-opacity: 0.75; stroke: #ffffff; stroke-opacity: 0.75; stroke-width: 0.5"/>
     <use xlink:href="#m50821ddcda" x="873.22221" y="101.266479" style="fill: #27ae60; fill-opacity: 0.75; stroke: #ffffff; stroke-opacity: 0.75; stroke-width: 0.5"/>
     <use xlink:href="#m50821ddcda" x="886.691684" y="96.651239" style="fill: #27ae60; fill-opacity: 0.75; stroke: #ffffff; stroke-opacity: 0.75; stroke-width: 0.5"/>
     <use xlink:href="#m50821ddcda" x="883.030937" y="92.426341" style="fill: #27ae60; fill-opacity: 0.75; stroke: #ffffff; stroke-opacity: 0.75; stroke-width: 0.5"/>
     <use xlink:href="#m50821ddcda" x="858.698332" y="99.053171" style="fill: #27ae60; fill-opacity: 0.75; stroke: #ffffff; stroke-opacity: 0.75; stroke-width: 0.5"/>
     <use xlink:href="#m50821ddcda" x="885.247375" y="100.375819" style="fill: #27ae60; fill-opacity: 0.75; stroke: #ffffff; stroke-opacity: 0.75; stroke-width: 0.5"/>
     <use xlink:href="#m50821ddcda" x="816.953409" y="95.383769" style="fill: #27ae60; fill-opacity: 0.75; stroke: #ffffff; stroke-opacity: 0.75; stroke-width: 0.5"/>
     <use xlink:href="#m50821ddcda" x="825.762029" y="92.426341" style="fill: #27ae60; fill-opacity: 0.75; stroke: #ffffff; stroke-opacity: 0.75; stroke-width: 0.5"/>
     <use xlink:href="#m50821ddcda" x="813.407911" y="97.318328" style="fill: #27ae60; fill-opacity: 0.75; stroke: #ffffff; stroke-opacity: 0.75; stroke-width: 0.5"/>
     <use xlink:href="#m50821ddcda" x="836.361795" y="95.483833" style="fill: #27ae60; fill-opacity: 0.75; stroke: #ffffff; stroke-opacity: 0.75; stroke-width: 0.5"/>
     <use xlink:href="#m50821ddcda" x="841.552952" y="94.783712" style="fill: #27ae60; fill-opacity: 0.75; stroke: #ffffff; stroke-opacity: 0.75; stroke-width: 0.5"/>
     <use xlink:href="#m50821ddcda" x="831.938135" y="92.426341" style="fill: #27ae60; fill-opacity: 0.75; stroke: #ffffff; stroke-opacity: 0.75; stroke-width: 0.5"/>
     <use xlink:href="#m50821ddcda" x="877.615006" y="94.783712" style="fill: #27ae60; fill-opacity: 0.75; stroke: #ffffff; stroke-opacity: 0.75; stroke-width: 0.5"/>
     <use xlink:href="#m50821ddcda" x="838.936847" y="92.426341" style="fill: #27ae60; fill-opacity: 0.75; stroke: #ffffff; stroke-opacity: 0.75; stroke-width: 0.5"/>
     <use xlink:href="#m50821ddcda" x="832.723646" y="101.298625" style="fill: #27ae60; fill-opacity: 0.75; stroke: #ffffff; stroke-opacity: 0.75; stroke-width: 0.5"/>
     <use xlink:href="#m50821ddcda" x="854.174484" y="102.210314" style="fill: #27ae60; fill-opacity: 0.75; stroke: #ffffff; stroke-opacity: 0.75; stroke-width: 0.5"/>
     <use xlink:href="#m50821ddcda" x="821.250083" y="92.426341" style="fill: #27ae60; fill-opacity: 0.75; stroke: #ffffff; stroke-opacity: 0.75; stroke-width: 0.5"/>
     <use xlink:href="#m50821ddcda" x="875.440063" y="95.975255" style="fill: #27ae60; fill-opacity: 0.75; stroke: #ffffff; stroke-opacity: 0.75; stroke-width: 0.5"/>
     <use xlink:href="#m50821ddcda" x="815.810901" y="95.373054" style="fill: #27ae60; fill-opacity: 0.75; stroke: #ffffff; stroke-opacity: 0.75; stroke-width: 0.5"/>
     <use xlink:href="#m50821ddcda" x="890.575036" y="96.095331" style="fill: #27ae60; fill-opacity: 0.75; stroke: #ffffff; stroke-opacity: 0.75; stroke-width: 0.5"/>
     <use xlink:href="#m50821ddcda" x="872.985539" y="93.064218" style="fill: #27ae60; fill-opacity: 0.75; stroke: #ffffff; stroke-opacity: 0.75; stroke-width: 0.5"/>
     <use xlink:href="#m50821ddcda" x="825.985978" y="94.792284" style="fill: #27ae60; fill-opacity: 0.75; stroke: #ffffff; stroke-opacity: 0.75; stroke-width: 0.5"/>
     <use xlink:href="#m50821ddcda" x="810.154151" y="94.233659" style="fill: #27ae60; fill-opacity: 0.75; stroke: #ffffff; stroke-opacity: 0.75; stroke-width: 0.5"/>
     <use xlink:href="#m50821ddcda" x="876.527058" y="95.405436" style="fill: #27ae60; fill-opacity: 0.75; stroke: #ffffff; stroke-opacity: 0.75; stroke-width: 0.5"/>
     <use xlink:href="#m50821ddcda" x="867.627171" y="92.426341" style="fill: #27ae60; fill-opacity: 0.75; stroke: #ffffff; stroke-opacity: 0.75; stroke-width: 0.5"/>
    </g>
   </g>
   <g id="text_39">
    <!-- ROC-AUC across 25 folds -->
    <g transform="translate(753.165625 79.92) scale(0.14 -0.14)">
     <defs>
      <path id="DejaVuSans-Bold-52" d="M 2297 2597 
Q 2675 2597 2839 2737 
Q 3003 2878 3003 3200 
Q 3003 3519 2839 3656 
Q 2675 3794 2297 3794 
L 1791 3794 
L 1791 2597 
L 2297 2597 
z
M 1791 1766 
L 1791 0 
L 588 0 
L 588 4666 
L 2425 4666 
Q 3347 4666 3776 4356 
Q 4206 4047 4206 3378 
Q 4206 2916 3982 2619 
Q 3759 2322 3309 2181 
Q 3556 2125 3751 1926 
Q 3947 1728 4147 1325 
L 4800 0 
L 3519 0 
L 2950 1159 
Q 2778 1509 2601 1637 
Q 2425 1766 2131 1766 
L 1791 1766 
z
" transform="scale(0.015625)"/>
      <path id="DejaVuSans-Bold-4f" d="M 2719 3878 
Q 2169 3878 1866 3472 
Q 1563 3066 1563 2328 
Q 1563 1594 1866 1187 
Q 2169 781 2719 781 
Q 3272 781 3575 1187 
Q 3878 1594 3878 2328 
Q 3878 3066 3575 3472 
Q 3272 3878 2719 3878 
z
M 2719 4750 
Q 3844 4750 4481 4106 
Q 5119 3463 5119 2328 
Q 5119 1197 4481 553 
Q 3844 -91 2719 -91 
Q 1597 -91 958 553 
Q 319 1197 319 2328 
Q 319 3463 958 4106 
Q 1597 4750 2719 4750 
z
" transform="scale(0.015625)"/>
      <path id="DejaVuSans-Bold-43" d="M 4288 256 
Q 3956 84 3597 -3 
Q 3238 -91 2847 -91 
Q 1681 -91 1000 561 
Q 319 1213 319 2328 
Q 319 3447 1000 4098 
Q 1681 4750 2847 4750 
Q 3238 4750 3597 4662 
Q 3956 4575 4288 4403 
L 4288 3438 
Q 3953 3666 3628 3772 
Q 3303 3878 2944 3878 
Q 2300 3878 1931 3465 
Q 1563 3053 1563 2328 
Q 1563 1606 1931 1193 
Q 2300 781 2944 781 
Q 3303 781 3628 887 
Q 3953 994 4288 1222 
L 4288 256 
z
" transform="scale(0.015625)"/>
      <path id="DejaVuSans-Bold-55" d="M 588 4666 
L 1791 4666 
L 1791 1869 
Q 1791 1291 1980 1042 
Q 2169 794 2597 794 
Q 3028 794 3217 1042 
Q 3406 1291 3406 1869 
L 3406 4666 
L 4609 4666 
L 4609 1869 
Q 4609 878 4112 393 
Q 3616 -91 2597 -91 
Q 1581 -91 1084 393 
Q 588 878 588 1869 
L 588 4666 
z
" transform="scale(0.015625)"/>
     </defs>
     <use xlink:href="#DejaVuSans-Bold-52"/>
     <use xlink:href="#DejaVuSans-Bold-4f" transform="translate(77.001953 0)"/>
     <use xlink:href="#DejaVuSans-Bold-43" transform="translate(162.011719 0)"/>
     <use xlink:href="#DejaVuSans-Bold-2d" transform="translate(237.650391 0)"/>
     <use xlink:href="#DejaVuSans-Bold-41" transform="translate(279.154297 0)"/>
     <use xlink:href="#DejaVuSans-Bold-55" transform="translate(353.421875 0)"/>
     <use xlink:href="#DejaVuSans-Bold-43" transform="translate(434.623047 0)"/>
     <use xlink:href="#DejaVuSans-Bold-20" transform="translate(508.011719 0)"/>
     <use xlink:href="#DejaVuSans-Bold-61" transform="translate(542.826172 0)"/>
     <use xlink:href="#DejaVuSans-Bold-63" transform="translate(610.306641 0)"/>
     <use xlink:href="#DejaVuSans-Bold-72" transform="translate(669.583984 0)"/>
     <use xlink:href="#DejaVuSans-Bold-6f" transform="translate(718.900391 0)"/>
     <use xlink:href="#DejaVuSans-Bold-73" transform="translate(787.601562 0)"/>
     <use xlink:href="#DejaVuSans-Bold-73" transform="translate(847.123047 0)"/>
     <use xlink:href="#DejaVuSans-Bold-20" transform="translate(906.644531 0)"/>
     <use xlink:href="#DejaVuSans-Bold-32" transform="translate(941.458984 0)"/>
     <use xlink:href="#DejaVuSans-Bold-35" transform="translate(1011.039062 0)"/>
     <use xlink:href="#DejaVuSans-Bold-20" transform="translate(1080.619141 0)"/>
     <use xlink:href="#DejaVuSans-Bold-66" transform="translate(1115.433594 0)"/>
     <use xlink:href="#DejaVuSans-Bold-6f" transform="translate(1158.939453 0)"/>
     <use xlink:href="#DejaVuSans-Bold-6c" transform="translate(1227.640625 0)"/>
     <use xlink:href="#DejaVuSans-Bold-64" transform="translate(1261.917969 0)"/>
     <use xlink:href="#DejaVuSans-Bold-73" transform="translate(1333.5 0)"/>
    </g>
   </g>
   <g id="legend_3">
    <g id="patch_18">
     <path d="M 868.27125 347.68 
L 980.255625 347.68 
Q 982.255625 347.68 982.255625 345.68 
L 982.255625 302.645625 
Q 982.255625 300.645625 980.255625 300.645625 
L 868.27125 300.645625 
Q 866.27125 300.645625 866.27125 302.645625 
L 866.27125 345.68 
Q 866.27125 347.68 868.27125 347.68 
z
" style="fill: #ffffff; opacity: 0.8; stroke: #cccccc; stroke-linejoin: miter"/>
    </g>
    <g id="patch_19">
     <path d="M 870.27125 312.244062 
L 890.27125 312.244062 
L 890.27125 305.244062 
L 870.27125 305.244062 
z
" style="fill: #27ae60; opacity: 0.12; stroke: #27ae60; stroke-linejoin: miter"/>
    </g>
    <g id="text_40">
     <!-- +/-1 std (0.009) -->
     <g transform="translate(898.27125 312.244062) scale(0.1 -0.1)">
      <use xlink:href="#DejaVuSans-2b"/>
      <use xlink:href="#DejaVuSans-2f" transform="translate(83.789062 0)"/>
      <use xlink:href="#DejaVuSans-2d" transform="translate(117.480469 0)"/>
      <use xlink:href="#DejaVuSans-31" transform="translate(153.564453 0)"/>
      <use xlink:href="#DejaVuSans-20" transform="translate(217.1875 0)"/>
      <use xlink:href="#DejaVuSans-73" transform="translate(248.974609 0)"/>
      <use xlink:href="#DejaVuSans-74" transform="translate(301.074219 0)"/>
      <use xlink:href="#DejaVuSans-64" transform="translate(340.283203 0)"/>
      <use xlink:href="#DejaVuSans-20" transform="translate(403.759766 0)"/>
      <use xlink:href="#DejaVuSans-28" transform="translate(435.546875 0)"/>
      <use xlink:href="#DejaVuSans-30" transform="translate(474.560547 0)"/>
      <use xlink:href="#DejaVuSans-2e" transform="translate(538.183594 0)"/>
      <use xlink:href="#DejaVuSans-30" transform="translate(569.970703 0)"/>
      <use xlink:href="#DejaVuSans-30" transform="translate(633.59375 0)"/>
      <use xlink:href="#DejaVuSans-39" transform="translate(697.216797 0)"/>
      <use xlink:href="#DejaVuSans-29" transform="translate(760.839844 0)"/>
     </g>
    </g>
    <g id="line2d_65">
     <path d="M 870.27125 323.422188 
L 880.27125 323.422188 
L 890.27125 323.422188 
" style="fill: none; stroke-dasharray: 1.5,2.475; stroke-dashoffset: 0; stroke: #808080; stroke-width: 1.5"/>
    </g>
    <g id="text_41">
     <!-- Random (50%) -->
     <g transform="translate(898.27125 326.922188) scale(0.1 -0.1)">
      <use xlink:href="#DejaVuSans-52"/>
      <use xlink:href="#DejaVuSans-61" transform="translate(67.232422 0)"/>
      <use xlink:href="#DejaVuSans-6e" transform="translate(128.511719 0)"/>
      <use xlink:href="#DejaVuSans-64" transform="translate(191.890625 0)"/>
      <use xlink:href="#DejaVuSans-6f" transform="translate(255.367188 0)"/>
      <use xlink:href="#DejaVuSans-6d" transform="translate(316.548828 0)"/>
      <use xlink:href="#DejaVuSans-20" transform="translate(413.960938 0)"/>
      <use xlink:href="#DejaVuSans-28" transform="translate(445.748047 0)"/>
      <use xlink:href="#DejaVuSans-35" transform="translate(484.761719 0)"/>
      <use xlink:href="#DejaVuSans-30" transform="translate(548.384766 0)"/>
      <use xlink:href="#DejaVuSans-25" transform="translate(612.007812 0)"/>
      <use xlink:href="#DejaVuSans-29" transform="translate(707.027344 0)"/>
     </g>
    </g>
    <g id="line2d_66">
     <path d="M 870.27125 338.100312 
L 880.27125 338.100312 
L 890.27125 338.100312 
" style="fill: none; stroke-dasharray: 7.4,3.2; stroke-dashoffset: 0; stroke: #2c3e50; stroke-width: 2"/>
    </g>
    <g id="text_42">
     <!-- Mean = 0.990 -->
     <g transform="translate(898.27125 341.600312) scale(0.1 -0.1)">
      <use xlink:href="#DejaVuSans-4d"/>
      <use xlink:href="#DejaVuSans-65" transform="translate(86.279297 0)"/>
      <use xlink:href="#DejaVuSans-61" transform="translate(147.802734 0)"/>
      <use xlink:href="#DejaVuSans-6e" transform="translate(209.082031 0)"/>
      <use xlink:href="#DejaVuSans-20" transform="translate(272.460938 0)"/>
      <use xlink:href="#DejaVuSans-3d" transform="translate(304.248047 0)"/>
      <use xlink:href="#DejaVuSans-20" transform="translate(388.037109 0)"/>
      <use xlink:href="#DejaVuSans-30" transform="translate(419.824219 0)"/>
      <use xlink:href="#DejaVuSans-2e" transform="translate(483.447266 0)"/>
      <use xlink:href="#DejaVuSans-39" transform="translate(515.234375 0)"/>
      <use xlink:href="#DejaVuSans-39" transform="translate(578.857422 0)"/>
      <use xlink:href="#DejaVuSans-30" transform="translate(642.480469 0)"/>
     </g>
    </g>
   </g>
  </g>
  <g id="text_43">
   <!-- Per-fold performance - codebert -->
   <g transform="translate(393.616562 17.077969) scale(0.13 -0.13)">
    <defs>
     <path id="DejaVuSans-50" d="M 1259 4147 
L 1259 2394 
L 2053 2394 
Q 2494 2394 2734 2622 
Q 2975 2850 2975 3272 
Q 2975 3691 2734 3919 
Q 2494 4147 2053 4147 
L 1259 4147 
z
M 628 4666 
L 2053 4666 
Q 2838 4666 3239 4311 
Q 3641 3956 3641 3272 
Q 3641 2581 3239 2228 
Q 2838 1875 2053 1875 
L 1259 1875 
L 1259 0 
L 628 0 
L 628 4666 
z
" transform="scale(0.015625)"/>
     <path id="DejaVuSans-66" d="M 2375 4863 
L 2375 4384 
L 1825 4384 
Q 1516 4384 1395 4259 
Q 1275 4134 1275 3809 
L 1275 3500 
L 2222 3500 
L 2222 3053 
L 1275 3053 
L 1275 0 
L 697 0 
L 697 3053 
L 147 3053 
L 147 3500 
L 697 3500 
L 697 3744 
Q 697 4328 969 4595 
Q 1241 4863 1831 4863 
L 2375 4863 
z
" transform="scale(0.015625)"/>
     <path id="DejaVuSans-6c" d="M 603 4863 
L 1178 4863 
L 1178 0 
L 603 0 
L 603 4863 
z
" transform="scale(0.015625)"/>
     <path id="DejaVuSans-70" d="M 1159 525 
L 1159 -1331 
L 581 -1331 
L 581 3500 
L 1159 3500 
L 1159 2969 
Q 1341 3281 1617 3432 
Q 1894 3584 2278 3584 
Q 2916 3584 3314 3078 
Q 3713 2572 3713 1747 
Q 3713 922 3314 415 
Q 2916 -91 2278 -91 
Q 1894 -91 1617 61 
Q 1341 213 1159 525 
z
M 3116 1747 
Q 3116 2381 2855 2742 
Q 2594 3103 2138 3103 
Q 1681 3103 1420 2742 
Q 1159 2381 1159 1747 
Q 1159 1113 1420 752 
Q 1681 391 2138 391 
Q 2594 391 2855 752 
Q 3116 1113 3116 1747 
z
" transform="scale(0.015625)"/>
     <path id="DejaVuSans-62" d="M 3116 1747 
Q 3116 2381 2855 2742 
Q 2594 3103 2138 3103 
Q 1681 3103 1420 2742 
Q 1159 2381 1159 1747 
Q 1159 1113 1420 752 
Q 1681 391 2138 391 
Q 2594 391 2855 752 
Q 3116 1113 3116 1747 
z
M 1159 2969 
Q 1341 3281 1617 3432 
Q 1894 3584 2278 3584 
Q 2916 3584 3314 3078 
Q 3713 2572 3713 1747 
Q 3713 922 3314 415 
Q 2916 -91 2278 -91 
Q 1894 -91 1617 61 
Q 1341 213 1159 525 
L 1159 0 
L 581 0 
L 581 4863 
L 1159 4863 
L 1159 2969 
z
" transform="scale(0.015625)"/>
    </defs>
    <use xlink:href="#DejaVuSans-50"/>
    <use xlink:href="#DejaVuSans-65" transform="translate(56.677734 0)"/>
    <use xlink:href="#DejaVuSans-72" transform="translate(118.201172 0)"/>
    <use xlink:href="#DejaVuSans-2d" transform="translate(152.939453 0)"/>
    <use xlink:href="#DejaVuSans-66" transform="translate(189.023438 0)"/>
    <use xlink:href="#DejaVuSans-6f" transform="translate(224.228516 0)"/>
    <use xlink:href="#DejaVuSans-6c" transform="translate(285.410156 0)"/>
    <use xlink:href="#DejaVuSans-64" transform="translate(313.193359 0)"/>
    <use xlink:href="#DejaVuSans-20" transform="translate(376.669922 0)"/>
    <use xlink:href="#DejaVuSans-70" transform="translate(408.457031 0)"/>
    <use xlink:href="#DejaVuSans-65" transform="translate(471.933594 0)"/>
    <use xlink:href="#DejaVuSans-72" transform="translate(533.457031 0)"/>
    <use xlink:href="#DejaVuSans-66" transform="translate(574.570312 0)"/>
    <use xlink:href="#DejaVuSans-6f" transform="translate(609.775391 0)"/>
    <use xlink:href="#DejaVuSans-72" transform="translate(670.957031 0)"/>
    <use xlink:href="#DejaVuSans-6d" transform="translate(710.320312 0)"/>
    <use xlink:href="#DejaVuSans-61" transform="translate(807.732422 0)"/>
    <use xlink:href="#DejaVuSans-6e" transform="translate(869.011719 0)"/>
    <use xlink:href="#DejaVuSans-63" transform="translate(932.390625 0)"/>
    <use xlink:href="#DejaVuSans-65" transform="translate(987.371094 0)"/>
    <use xlink:href="#DejaVuSans-20" transform="translate(1048.894531 0)"/>
    <use xlink:href="#DejaVuSans-2d" transform="translate(1080.681641 0)"/>
    <use xlink:href="#DejaVuSans-20" transform="translate(1116.765625 0)"/>
    <use xlink:href="#DejaVuSans-63" transform="translate(1148.552734 0)"/>
    <use xlink:href="#DejaVuSans-6f" transform="translate(1203.533203 0)"/>
    <use xlink:href="#DejaVuSans-64" transform="translate(1264.714844 0)"/>
    <use xlink:href="#DejaVuSans-65" transform="translate(1328.191406 0)"/>
    <use xlink:href="#DejaVuSans-62" transform="translate(1389.714844 0)"/>
    <use xlink:href="#DejaVuSans-65" transform="translate(1453.191406 0)"/>
    <use xlink:href="#DejaVuSans-72" transform="translate(1514.714844 0)"/>
    <use xlink:href="#DejaVuSans-74" transform="translate(1555.828125 0)"/>
   </g>
   <!-- 5-fold CV x 5 seeds -->
   <g transform="translate(434.488359 31.635125) scale(0.13 -0.13)">
    <defs>
     <path id="DejaVuSans-56" d="M 1831 0 
L 50 4666 
L 709 4666 
L 2188 738 
L 3669 4666 
L 4325 4666 
L 2547 0 
L 1831 0 
z
" transform="scale(0.015625)"/>
     <path id="DejaVuSans-78" d="M 3513 3500 
L 2247 1797 
L 3578 0 
L 2900 0 
L 1881 1375 
L 863 0 
L 184 0 
L 1544 1831 
L 300 3500 
L 978 3500 
L 1906 2253 
L 2834 3500 
L 3513 3500 
z
" transform="scale(0.015625)"/>
    </defs>
    <use xlink:href="#DejaVuSans-35"/>
    <use xlink:href="#DejaVuSans-2d" transform="translate(63.623047 0)"/>
    <use xlink:href="#DejaVuSans-66" transform="translate(99.707031 0)"/>
    <use xlink:href="#DejaVuSans-6f" transform="translate(134.912109 0)"/>
    <use xlink:href="#DejaVuSans-6c" transform="translate(196.09375 0)"/>
    <use xlink:href="#DejaVuSans-64" transform="translate(223.876953 0)"/>
    <use xlink:href="#DejaVuSans-20" transform="translate(287.353516 0)"/>
    <use xlink:href="#DejaVuSans-43" transform="translate(319.140625 0)"/>
    <use xlink:href="#DejaVuSans-56" transform="translate(388.964844 0)"/>
    <use xlink:href="#DejaVuSans-20" transform="translate(457.373047 0)"/>
    <use xlink:href="#DejaVuSans-78" transform="translate(489.160156 0)"/>
    <use xlink:href="#DejaVuSans-20" transform="translate(548.339844 0)"/>
    <use xlink:href="#DejaVuSans-35" transform="translate(580.126953 0)"/>
    <use xlink:href="#DejaVuSans-20" transform="translate(643.75 0)"/>
    <use xlink:href="#DejaVuSans-73" transform="translate(675.537109 0)"/>
    <use xlink:href="#DejaVuSans-65" transform="translate(727.636719 0)"/>
    <use xlink:href="#DejaVuSans-65" transform="translate(789.160156 0)"/>
    <use xlink:href="#DejaVuSans-64" transform="translate(850.683594 0)"/>
    <use xlink:href="#DejaVuSans-73" transform="translate(914.160156 0)"/>
   </g>
  </g>
 </g>
 <defs>
  <clipPath id="p14cbdf87d2">
   <rect x="51.455625" y="85.92" width="273.16" height="266.76"/>
  </clipPath>
  <clipPath id="pbb9d6d491e">
   <rect x="382.775625" y="85.92" width="273.16" height="266.76"/>
  </clipPath>
  <clipPath id="p6d5f7df79f">
   <rect x="714.095625" y="85.92" width="273.16" height="266.76"/>
  </clipPath>
 </defs>
</svg>
