<?xml version="1.0" encoding="utf-8" standalone="no"?>
<!DOCTYPE svg PUBLIC "-//W3C//DTD SVG 1.1//EN"
  "http://www.w3.org/Graphics/SVG/1.1/DTD/svg11.dtd">
<svg xmlns:xlink="http://www.w3.org/1999/xlink" width="392.624357pt" height="418.614625pt" viewBox="0 0 392.624357 418.614625" xmlns="http://www.w3.org/2000/svg" version="1.1">
 <metadata>
  <rdf:RDF xmlns:dc="http://purl.org/dc/elements/1.1/" xmlns:cc="http://creativecommons.org/ns#" xmlns:rdf="http://www.w3.org/1999/02/22-rdf-syntax-ns#">
   <cc:Work>
    <dc:type rdf:resource="http://purl.org/dc/dcmitype/StillImage"/>
    <dc:date>2026-05-07T05:41:02.673683</dc:date>
    <dc:format>image/svg+xml</dc:format>
    <dc:creator>
     <cc:Agent>
      <dc:title>Matplotlib v3.10.8, https://matplotlib.org/</dc:title>
     </cc:Agent>
    </dc:creator>
   </cc:Work>
  </rdf:RDF>
 </metadata>
 <defs>
  <style type="text/css">*{stroke-linejoin: round; stroke-linecap: butt}</style>
 </defs>
 <g id="figure_1">
  <g id="patch_1">
   <path d="M 0 418.614625 
L 392.624357 418.614625 
L 392.624357 0 
L 0 0 
z
" style="fill: #ffffff"/>
  </g>
  <g id="axes_1">
   <g id="patch_2">
    <path d="M 51.455625 375.2515 
L 381.433046 375.2515 
L 381.433046 35.7555 
L 51.455625 35.7555 
z
" style="fill: #ffffff"/>
   </g>
   <g id="FillBetweenPolyCollection_1">
    <defs>
     <path id="m6e5302364b" d="M 57.801345 -360.995029 
L 57.801345 -292.31554 
L 59.395747 -292.31554 
L 60.990148 -292.31554 
L 62.58455 -292.31554 
L 64.178952 -292.31554 
L 65.773354 -292.31554 
L 67.367756 -292.31554 
L 68.962158 -295.628929 
L 70.55656 -318.864483 
L 72.150962 -329.947372 
L 73.745364 -332.75979 
L 75.339766 -332.75979 
L 76.934168 -332.75979 
L 78.52857 -332.75979 
L 80.122971 -332.75979 
L 81.717373 -333.018698 
L 83.311775 -336.593012 
L 84.906177 -338.5252 
L 86.500579 -346.717015 
L 88.094981 -346.717015 
L 89.689383 -347.966671 
L 91.283785 -347.966671 
L 92.878187 -349.345337 
L 94.472589 -351.073968 
L 96.066991 -351.073968 
L 97.661393 -351.073968 
L 99.255794 -353.482307 
L 100.850196 -353.482307 
L 102.444598 -353.482307 
L 104.039 -353.482307 
L 105.633402 -353.482307 
L 107.227804 -353.482307 
L 108.822206 -353.482307 
L 110.416608 -353.482307 
L 112.01101 -354.022623 
L 113.605412 -354.558996 
L 115.199814 -355.362916 
L 116.794216 -355.362916 
L 118.388617 -355.362916 
L 119.983019 -356.470772 
L 121.577421 -357.028144 
L 123.171823 -357.028144 
L 124.766225 -357.028144 
L 126.360627 -357.028144 
L 127.955029 -357.028144 
L 129.549431 -357.93644 
L 131.143833 -358.847641 
L 132.738235 -358.847641 
L 134.332637 -358.847641 
L 135.927039 -358.847641 
L 137.52144 -360.865459 
L 139.115842 -360.865459 
L 140.710244 -360.865459 
L 142.304646 -360.865459 
L 143.899048 -360.865459 
L 145.49345 -360.865459 
L 147.087852 -360.865459 
L 148.682254 -360.865459 
L 150.276656 -360.865459 
L 151.871058 -360.865459 
L 153.46546 -360.865459 
L 155.059862 -360.865459 
L 156.654263 -360.865459 
L 158.248665 -360.865459 
L 159.843067 -360.865459 
L 161.437469 -360.865459 
L 163.031871 -360.865459 
L 164.626273 -360.865459 
L 166.220675 -360.865459 
L 167.815077 -360.865459 
L 169.409479 -362.921233 
L 171.003881 -362.921233 
L 172.598283 -362.921233 
L 174.192685 -362.921233 
L 175.787086 -362.921233 
L 177.381488 -364.456538 
L 178.97589 -364.456538 
L 180.570292 -364.456538 
L 182.164694 -364.456538 
L 183.759096 -364.456538 
L 185.353498 -364.456538 
L 186.9479 -364.456538 
L 188.542302 -364.456538 
L 190.136704 -364.456538 
L 191.731106 -364.456538 
L 193.325507 -364.456538 
L 194.919909 -364.456538 
L 196.514311 -364.456538 
L 198.108713 -364.456538 
L 199.703115 -364.456538 
L 201.297517 -364.456538 
L 202.891919 -364.456538 
L 204.486321 -364.456538 
L 206.080723 -364.456538 
L 207.675125 -364.456538 
L 209.269527 -364.456538 
L 210.863929 -364.456538 
L 212.45833 -364.456538 
L 214.052732 -364.456538 
L 215.647134 -364.456538 
L 217.241536 -364.456538 
L 218.835938 -364.456538 
L 220.43034 -364.456538 
L 222.024742 -364.456538 
L 223.619144 -364.456538 
L 225.213546 -364.456538 
L 226.807948 -364.456538 
L 228.40235 -364.456538 
L 229.996752 -364.456538 
L 231.591153 -364.456538 
L 233.185555 -364.456538 
L 234.779957 -364.456538 
L 236.374359 -364.456538 
L 237.968761 -364.456538 
L 239.563163 -364.456538 
L 241.157565 -364.456538 
L 242.751967 -364.456538 
L 244.346369 -364.456538 
L 245.940771 -364.456538 
L 247.535173 -364.456538 
L 249.129575 -364.456538 
L 250.723976 -364.456538 
L 252.318378 -364.456538 
L 253.91278 -364.456538 
L 255.507182 -364.456538 
L 257.101584 -364.456538 
L 258.695986 -364.456538 
L 260.290388 -364.456538 
L 261.88479 -364.456538 
L 263.479192 -364.456538 
L 265.073594 -364.456538 
L 266.667996 -364.456538 
L 268.262398 -364.456538 
L 269.856799 -364.456538 
L 271.451201 -364.456538 
L 273.045603 -364.456538 
L 274.640005 -364.456538 
L 276.234407 -364.456538 
L 277.828809 -364.456538 
L 279.423211 -364.456538 
L 281.017613 -366.994826 
L 282.612015 -366.994826 
L 284.206417 -366.994826 
L 285.800819 -366.994826 
L 287.395221 -366.994826 
L 288.989622 -366.994826 
L 290.584024 -366.994826 
L 292.178426 -366.994826 
L 293.772828 -366.994826 
L 295.36723 -366.994826 
L 296.961632 -366.994826 
L 298.556034 -366.994826 
L 300.150436 -366.994826 
L 301.744838 -366.994826 
L 303.33924 -366.994826 
L 304.933642 -366.994826 
L 306.528044 -366.994826 
L 308.122445 -366.994826 
L 309.716847 -366.994826 
L 311.311249 -366.994826 
L 312.905651 -366.994826 
L 314.500053 -366.994826 
L 316.094455 -366.994826 
L 317.688857 -366.994826 
L 319.283259 -366.994826 
L 320.877661 -366.994826 
L 322.472063 -366.994826 
L 324.066465 -366.994826 
L 325.660867 -366.994826 
L 327.255268 -366.994826 
L 328.84967 -366.994826 
L 330.444072 -366.994826 
L 332.038474 -366.994826 
L 333.632876 -366.994826 
L 335.227278 -366.994826 
L 336.82168 -366.994826 
L 338.416082 -366.994826 
L 340.010484 -366.994826 
L 341.604886 -366.994826 
L 343.199288 -366.994826 
L 344.79369 -366.994826 
L 346.388091 -366.994826 
L 347.982493 -366.994826 
L 349.576895 -366.994826 
L 351.171297 -366.994826 
L 352.765699 -366.994826 
L 354.360101 -366.994826 
L 355.954503 -366.994826 
L 357.548905 -366.994826 
L 359.143307 -366.994826 
L 360.737709 -366.994826 
L 362.332111 -366.994826 
L 363.926513 -366.994826 
L 365.520914 -366.994826 
L 367.115316 -366.994826 
L 368.709718 -366.994826 
L 370.30412 -366.994826 
L 371.898522 -366.994826 
L 373.492924 -366.994826 
L 375.087326 -366.994826 
L 375.087326 -366.994826 
L 375.087326 -366.994826 
L 373.492924 -366.994826 
L 371.898522 -366.994826 
L 370.30412 -366.994826 
L 368.709718 -366.994826 
L 367.115316 -366.994826 
L 365.520914 -366.994826 
L 363.926513 -366.994826 
L 362.332111 -366.994826 
L 360.737709 -366.994826 
L 359.143307 -366.994826 
L 357.548905 -366.994826 
L 355.954503 -366.994826 
L 354.360101 -366.994826 
L 352.765699 -366.994826 
L 351.171297 -366.994826 
L 349.576895 -366.994826 
L 347.982493 -366.994826 
L 346.388091 -366.994826 
L 344.79369 -366.994826 
L 343.199288 -366.994826 
L 341.604886 -366.994826 
L 340.010484 -366.994826 
L 338.416082 -366.994826 
L 336.82168 -366.994826 
L 335.227278 -366.994826 
L 333.632876 -366.994826 
L 332.038474 -366.994826 
L 330.444072 -366.994826 
L 328.84967 -366.994826 
L 327.255268 -366.994826 
L 325.660867 -366.994826 
L 324.066465 -366.994826 
L 322.472063 -366.994826 
L 320.877661 -366.994826 
L 319.283259 -366.994826 
L 317.688857 -366.994826 
L 316.094455 -366.994826 
L 314.500053 -366.994826 
L 312.905651 -366.994826 
L 311.311249 -366.994826 
L 309.716847 -366.994826 
L 308.122445 -366.994826 
L 306.528044 -366.994826 
L 304.933642 -366.994826 
L 303.33924 -366.994826 
L 301.744838 -366.994826 
L 300.150436 -366.994826 
L 298.556034 -366.994826 
L 296.961632 -366.994826 
L 295.36723 -366.994826 
L 293.772828 -366.994826 
L 292.178426 -366.994826 
L 290.584024 -366.994826 
L 288.989622 -366.994826 
L 287.395221 -366.994826 
L 285.800819 -366.994826 
L 284.206417 -366.994826 
L 282.612015 -366.994826 
L 281.017613 -366.994826 
L 279.423211 -368.687018 
L 277.828809 -368.687018 
L 276.234407 -368.687018 
L 274.640005 -368.687018 
L 273.045603 -368.687018 
L 271.451201 -368.687018 
L 269.856799 -368.687018 
L 268.262398 -368.687018 
L 266.667996 -368.687018 
L 265.073594 -368.687018 
L 263.479192 -368.687018 
L 261.88479 -368.687018 
L 260.290388 -368.687018 
L 258.695986 -368.687018 
L 257.101584 -368.687018 
L 255.507182 -368.687018 
L 253.91278 -368.687018 
L 252.318378 -368.687018 
L 250.723976 -368.687018 
L 249.129575 -368.687018 
L 247.535173 -368.687018 
L 245.940771 -368.687018 
L 244.346369 -368.687018 
L 242.751967 -368.687018 
L 241.157565 -368.687018 
L 239.563163 -368.687018 
L 237.968761 -368.687018 
L 236.374359 -368.687018 
L 234.779957 -368.687018 
L 233.185555 -368.687018 
L 231.591153 -368.687018 
L 229.996752 -368.687018 
L 228.40235 -368.687018 
L 226.807948 -368.687018 
L 225.213546 -368.687018 
L 223.619144 -368.687018 
L 222.024742 -368.687018 
L 220.43034 -368.687018 
L 218.835938 -368.687018 
L 217.241536 -368.687018 
L 215.647134 -368.687018 
L 214.052732 -368.687018 
L 212.45833 -368.687018 
L 210.863929 -368.687018 
L 209.269527 -368.687018 
L 207.675125 -368.687018 
L 206.080723 -368.687018 
L 204.486321 -368.687018 
L 202.891919 -368.687018 
L 201.297517 -368.687018 
L 199.703115 -368.687018 
L 198.108713 -368.687018 
L 196.514311 -368.687018 
L 194.919909 -368.687018 
L 193.325507 -368.687018 
L 191.731106 -368.687018 
L 190.136704 -368.687018 
L 188.542302 -368.687018 
L 186.9479 -368.687018 
L 185.353498 -368.687018 
L 183.759096 -368.687018 
L 182.164694 -368.687018 
L 180.570292 -368.687018 
L 178.97589 -368.687018 
L 177.381488 -368.687018 
L 175.787086 -369.246058 
L 174.192685 -369.246058 
L 172.598283 -369.246058 
L 171.003881 -369.246058 
L 169.409479 -369.246058 
L 167.815077 -370.455737 
L 166.220675 -370.455737 
L 164.626273 -370.455737 
L 163.031871 -370.455737 
L 161.437469 -370.455737 
L 159.843067 -370.455737 
L 158.248665 -370.455737 
L 156.654263 -370.455737 
L 155.059862 -370.455737 
L 153.46546 -370.455737 
L 151.871058 -370.455737 
L 150.276656 -370.455737 
L 148.682254 -370.455737 
L 147.087852 -370.455737 
L 145.49345 -370.455737 
L 143.899048 -370.455737 
L 142.304646 -370.455737 
L 140.710244 -370.455737 
L 139.115842 -370.455737 
L 137.52144 -370.455737 
L 135.927039 -371.49729 
L 134.332637 -371.49729 
L 132.738235 -371.49729 
L 131.143833 -371.49729 
L 129.549431 -371.350871 
L 127.955029 -371.155563 
L 126.360627 -371.155563 
L 124.766225 -371.155563 
L 123.171823 -371.155563 
L 121.577421 -371.155563 
L 119.983019 -370.86684 
L 118.388617 -370.638754 
L 116.794216 -370.638754 
L 115.199814 -370.638754 
L 113.605412 -370.288907 
L 112.01101 -369.885174 
L 110.416608 -369.449225 
L 108.822206 -369.449225 
L 107.227804 -369.449225 
L 105.633402 -369.449225 
L 104.039 -369.449225 
L 102.444598 -369.449225 
L 100.850196 -369.449225 
L 99.255794 -369.449225 
L 97.661393 -368.64141 
L 96.066991 -368.64141 
L 94.472589 -368.64141 
L 92.878187 -368.254801 
L 91.283785 -368.4797 
L 89.689383 -368.4797 
L 88.094981 -367.614116 
L 86.500579 -367.614116 
L 84.906177 -370.165292 
L 83.311775 -369.168686 
L 81.717373 -368.51252 
L 80.122971 -367.617661 
L 78.52857 -367.617661 
L 76.934168 -367.617661 
L 75.339766 -367.617661 
L 73.745364 -367.617661 
L 72.150962 -367.045695 
L 70.55656 -365.762567 
L 68.962158 -364.361345 
L 67.367756 -360.995029 
L 65.773354 -360.995029 
L 64.178952 -360.995029 
L 62.58455 -360.995029 
L 60.990148 -360.995029 
L 59.395747 -360.995029 
L 57.801345 -360.995029 
z
" style="stroke: #2980b9; stroke-opacity: 0.2"/>
    </defs>
    <g clip-path="url(#p39a60f0f60)">
     <use xlink:href="#m6e5302364b" x="0" y="418.614625" style="fill: #2980b9; fill-opacity: 0.2; stroke: #2980b9; stroke-opacity: 0.2"/>
    </g>
   </g>
   <g id="matplotlib.axis_1">
    <g id="xtick_1">
     <g id="line2d_1">
      <path d="M 57.801345 375.2515 
L 57.801345 35.7555 
" clip-path="url(#p39a60f0f60)" style="fill: none; stroke: #b0b0b0; stroke-opacity: 0.3; stroke-width: 0.8; stroke-linecap: square"/>
     </g>
     <g id="line2d_2">
      <defs>
       <path id="mf989611612" d="M 0 0 
L 0 3.5 
" style="stroke: #000000; stroke-width: 0.8"/>
      </defs>
      <g>
       <use xlink:href="#mf989611612" x="57.801345" y="375.2515" style="stroke: #000000; stroke-width: 0.8"/>
      </g>
     </g>
     <g id="text_1">
      <!-- 0.0 -->
      <g transform="translate(47.464313 392.129469) scale(0.13 -0.13)">
       <defs>
        <path id="DejaVuSans-30" d="M 2034 4250 
Q 1547 4250 1301 3770 
Q 1056 3291 1056 2328 
Q 1056 1369 1301 889 
Q 1547 409 2034 409 
Q 2525 409 2770 889 
Q 3016 1369 3016 2328 
Q 3016 3291 2770 3770 
Q 2525 4250 2034 4250 
z
M 2034 4750 
Q 2819 4750 3233 4129 
Q 3647 3509 3647 2328 
Q 3647 1150 3233 529 
Q 2819 -91 2034 -91 
Q 1250 -91 836 529 
Q 422 1150 422 2328 
Q 422 3509 836 4129 
Q 1250 4750 2034 4750 
z
" transform="scale(0.015625)"/>
        <path id="DejaVuSans-2e" d="M 684 794 
L 1344 794 
L 1344 0 
L 684 0 
L 684 794 
z
" transform="scale(0.015625)"/>
       </defs>
       <use xlink:href="#DejaVuSans-30"/>
       <use xlink:href="#DejaVuSans-2e" transform="translate(63.623047 0)"/>
       <use xlink:href="#DejaVuSans-30" transform="translate(95.410156 0)"/>
      </g>
     </g>
    </g>
    <g id="xtick_2">
     <g id="line2d_3">
      <path d="M 121.258541 375.2515 
L 121.258541 35.7555 
" clip-path="url(#p39a60f0f60)" style="fill: none; stroke: #b0b0b0; stroke-opacity: 0.3; stroke-width: 0.8; stroke-linecap: square"/>
     </g>
     <g id="line2d_4">
      <g>
       <use xlink:href="#mf989611612" x="121.258541" y="375.2515" style="stroke: #000000; stroke-width: 0.8"/>
      </g>
     </g>
     <g id="text_2">
      <!-- 0.2 -->
      <g transform="translate(110.92151 392.129469) scale(0.13 -0.13)">
       <defs>
        <path id="DejaVuSans-32" d="M 1228 531 
L 3431 531 
L 3431 0 
L 469 0 
L 469 531 
Q 828 903 1448 1529 
Q 2069 2156 2228 2338 
Q 2531 2678 2651 2914 
Q 2772 3150 2772 3378 
Q 2772 3750 2511 3984 
Q 2250 4219 1831 4219 
Q 1534 4219 1204 4116 
Q 875 4013 500 3803 
L 500 4441 
Q 881 4594 1212 4672 
Q 1544 4750 1819 4750 
Q 2544 4750 2975 4387 
Q 3406 4025 3406 3419 
Q 3406 3131 3298 2873 
Q 3191 2616 2906 2266 
Q 2828 2175 2409 1742 
Q 1991 1309 1228 531 
z
" transform="scale(0.015625)"/>
       </defs>
       <use xlink:href="#DejaVuSans-30"/>
       <use xlink:href="#DejaVuSans-2e" transform="translate(63.623047 0)"/>
       <use xlink:href="#DejaVuSans-32" transform="translate(95.410156 0)"/>
      </g>
     </g>
    </g>
    <g id="xtick_3">
     <g id="line2d_5">
      <path d="M 184.715737 375.2515 
L 184.715737 35.7555 
" clip-path="url(#p39a60f0f60)" style="fill: none; stroke: #b0b0b0; stroke-opacity: 0.3; stroke-width: 0.8; stroke-linecap: square"/>
     </g>
     <g id="line2d_6">
      <g>
       <use xlink:href="#mf989611612" x="184.715737" y="375.2515" style="stroke: #000000; stroke-width: 0.8"/>
      </g>
     </g>
     <g id="text_3">
      <!-- 0.4 -->
      <g transform="translate(174.378706 392.129469) scale(0.13 -0.13)">
       <defs>
        <path id="DejaVuSans-34" d="M 2419 4116 
L 825 1625 
L 2419 1625 
L 2419 4116 
z
M 2253 4666 
L 3047 4666 
L 3047 1625 
L 3713 1625 
L 3713 1100 
L 3047 1100 
L 3047 0 
L 2419 0 
L 2419 1100 
L 313 1100 
L 313 1709 
L 2253 4666 
z
" transform="scale(0.015625)"/>
       </defs>
       <use xlink:href="#DejaVuSans-30"/>
       <use xlink:href="#DejaVuSans-2e" transform="translate(63.623047 0)"/>
       <use xlink:href="#DejaVuSans-34" transform="translate(95.410156 0)"/>
      </g>
     </g>
    </g>
    <g id="xtick_4">
     <g id="line2d_7">
      <path d="M 248.172933 375.2515 
L 248.172933 35.7555 
" clip-path="url(#p39a60f0f60)" style="fill: none; stroke: #b0b0b0; stroke-opacity: 0.3; stroke-width: 0.8; stroke-linecap: square"/>
     </g>
     <g id="line2d_8">
      <g>
       <use xlink:href="#mf989611612" x="248.172933" y="375.2515" style="stroke: #000000; stroke-width: 0.8"/>
      </g>
     </g>
     <g id="text_4">
      <!-- 0.6 -->
      <g transform="translate(237.835902 392.129469) scale(0.13 -0.13)">
       <defs>
        <path id="DejaVuSans-36" d="M 2113 2584 
Q 1688 2584 1439 2293 
Q 1191 2003 1191 1497 
Q 1191 994 1439 701 
Q 1688 409 2113 409 
Q 2538 409 2786 701 
Q 3034 994 3034 1497 
Q 3034 2003 2786 2293 
Q 2538 2584 2113 2584 
z
M 3366 4563 
L 3366 3988 
Q 3128 4100 2886 4159 
Q 2644 4219 2406 4219 
Q 1781 4219 1451 3797 
Q 1122 3375 1075 2522 
Q 1259 2794 1537 2939 
Q 1816 3084 2150 3084 
Q 2853 3084 3261 2657 
Q 3669 2231 3669 1497 
Q 3669 778 3244 343 
Q 2819 -91 2113 -91 
Q 1303 -91 875 529 
Q 447 1150 447 2328 
Q 447 3434 972 4092 
Q 1497 4750 2381 4750 
Q 2619 4750 2861 4703 
Q 3103 4656 3366 4563 
z
" transform="scale(0.015625)"/>
       </defs>
       <use xlink:href="#DejaVuSans-30"/>
       <use xlink:href="#DejaVuSans-2e" transform="translate(63.623047 0)"/>
       <use xlink:href="#DejaVuSans-36" transform="translate(95.410156 0)"/>
      </g>
     </g>
    </g>
    <g id="xtick_5">
     <g id="line2d_9">
      <path d="M 311.63013 375.2515 
L 311.63013 35.7555 
" clip-path="url(#p39a60f0f60)" style="fill: none; stroke: #b0b0b0; stroke-opacity: 0.3; stroke-width: 0.8; stroke-linecap: square"/>
     </g>
     <g id="line2d_10">
      <g>
       <use xlink:href="#mf989611612" x="311.63013" y="375.2515" style="stroke: #000000; stroke-width: 0.8"/>
      </g>
     </g>
     <g id="text_5">
      <!-- 0.8 -->
      <g transform="translate(301.293098 392.129469) scale(0.13 -0.13)">
       <defs>
        <path id="DejaVuSans-38" d="M 2034 2216 
Q 1584 2216 1326 1975 
Q 1069 1734 1069 1313 
Q 1069 891 1326 650 
Q 1584 409 2034 409 
Q 2484 409 2743 651 
Q 3003 894 3003 1313 
Q 3003 1734 2745 1975 
Q 2488 2216 2034 2216 
z
M 1403 2484 
Q 997 2584 770 2862 
Q 544 3141 544 3541 
Q 544 4100 942 4425 
Q 1341 4750 2034 4750 
Q 2731 4750 3128 4425 
Q 3525 4100 3525 3541 
Q 3525 3141 3298 2862 
Q 3072 2584 2669 2484 
Q 3125 2378 3379 2068 
Q 3634 1759 3634 1313 
Q 3634 634 3220 271 
Q 2806 -91 2034 -91 
Q 1263 -91 848 271 
Q 434 634 434 1313 
Q 434 1759 690 2068 
Q 947 2378 1403 2484 
z
M 1172 3481 
Q 1172 3119 1398 2916 
Q 1625 2713 2034 2713 
Q 2441 2713 2670 2916 
Q 2900 3119 2900 3481 
Q 2900 3844 2670 4047 
Q 2441 4250 2034 4250 
Q 1625 4250 1398 4047 
Q 1172 3844 1172 3481 
z
" transform="scale(0.015625)"/>
       </defs>
       <use xlink:href="#DejaVuSans-30"/>
       <use xlink:href="#DejaVuSans-2e" transform="translate(63.623047 0)"/>
       <use xlink:href="#DejaVuSans-38" transform="translate(95.410156 0)"/>
      </g>
     </g>
    </g>
    <g id="xtick_6">
     <g id="line2d_11">
      <path d="M 375.087326 375.2515 
L 375.087326 35.7555 
" clip-path="url(#p39a60f0f60)" style="fill: none; stroke: #b0b0b0; stroke-opacity: 0.3; stroke-width: 0.8; stroke-linecap: square"/>
     </g>
     <g id="line2d_12">
      <g>
       <use xlink:href="#mf989611612" x="375.087326" y="375.2515" style="stroke: #000000; stroke-width: 0.8"/>
      </g>
     </g>
     <g id="text_6">
      <!-- 1.0 -->
      <g transform="translate(364.750295 392.129469) scale(0.13 -0.13)">
       <defs>
        <path id="DejaVuSans-31" d="M 794 531 
L 1825 531 
L 1825 4091 
L 703 3866 
L 703 4441 
L 1819 4666 
L 2450 4666 
L 2450 531 
L 3481 531 
L 3481 0 
L 794 0 
L 794 531 
z
" transform="scale(0.015625)"/>
       </defs>
       <use xlink:href="#DejaVuSans-31"/>
       <use xlink:href="#DejaVuSans-2e" transform="translate(63.623047 0)"/>
       <use xlink:href="#DejaVuSans-30" transform="translate(95.410156 0)"/>
      </g>
     </g>
    </g>
    <g id="text_7">
     <!-- False positive rate -->
     <g transform="translate(157.29332 408.711031) scale(0.13 -0.13)">
      <defs>
       <path id="DejaVuSans-46" d="M 628 4666 
L 3309 4666 
L 3309 4134 
L 1259 4134 
L 1259 2759 
L 3109 2759 
L 3109 2228 
L 1259 2228 
L 1259 0 
L 628 0 
L 628 4666 
z
" transform="scale(0.015625)"/>
       <path id="DejaVuSans-61" d="M 2194 1759 
Q 1497 1759 1228 1600 
Q 959 1441 959 1056 
Q 959 750 1161 570 
Q 1363 391 1709 391 
Q 2188 391 2477 730 
Q 2766 1069 2766 1631 
L 2766 1759 
L 2194 1759 
z
M 3341 1997 
L 3341 0 
L 2766 0 
L 2766 531 
Q 2569 213 2275 61 
Q 1981 -91 1556 -91 
Q 1019 -91 701 211 
Q 384 513 384 1019 
Q 384 1609 779 1909 
Q 1175 2209 1959 2209 
L 2766 2209 
L 2766 2266 
Q 2766 2663 2505 2880 
Q 2244 3097 1772 3097 
Q 1472 3097 1187 3025 
Q 903 2953 641 2809 
L 641 3341 
Q 956 3463 1253 3523 
Q 1550 3584 1831 3584 
Q 2591 3584 2966 3190 
Q 3341 2797 3341 1997 
z
" transform="scale(0.015625)"/>
       <path id="DejaVuSans-6c" d="M 603 4863 
L 1178 4863 
L 1178 0 
L 603 0 
L 603 4863 
z
" transform="scale(0.015625)"/>
       <path id="DejaVuSans-73" d="M 2834 3397 
L 2834 2853 
Q 2591 2978 2328 3040 
Q 2066 3103 1784 3103 
Q 1356 3103 1142 2972 
Q 928 2841 928 2578 
Q 928 2378 1081 2264 
Q 1234 2150 1697 2047 
L 1894 2003 
Q 2506 1872 2764 1633 
Q 3022 1394 3022 966 
Q 3022 478 2636 193 
Q 2250 -91 1575 -91 
Q 1294 -91 989 -36 
Q 684 19 347 128 
L 347 722 
Q 666 556 975 473 
Q 1284 391 1588 391 
Q 1994 391 2212 530 
Q 2431 669 2431 922 
Q 2431 1156 2273 1281 
Q 2116 1406 1581 1522 
L 1381 1569 
Q 847 1681 609 1914 
Q 372 2147 372 2553 
Q 372 3047 722 3315 
Q 1072 3584 1716 3584 
Q 2034 3584 2315 3537 
Q 2597 3491 2834 3397 
z
" transform="scale(0.015625)"/>
       <path id="DejaVuSans-65" d="M 3597 1894 
L 3597 1613 
L 953 1613 
Q 991 1019 1311 708 
Q 1631 397 2203 397 
Q 2534 397 2845 478 
Q 3156 559 3463 722 
L 3463 178 
Q 3153 47 2828 -22 
Q 2503 -91 2169 -91 
Q 1331 -91 842 396 
Q 353 884 353 1716 
Q 353 2575 817 3079 
Q 1281 3584 2069 3584 
Q 2775 3584 3186 3129 
Q 3597 2675 3597 1894 
z
M 3022 2063 
Q 3016 2534 2758 2815 
Q 2500 3097 2075 3097 
Q 1594 3097 1305 2825 
Q 1016 2553 972 2059 
L 3022 2063 
z
" transform="scale(0.015625)"/>
       <path id="DejaVuSans-20" transform="scale(0.015625)"/>
       <path id="DejaVuSans-70" d="M 1159 525 
L 1159 -1331 
L 581 -1331 
L 581 3500 
L 1159 3500 
L 1159 2969 
Q 1341 3281 1617 3432 
Q 1894 3584 2278 3584 
Q 2916 3584 3314 3078 
Q 3713 2572 3713 1747 
Q 3713 922 3314 415 
Q 2916 -91 2278 -91 
Q 1894 -91 1617 61 
Q 1341 213 1159 525 
z
M 3116 1747 
Q 3116 2381 2855 2742 
Q 2594 3103 2138 3103 
Q 1681 3103 1420 2742 
Q 1159 2381 1159 1747 
Q 1159 1113 1420 752 
Q 1681 391 2138 391 
Q 2594 391 2855 752 
Q 3116 1113 3116 1747 
z
" transform="scale(0.015625)"/>
       <path id="DejaVuSans-6f" d="M 1959 3097 
Q 1497 3097 1228 2736 
Q 959 2375 959 1747 
Q 959 1119 1226 758 
Q 1494 397 1959 397 
Q 2419 397 2687 759 
Q 2956 1122 2956 1747 
Q 2956 2369 2687 2733 
Q 2419 3097 1959 3097 
z
M 1959 3584 
Q 2709 3584 3137 3096 
Q 3566 2609 3566 1747 
Q 3566 888 3137 398 
Q 2709 -91 1959 -91 
Q 1206 -91 779 398 
Q 353 888 353 1747 
Q 353 2609 779 3096 
Q 1206 3584 1959 3584 
z
" transform="scale(0.015625)"/>
       <path id="DejaVuSans-69" d="M 603 3500 
L 1178 3500 
L 1178 0 
L 603 0 
L 603 3500 
z
M 603 4863 
L 1178 4863 
L 1178 4134 
L 603 4134 
L 603 4863 
z
" transform="scale(0.015625)"/>
       <path id="DejaVuSans-74" d="M 1172 4494 
L 1172 3500 
L 2356 3500 
L 2356 3053 
L 1172 3053 
L 1172 1153 
Q 1172 725 1289 603 
Q 1406 481 1766 481 
L 2356 481 
L 2356 0 
L 1766 0 
Q 1100 0 847 248 
Q 594 497 594 1153 
L 594 3053 
L 172 3053 
L 172 3500 
L 594 3500 
L 594 4494 
L 1172 4494 
z
" transform="scale(0.015625)"/>
       <path id="DejaVuSans-76" d="M 191 3500 
L 800 3500 
L 1894 563 
L 2988 3500 
L 3597 3500 
L 2284 0 
L 1503 0 
L 191 3500 
z
" transform="scale(0.015625)"/>
       <path id="DejaVuSans-72" d="M 2631 2963 
Q 2534 3019 2420 3045 
Q 2306 3072 2169 3072 
Q 1681 3072 1420 2755 
Q 1159 2438 1159 1844 
L 1159 0 
L 581 0 
L 581 3500 
L 1159 3500 
L 1159 2956 
Q 1341 3275 1631 3429 
Q 1922 3584 2338 3584 
Q 2397 3584 2469 3576 
Q 2541 3569 2628 3553 
L 2631 2963 
z
" transform="scale(0.015625)"/>
      </defs>
      <use xlink:href="#DejaVuSans-46"/>
      <use xlink:href="#DejaVuSans-61" transform="translate(48.394531 0)"/>
      <use xlink:href="#DejaVuSans-6c" transform="translate(109.673828 0)"/>
      <use xlink:href="#DejaVuSans-73" transform="translate(137.457031 0)"/>
      <use xlink:href="#DejaVuSans-65" transform="translate(189.556641 0)"/>
      <use xlink:href="#DejaVuSans-20" transform="translate(251.080078 0)"/>
      <use xlink:href="#DejaVuSans-70" transform="translate(282.867188 0)"/>
      <use xlink:href="#DejaVuSans-6f" transform="translate(346.34375 0)"/>
      <use xlink:href="#DejaVuSans-73" transform="translate(407.525391 0)"/>
      <use xlink:href="#DejaVuSans-69" transform="translate(459.625 0)"/>
      <use xlink:href="#DejaVuSans-74" transform="translate(487.408203 0)"/>
      <use xlink:href="#DejaVuSans-69" transform="translate(526.617188 0)"/>
      <use xlink:href="#DejaVuSans-76" transform="translate(554.400391 0)"/>
      <use xlink:href="#DejaVuSans-65" transform="translate(613.580078 0)"/>
      <use xlink:href="#DejaVuSans-20" transform="translate(675.103516 0)"/>
      <use xlink:href="#DejaVuSans-72" transform="translate(706.890625 0)"/>
      <use xlink:href="#DejaVuSans-61" transform="translate(748.003906 0)"/>
      <use xlink:href="#DejaVuSans-74" transform="translate(809.283203 0)"/>
      <use xlink:href="#DejaVuSans-65" transform="translate(848.492188 0)"/>
     </g>
    </g>
   </g>
   <g id="matplotlib.axis_2">
    <g id="ytick_1">
     <g id="line2d_13">
      <path d="M 51.455625 368.90578 
L 381.433046 368.90578 
" clip-path="url(#p39a60f0f60)" style="fill: none; stroke: #b0b0b0; stroke-opacity: 0.3; stroke-width: 0.8; stroke-linecap: square"/>
     </g>
     <g id="line2d_14">
      <defs>
       <path id="m669b3d1f57" d="M 0 0 
L -3.5 0 
" style="stroke: #000000; stroke-width: 0.8"/>
      </defs>
      <g>
       <use xlink:href="#m669b3d1f57" x="51.455625" y="368.90578" style="stroke: #000000; stroke-width: 0.8"/>
      </g>
     </g>
     <g id="text_8">
      <!-- 0.0 -->
      <g transform="translate(23.781563 373.844765) scale(0.13 -0.13)">
       <use xlink:href="#DejaVuSans-30"/>
       <use xlink:href="#DejaVuSans-2e" transform="translate(63.623047 0)"/>
       <use xlink:href="#DejaVuSans-30" transform="translate(95.410156 0)"/>
      </g>
     </g>
    </g>
    <g id="ytick_2">
     <g id="line2d_15">
      <path d="M 51.455625 305.448584 
L 381.433046 305.448584 
" clip-path="url(#p39a60f0f60)" style="fill: none; stroke: #b0b0b0; stroke-opacity: 0.3; stroke-width: 0.8; stroke-linecap: square"/>
     </g>
     <g id="line2d_16">
      <g>
       <use xlink:href="#m669b3d1f57" x="51.455625" y="305.448584" style="stroke: #000000; stroke-width: 0.8"/>
      </g>
     </g>
     <g id="text_9">
      <!-- 0.2 -->
      <g transform="translate(23.781563 310.387568) scale(0.13 -0.13)">
       <use xlink:href="#DejaVuSans-30"/>
       <use xlink:href="#DejaVuSans-2e" transform="translate(63.623047 0)"/>
       <use xlink:href="#DejaVuSans-32" transform="translate(95.410156 0)"/>
      </g>
     </g>
    </g>
    <g id="ytick_3">
     <g id="line2d_17">
      <path d="M 51.455625 241.991388 
L 381.433046 241.991388 
" clip-path="url(#p39a60f0f60)" style="fill: none; stroke: #b0b0b0; stroke-opacity: 0.3; stroke-width: 0.8; stroke-linecap: square"/>
     </g>
     <g id="line2d_18">
      <g>
       <use xlink:href="#m669b3d1f57" x="51.455625" y="241.991388" style="stroke: #000000; stroke-width: 0.8"/>
      </g>
     </g>
     <g id="text_10">
      <!-- 0.4 -->
      <g transform="translate(23.781563 246.930372) scale(0.13 -0.13)">
       <use xlink:href="#DejaVuSans-30"/>
       <use xlink:href="#DejaVuSans-2e" transform="translate(63.623047 0)"/>
       <use xlink:href="#DejaVuSans-34" transform="translate(95.410156 0)"/>
      </g>
     </g>
    </g>
    <g id="ytick_4">
     <g id="line2d_19">
      <path d="M 51.455625 178.534192 
L 381.433046 178.534192 
" clip-path="url(#p39a60f0f60)" style="fill: none; stroke: #b0b0b0; stroke-opacity: 0.3; stroke-width: 0.8; stroke-linecap: square"/>
     </g>
     <g id="line2d_20">
      <g>
       <use xlink:href="#m669b3d1f57" x="51.455625" y="178.534192" style="stroke: #000000; stroke-width: 0.8"/>
      </g>
     </g>
     <g id="text_11">
      <!-- 0.6 -->
      <g transform="translate(23.781563 183.473176) scale(0.13 -0.13)">
       <use xlink:href="#DejaVuSans-30"/>
       <use xlink:href="#DejaVuSans-2e" transform="translate(63.623047 0)"/>
       <use xlink:href="#DejaVuSans-36" transform="translate(95.410156 0)"/>
      </g>
     </g>
    </g>
    <g id="ytick_5">
     <g id="line2d_21">
      <path d="M 51.455625 115.076995 
L 381.433046 115.076995 
" clip-path="url(#p39a60f0f60)" style="fill: none; stroke: #b0b0b0; stroke-opacity: 0.3; stroke-width: 0.8; stroke-linecap: square"/>
     </g>
     <g id="line2d_22">
      <g>
       <use xlink:href="#m669b3d1f57" x="51.455625" y="115.076995" style="stroke: #000000; stroke-width: 0.8"/>
      </g>
     </g>
     <g id="text_12">
      <!-- 0.8 -->
      <g transform="translate(23.781563 120.01598) scale(0.13 -0.13)">
       <use xlink:href="#DejaVuSans-30"/>
       <use xlink:href="#DejaVuSans-2e" transform="translate(63.623047 0)"/>
       <use xlink:href="#DejaVuSans-38" transform="translate(95.410156 0)"/>
      </g>
     </g>
    </g>
    <g id="ytick_6">
     <g id="line2d_23">
      <path d="M 51.455625 51.619799 
L 381.433046 51.619799 
" clip-path="url(#p39a60f0f60)" style="fill: none; stroke: #b0b0b0; stroke-opacity: 0.3; stroke-width: 0.8; stroke-linecap: square"/>
     </g>
     <g id="line2d_24">
      <g>
       <use xlink:href="#m669b3d1f57" x="51.455625" y="51.619799" style="stroke: #000000; stroke-width: 0.8"/>
      </g>
     </g>
     <g id="text_13">
      <!-- 1.0 -->
      <g transform="translate(23.781563 56.558783) scale(0.13 -0.13)">
       <use xlink:href="#DejaVuSans-31"/>
       <use xlink:href="#DejaVuSans-2e" transform="translate(63.623047 0)"/>
       <use xlink:href="#DejaVuSans-30" transform="translate(95.410156 0)"/>
      </g>
     </g>
    </g>
    <g id="text_14">
     <!-- True positive rate -->
     <g transform="translate(17.077969 262.136781) rotate(-90) scale(0.13 -0.13)">
      <defs>
       <path id="DejaVuSans-54" d="M -19 4666 
L 3928 4666 
L 3928 4134 
L 2272 4134 
L 2272 0 
L 1638 0 
L 1638 4134 
L -19 4134 
L -19 4666 
z
" transform="scale(0.015625)"/>
       <path id="DejaVuSans-75" d="M 544 1381 
L 544 3500 
L 1119 3500 
L 1119 1403 
Q 1119 906 1312 657 
Q 1506 409 1894 409 
Q 2359 409 2629 706 
Q 2900 1003 2900 1516 
L 2900 3500 
L 3475 3500 
L 3475 0 
L 2900 0 
L 2900 538 
Q 2691 219 2414 64 
Q 2138 -91 1772 -91 
Q 1169 -91 856 284 
Q 544 659 544 1381 
z
M 1991 3584 
L 1991 3584 
z
" transform="scale(0.015625)"/>
      </defs>
      <use xlink:href="#DejaVuSans-54"/>
      <use xlink:href="#DejaVuSans-72" transform="translate(46.333984 0)"/>
      <use xlink:href="#DejaVuSans-75" transform="translate(87.447266 0)"/>
      <use xlink:href="#DejaVuSans-65" transform="translate(150.826172 0)"/>
      <use xlink:href="#DejaVuSans-20" transform="translate(212.349609 0)"/>
      <use xlink:href="#DejaVuSans-70" transform="translate(244.136719 0)"/>
      <use xlink:href="#DejaVuSans-6f" transform="translate(307.613281 0)"/>
      <use xlink:href="#DejaVuSans-73" transform="translate(368.794922 0)"/>
      <use xlink:href="#DejaVuSans-69" transform="translate(420.894531 0)"/>
      <use xlink:href="#DejaVuSans-74" transform="translate(448.677734 0)"/>
      <use xlink:href="#DejaVuSans-69" transform="translate(487.886719 0)"/>
      <use xlink:href="#DejaVuSans-76" transform="translate(515.669922 0)"/>
      <use xlink:href="#DejaVuSans-65" transform="translate(574.849609 0)"/>
      <use xlink:href="#DejaVuSans-20" transform="translate(636.373047 0)"/>
      <use xlink:href="#DejaVuSans-72" transform="translate(668.160156 0)"/>
      <use xlink:href="#DejaVuSans-61" transform="translate(709.273438 0)"/>
      <use xlink:href="#DejaVuSans-74" transform="translate(770.552734 0)"/>
      <use xlink:href="#DejaVuSans-65" transform="translate(809.761719 0)"/>
     </g>
    </g>
   </g>
   <g id="line2d_25">
    <path d="M 57.801345 64.840048 
L 81.717373 64.840048 
L 83.311775 51.619799 
L 375.087326 51.619799 
L 375.087326 51.619799 
" clip-path="url(#p39a60f0f60)" style="fill: none; stroke: #2980b9; stroke-opacity: 0.1; stroke-width: 0.8; stroke-linecap: square"/>
   </g>
   <g id="line2d_26">
    <path d="M 57.801345 138.152339 
L 68.962158 138.152339 
L 70.55656 51.619799 
L 375.087326 51.619799 
L 375.087326 51.619799 
" clip-path="url(#p39a60f0f60)" style="fill: none; stroke: #2980b9; stroke-opacity: 0.1; stroke-width: 0.8; stroke-linecap: square"/>
   </g>
   <g id="line2d_27">
    <path d="M 57.801345 122.127795 
L 70.55656 122.127795 
L 72.150962 63.371132 
L 84.906177 63.371132 
L 86.500579 51.619799 
L 375.087326 51.619799 
L 375.087326 51.619799 
" clip-path="url(#p39a60f0f60)" style="fill: none; stroke: #2980b9; stroke-opacity: 0.1; stroke-width: 0.8; stroke-linecap: square"/>
   </g>
   <g id="line2d_28">
    <path d="M 57.801345 63.823106 
L 110.416608 63.823106 
L 112.01101 51.619799 
L 375.087326 51.619799 
L 375.087326 51.619799 
" clip-path="url(#p39a60f0f60)" style="fill: none; stroke: #2980b9; stroke-opacity: 0.1; stroke-width: 0.8; stroke-linecap: square"/>
   </g>
   <g id="line2d_29">
    <path d="M 57.801345 91.280547 
L 68.962158 91.280547 
L 70.55656 78.060298 
L 92.878187 78.060298 
L 94.472589 64.840048 
L 129.549431 64.840048 
L 131.143833 51.619799 
L 375.087326 51.619799 
L 375.087326 51.619799 
" clip-path="url(#p39a60f0f60)" style="fill: none; stroke: #2980b9; stroke-opacity: 0.1; stroke-width: 0.8; stroke-linecap: square"/>
   </g>
   <g id="line2d_30">
    <path d="M 57.801345 117.721045 
L 68.962158 117.721045 
L 70.55656 104.500796 
L 81.717373 104.500796 
L 83.311775 64.840048 
L 92.878187 64.840048 
L 94.472589 51.619799 
L 375.087326 51.619799 
L 375.087326 51.619799 
" clip-path="url(#p39a60f0f60)" style="fill: none; stroke: #2980b9; stroke-opacity: 0.1; stroke-width: 0.8; stroke-linecap: square"/>
   </g>
   <g id="line2d_31">
    <path d="M 57.801345 100.433027 
L 70.55656 100.433027 
L 72.150962 88.22972 
L 83.311775 88.22972 
L 84.906177 51.619799 
L 375.087326 51.619799 
L 375.087326 51.619799 
" clip-path="url(#p39a60f0f60)" style="fill: none; stroke: #2980b9; stroke-opacity: 0.1; stroke-width: 0.8; stroke-linecap: square"/>
   </g>
   <g id="line2d_32">
    <path d="M 57.801345 51.619799 
L 375.087326 51.619799 
L 375.087326 51.619799 
" clip-path="url(#p39a60f0f60)" style="fill: none; stroke: #2980b9; stroke-opacity: 0.1; stroke-width: 0.8; stroke-linecap: square"/>
   </g>
   <g id="line2d_33">
    <path d="M 57.801345 63.823106 
L 70.55656 63.823106 
L 72.150962 51.619799 
L 375.087326 51.619799 
L 375.087326 51.619799 
" clip-path="url(#p39a60f0f60)" style="fill: none; stroke: #2980b9; stroke-opacity: 0.1; stroke-width: 0.8; stroke-linecap: square"/>
   </g>
   <g id="line2d_34">
    <path d="M 57.801345 65.414842 
L 127.955029 65.414842 
L 129.549431 51.619799 
L 375.087326 51.619799 
L 375.087326 51.619799 
" clip-path="url(#p39a60f0f60)" style="fill: none; stroke: #2980b9; stroke-opacity: 0.1; stroke-width: 0.8; stroke-linecap: square"/>
   </g>
   <g id="line2d_35">
    <path d="M 57.801345 145.63046 
L 70.55656 145.63046 
L 72.150962 122.127795 
L 84.906177 122.127795 
L 86.500579 75.122464 
L 97.661393 75.122464 
L 99.255794 51.619799 
L 375.087326 51.619799 
L 375.087326 51.619799 
" clip-path="url(#p39a60f0f60)" style="fill: none; stroke: #2980b9; stroke-opacity: 0.1; stroke-width: 0.8; stroke-linecap: square"/>
   </g>
   <g id="line2d_36">
    <path d="M 57.801345 118.416848 
L 67.367756 118.416848 
L 68.962158 68.319061 
L 118.388617 68.319061 
L 119.983019 51.619799 
L 375.087326 51.619799 
L 375.087326 51.619799 
" clip-path="url(#p39a60f0f60)" style="fill: none; stroke: #2980b9; stroke-opacity: 0.1; stroke-width: 0.8; stroke-linecap: square"/>
   </g>
   <g id="line2d_37">
    <path d="M 57.801345 104.500796 
L 72.150962 104.500796 
L 73.745364 72.772198 
L 167.815077 72.772198 
L 169.409479 62.195998 
L 279.423211 62.195998 
L 281.017613 51.619799 
L 375.087326 51.619799 
L 375.087326 51.619799 
" clip-path="url(#p39a60f0f60)" style="fill: none; stroke: #2980b9; stroke-opacity: 0.1; stroke-width: 0.8; stroke-linecap: square"/>
   </g>
   <g id="line2d_38">
    <path d="M 57.801345 62.195998 
L 72.150962 62.195998 
L 73.745364 51.619799 
L 375.087326 51.619799 
L 375.087326 51.619799 
" clip-path="url(#p39a60f0f60)" style="fill: none; stroke: #2980b9; stroke-opacity: 0.1; stroke-width: 0.8; stroke-linecap: square"/>
   </g>
   <g id="line2d_39">
    <path d="M 57.801345 101.717586 
L 67.367756 101.717586 
L 68.962158 68.319061 
L 97.661393 68.319061 
L 99.255794 51.619799 
L 375.087326 51.619799 
L 375.087326 51.619799 
" clip-path="url(#p39a60f0f60)" style="fill: none; stroke: #2980b9; stroke-opacity: 0.1; stroke-width: 0.8; stroke-linecap: square"/>
   </g>
   <g id="line2d_40">
    <path d="M 57.801345 63.371132 
L 70.55656 63.371132 
L 72.150962 51.619799 
L 375.087326 51.619799 
L 375.087326 51.619799 
" clip-path="url(#p39a60f0f60)" style="fill: none; stroke: #2980b9; stroke-opacity: 0.1; stroke-width: 0.8; stroke-linecap: square"/>
   </g>
   <g id="line2d_41">
    <path d="M 57.801345 67.484098 
L 88.094981 67.484098 
L 89.689383 51.619799 
L 375.087326 51.619799 
L 375.087326 51.619799 
" clip-path="url(#p39a60f0f60)" style="fill: none; stroke: #2980b9; stroke-opacity: 0.1; stroke-width: 0.8; stroke-linecap: square"/>
   </g>
   <g id="line2d_42">
    <path d="M 57.801345 195.8407 
L 68.962158 195.8407 
L 70.55656 80.463979 
L 91.283785 80.463979 
L 92.878187 66.041889 
L 113.605412 66.041889 
L 115.199814 51.619799 
L 375.087326 51.619799 
L 375.087326 51.619799 
" clip-path="url(#p39a60f0f60)" style="fill: none; stroke: #2980b9; stroke-opacity: 0.1; stroke-width: 0.8; stroke-linecap: square"/>
   </g>
   <g id="line2d_43">
    <path d="M 57.801345 88.22972 
L 70.55656 88.22972 
L 72.150962 76.026413 
L 135.927039 76.026413 
L 137.52144 63.823106 
L 175.787086 63.823106 
L 177.381488 51.619799 
L 375.087326 51.619799 
L 375.087326 51.619799 
" clip-path="url(#p39a60f0f60)" style="fill: none; stroke: #2980b9; stroke-opacity: 0.1; stroke-width: 0.8; stroke-linecap: square"/>
   </g>
   <g id="line2d_44">
    <path d="M 57.801345 72.772198 
L 88.094981 72.772198 
L 89.689383 62.195998 
L 119.983019 62.195998 
L 121.577421 51.619799 
L 375.087326 51.619799 
L 375.087326 51.619799 
" clip-path="url(#p39a60f0f60)" style="fill: none; stroke: #2980b9; stroke-opacity: 0.1; stroke-width: 0.8; stroke-linecap: square"/>
   </g>
   <g id="line2d_45">
    <path d="M 57.801345 63.823106 
L 70.55656 63.823106 
L 72.150962 51.619799 
L 375.087326 51.619799 
L 375.087326 51.619799 
" clip-path="url(#p39a60f0f60)" style="fill: none; stroke: #2980b9; stroke-opacity: 0.1; stroke-width: 0.8; stroke-linecap: square"/>
   </g>
   <g id="line2d_46">
    <path d="M 57.801345 94.886069 
L 68.962158 94.886069 
L 70.55656 66.041889 
L 80.122971 66.041889 
L 81.717373 51.619799 
L 375.087326 51.619799 
L 375.087326 51.619799 
" clip-path="url(#p39a60f0f60)" style="fill: none; stroke: #2980b9; stroke-opacity: 0.1; stroke-width: 0.8; stroke-linecap: square"/>
   </g>
   <g id="line2d_47">
    <path d="M 57.801345 86.873797 
L 70.55656 86.873797 
L 72.150962 75.122464 
L 84.906177 75.122464 
L 86.500579 63.371132 
L 112.01101 63.371132 
L 113.605412 51.619799 
L 375.087326 51.619799 
L 375.087326 51.619799 
" clip-path="url(#p39a60f0f60)" style="fill: none; stroke: #2980b9; stroke-opacity: 0.1; stroke-width: 0.8; stroke-linecap: square"/>
   </g>
   <g id="line2d_48">
    <path d="M 57.801345 102.385556 
L 68.962158 102.385556 
L 70.55656 51.619799 
L 375.087326 51.619799 
L 375.087326 51.619799 
" clip-path="url(#p39a60f0f60)" style="fill: none; stroke: #2980b9; stroke-opacity: 0.1; stroke-width: 0.8; stroke-linecap: square"/>
   </g>
   <g id="line2d_49">
    <path d="M 57.801345 51.619799 
L 375.087326 51.619799 
L 375.087326 51.619799 
" clip-path="url(#p39a60f0f60)" style="fill: none; stroke: #2980b9; stroke-opacity: 0.1; stroke-width: 0.8; stroke-linecap: square"/>
   </g>
   <g id="line2d_50">
    <path d="M 57.801345 91.959341 
L 67.367756 91.959341 
L 68.962158 88.619488 
L 70.55656 76.3011 
L 72.150962 70.118092 
L 73.745364 68.4259 
L 80.122971 68.4259 
L 81.717373 67.849016 
L 83.311775 65.733776 
L 84.906177 64.269379 
L 86.500579 61.449059 
L 88.094981 61.449059 
L 89.689383 60.39144 
L 91.283785 60.39144 
L 92.878187 59.814556 
L 94.472589 58.756936 
L 97.661393 58.756936 
L 99.255794 57.148859 
L 110.416608 57.148859 
L 115.199814 55.61379 
L 118.388617 55.61379 
L 119.983019 54.945819 
L 121.577421 54.522771 
L 127.955029 54.522771 
L 131.143833 53.44216 
L 135.927039 53.44216 
L 137.52144 52.954027 
L 167.815077 52.954027 
L 169.409479 52.530979 
L 175.787086 52.530979 
L 177.381488 52.042847 
L 279.423211 52.042847 
L 281.017613 51.619799 
L 375.087326 51.619799 
L 375.087326 51.619799 
" clip-path="url(#p39a60f0f60)" style="fill: none; stroke: #2980b9; stroke-width: 2.5; stroke-linecap: square"/>
   </g>
   <g id="line2d_51">
    <path d="M 57.801345 368.90578 
L 375.087326 51.619799 
" clip-path="url(#p39a60f0f60)" style="fill: none; stroke-dasharray: 5.55,2.4; stroke-dashoffset: 0; stroke: #808080; stroke-width: 1.5"/>
   </g>
   <g id="patch_3">
    <path d="M 51.455625 375.2515 
L 51.455625 35.7555 
" style="fill: none; stroke: #000000; stroke-width: 0.8; stroke-linejoin: miter; stroke-linecap: square"/>
   </g>
   <g id="patch_4">
    <path d="M 51.455625 375.2515 
L 381.433046 375.2515 
" style="fill: none; stroke: #000000; stroke-width: 0.8; stroke-linejoin: miter; stroke-linecap: square"/>
   </g>
   <g id="text_15">
    <!-- ROC curve - graphcodebert -->
    <g transform="translate(134.310898 16.318125) scale(0.12 -0.12)">
     <defs>
      <path id="DejaVuSans-52" d="M 2841 2188 
Q 3044 2119 3236 1894 
Q 3428 1669 3622 1275 
L 4263 0 
L 3584 0 
L 2988 1197 
Q 2756 1666 2539 1819 
Q 2322 1972 1947 1972 
L 1259 1972 
L 1259 0 
L 628 0 
L 628 4666 
L 2053 4666 
Q 2853 4666 3247 4331 
Q 3641 3997 3641 3322 
Q 3641 2881 3436 2590 
Q 3231 2300 2841 2188 
z
M 1259 4147 
L 1259 2491 
L 2053 2491 
Q 2509 2491 2742 2702 
Q 2975 2913 2975 3322 
Q 2975 3731 2742 3939 
Q 2509 4147 2053 4147 
L 1259 4147 
z
" transform="scale(0.015625)"/>
      <path id="DejaVuSans-4f" d="M 2522 4238 
Q 1834 4238 1429 3725 
Q 1025 3213 1025 2328 
Q 1025 1447 1429 934 
Q 1834 422 2522 422 
Q 3209 422 3611 934 
Q 4013 1447 4013 2328 
Q 4013 3213 3611 3725 
Q 3209 4238 2522 4238 
z
M 2522 4750 
Q 3503 4750 4090 4092 
Q 4678 3434 4678 2328 
Q 4678 1225 4090 567 
Q 3503 -91 2522 -91 
Q 1538 -91 948 565 
Q 359 1222 359 2328 
Q 359 3434 948 4092 
Q 1538 4750 2522 4750 
z
" transform="scale(0.015625)"/>
      <path id="DejaVuSans-43" d="M 4122 4306 
L 4122 3641 
Q 3803 3938 3442 4084 
Q 3081 4231 2675 4231 
Q 1875 4231 1450 3742 
Q 1025 3253 1025 2328 
Q 1025 1406 1450 917 
Q 1875 428 2675 428 
Q 3081 428 3442 575 
Q 3803 722 4122 1019 
L 4122 359 
Q 3791 134 3420 21 
Q 3050 -91 2638 -91 
Q 1578 -91 968 557 
Q 359 1206 359 2328 
Q 359 3453 968 4101 
Q 1578 4750 2638 4750 
Q 3056 4750 3426 4639 
Q 3797 4528 4122 4306 
z
" transform="scale(0.015625)"/>
      <path id="DejaVuSans-63" d="M 3122 3366 
L 3122 2828 
Q 2878 2963 2633 3030 
Q 2388 3097 2138 3097 
Q 1578 3097 1268 2742 
Q 959 2388 959 1747 
Q 959 1106 1268 751 
Q 1578 397 2138 397 
Q 2388 397 2633 464 
Q 2878 531 3122 666 
L 3122 134 
Q 2881 22 2623 -34 
Q 2366 -91 2075 -91 
Q 1284 -91 818 406 
Q 353 903 353 1747 
Q 353 2603 823 3093 
Q 1294 3584 2113 3584 
Q 2378 3584 2631 3529 
Q 2884 3475 3122 3366 
z
" transform="scale(0.015625)"/>
      <path id="DejaVuSans-2d" d="M 313 2009 
L 1997 2009 
L 1997 1497 
L 313 1497 
L 313 2009 
z
" transform="scale(0.015625)"/>
      <path id="DejaVuSans-67" d="M 2906 1791 
Q 2906 2416 2648 2759 
Q 2391 3103 1925 3103 
Q 1463 3103 1205 2759 
Q 947 2416 947 1791 
Q 947 1169 1205 825 
Q 1463 481 1925 481 
Q 2391 481 2648 825 
Q 2906 1169 2906 1791 
z
M 3481 434 
Q 3481 -459 3084 -895 
Q 2688 -1331 1869 -1331 
Q 1566 -1331 1297 -1286 
Q 1028 -1241 775 -1147 
L 775 -588 
Q 1028 -725 1275 -790 
Q 1522 -856 1778 -856 
Q 2344 -856 2625 -561 
Q 2906 -266 2906 331 
L 2906 616 
Q 2728 306 2450 153 
Q 2172 0 1784 0 
Q 1141 0 747 490 
Q 353 981 353 1791 
Q 353 2603 747 3093 
Q 1141 3584 1784 3584 
Q 2172 3584 2450 3431 
Q 2728 3278 2906 2969 
L 2906 3500 
L 3481 3500 
L 3481 434 
z
" transform="scale(0.015625)"/>
      <path id="DejaVuSans-68" d="M 3513 2113 
L 3513 0 
L 2938 0 
L 2938 2094 
Q 2938 2591 2744 2837 
Q 2550 3084 2163 3084 
Q 1697 3084 1428 2787 
Q 1159 2491 1159 1978 
L 1159 0 
L 581 0 
L 581 4863 
L 1159 4863 
L 1159 2956 
Q 1366 3272 1645 3428 
Q 1925 3584 2291 3584 
Q 2894 3584 3203 3211 
Q 3513 2838 3513 2113 
z
" transform="scale(0.015625)"/>
      <path id="DejaVuSans-64" d="M 2906 2969 
L 2906 4863 
L 3481 4863 
L 3481 0 
L 2906 0 
L 2906 525 
Q 2725 213 2448 61 
Q 2172 -91 1784 -91 
Q 1150 -91 751 415 
Q 353 922 353 1747 
Q 353 2572 751 3078 
Q 1150 3584 1784 3584 
Q 2172 3584 2448 3432 
Q 2725 3281 2906 2969 
z
M 947 1747 
Q 947 1113 1208 752 
Q 1469 391 1925 391 
Q 2381 391 2643 752 
Q 2906 1113 2906 1747 
Q 2906 2381 2643 2742 
Q 2381 3103 1925 3103 
Q 1469 3103 1208 2742 
Q 947 2381 947 1747 
z
" transform="scale(0.015625)"/>
      <path id="DejaVuSans-62" d="M 3116 1747 
Q 3116 2381 2855 2742 
Q 2594 3103 2138 3103 
Q 1681 3103 1420 2742 
Q 1159 2381 1159 1747 
Q 1159 1113 1420 752 
Q 1681 391 2138 391 
Q 2594 391 2855 752 
Q 3116 1113 3116 1747 
z
M 1159 2969 
Q 1341 3281 1617 3432 
Q 1894 3584 2278 3584 
Q 2916 3584 3314 3078 
Q 3713 2572 3713 1747 
Q 3713 922 3314 415 
Q 2916 -91 2278 -91 
Q 1894 -91 1617 61 
Q 1341 213 1159 525 
L 1159 0 
L 581 0 
L 581 4863 
L 1159 4863 
L 1159 2969 
z
" transform="scale(0.015625)"/>
     </defs>
     <use xlink:href="#DejaVuSans-52"/>
     <use xlink:href="#DejaVuSans-4f" transform="translate(69.482422 0)"/>
     <use xlink:href="#DejaVuSans-43" transform="translate(148.193359 0)"/>
     <use xlink:href="#DejaVuSans-20" transform="translate(218.017578 0)"/>
     <use xlink:href="#DejaVuSans-63" transform="translate(249.804688 0)"/>
     <use xlink:href="#DejaVuSans-75" transform="translate(304.785156 0)"/>
     <use xlink:href="#DejaVuSans-72" transform="translate(368.164062 0)"/>
     <use xlink:href="#DejaVuSans-76" transform="translate(409.277344 0)"/>
     <use xlink:href="#DejaVuSans-65" transform="translate(468.457031 0)"/>
     <use xlink:href="#DejaVuSans-20" transform="translate(529.980469 0)"/>
     <use xlink:href="#DejaVuSans-2d" transform="translate(561.767578 0)"/>
     <use xlink:href="#DejaVuSans-20" transform="translate(597.851562 0)"/>
     <use xlink:href="#DejaVuSans-67" transform="translate(629.638672 0)"/>
     <use xlink:href="#DejaVuSans-72" transform="translate(693.115234 0)"/>
     <use xlink:href="#DejaVuSans-61" transform="translate(734.228516 0)"/>
     <use xlink:href="#DejaVuSans-70" transform="translate(795.507812 0)"/>
     <use xlink:href="#DejaVuSans-68" transform="translate(858.984375 0)"/>
     <use xlink:href="#DejaVuSans-63" transform="translate(922.363281 0)"/>
     <use xlink:href="#DejaVuSans-6f" transform="translate(977.34375 0)"/>
     <use xlink:href="#DejaVuSans-64" transform="translate(1038.525391 0)"/>
     <use xlink:href="#DejaVuSans-65" transform="translate(1102.001953 0)"/>
     <use xlink:href="#DejaVuSans-62" transform="translate(1163.525391 0)"/>
     <use xlink:href="#DejaVuSans-65" transform="translate(1227.001953 0)"/>
     <use xlink:href="#DejaVuSans-72" transform="translate(1288.525391 0)"/>
     <use xlink:href="#DejaVuSans-74" transform="translate(1329.638672 0)"/>
    </g>
    <!-- Mean AUC = 0.876 (pooled across 25 folds) -->
    <g transform="translate(85.606835 29.7555) scale(0.12 -0.12)">
     <defs>
      <path id="DejaVuSans-4d" d="M 628 4666 
L 1569 4666 
L 2759 1491 
L 3956 4666 
L 4897 4666 
L 4897 0 
L 4281 0 
L 4281 4097 
L 3078 897 
L 2444 897 
L 1241 4097 
L 1241 0 
L 628 0 
L 628 4666 
z
" transform="scale(0.015625)"/>
      <path id="DejaVuSans-6e" d="M 3513 2113 
L 3513 0 
L 2938 0 
L 2938 2094 
Q 2938 2591 2744 2837 
Q 2550 3084 2163 3084 
Q 1697 3084 1428 2787 
Q 1159 2491 1159 1978 
L 1159 0 
L 581 0 
L 581 3500 
L 1159 3500 
L 1159 2956 
Q 1366 3272 1645 3428 
Q 1925 3584 2291 3584 
Q 2894 3584 3203 3211 
Q 3513 2838 3513 2113 
z
" transform="scale(0.015625)"/>
      <path id="DejaVuSans-41" d="M 2188 4044 
L 1331 1722 
L 3047 1722 
L 2188 4044 
z
M 1831 4666 
L 2547 4666 
L 4325 0 
L 3669 0 
L 3244 1197 
L 1141 1197 
L 716 0 
L 50 0 
L 1831 4666 
z
" transform="scale(0.015625)"/>
      <path id="DejaVuSans-55" d="M 556 4666 
L 1191 4666 
L 1191 1831 
Q 1191 1081 1462 751 
Q 1734 422 2344 422 
Q 2950 422 3222 751 
Q 3494 1081 3494 1831 
L 3494 4666 
L 4128 4666 
L 4128 1753 
Q 4128 841 3676 375 
Q 3225 -91 2344 -91 
Q 1459 -91 1007 375 
Q 556 841 556 1753 
L 556 4666 
z
" transform="scale(0.015625)"/>
      <path id="DejaVuSans-3d" d="M 678 2906 
L 4684 2906 
L 4684 2381 
L 678 2381 
L 678 2906 
z
M 678 1631 
L 4684 1631 
L 4684 1100 
L 678 1100 
L 678 1631 
z
" transform="scale(0.015625)"/>
      <path id="DejaVuSans-37" d="M 525 4666 
L 3525 4666 
L 3525 4397 
L 1831 0 
L 1172 0 
L 2766 4134 
L 525 4134 
L 525 4666 
z
" transform="scale(0.015625)"/>
      <path id="DejaVuSans-28" d="M 1984 4856 
Q 1566 4138 1362 3434 
Q 1159 2731 1159 2009 
Q 1159 1288 1364 580 
Q 1569 -128 1984 -844 
L 1484 -844 
Q 1016 -109 783 600 
Q 550 1309 550 2009 
Q 550 2706 781 3412 
Q 1013 4119 1484 4856 
L 1984 4856 
z
" transform="scale(0.015625)"/>
      <path id="DejaVuSans-35" d="M 691 4666 
L 3169 4666 
L 3169 4134 
L 1269 4134 
L 1269 2991 
Q 1406 3038 1543 3061 
Q 1681 3084 1819 3084 
Q 2600 3084 3056 2656 
Q 3513 2228 3513 1497 
Q 3513 744 3044 326 
Q 2575 -91 1722 -91 
Q 1428 -91 1123 -41 
Q 819 9 494 109 
L 494 744 
Q 775 591 1075 516 
Q 1375 441 1709 441 
Q 2250 441 2565 725 
Q 2881 1009 2881 1497 
Q 2881 1984 2565 2268 
Q 2250 2553 1709 2553 
Q 1456 2553 1204 2497 
Q 953 2441 691 2322 
L 691 4666 
z
" transform="scale(0.015625)"/>
      <path id="DejaVuSans-66" d="M 2375 4863 
L 2375 4384 
L 1825 4384 
Q 1516 4384 1395 4259 
Q 1275 4134 1275 3809 
L 1275 3500 
L 2222 3500 
L 2222 3053 
L 1275 3053 
L 1275 0 
L 697 0 
L 697 3053 
L 147 3053 
L 147 3500 
L 697 3500 
L 697 3744 
Q 697 4328 969 4595 
Q 1241 4863 1831 4863 
L 2375 4863 
z
" transform="scale(0.015625)"/>
      <path id="DejaVuSans-29" d="M 513 4856 
L 1013 4856 
Q 1481 4119 1714 3412 
Q 1947 2706 1947 2009 
Q 1947 1309 1714 600 
Q 1481 -109 1013 -844 
L 513 -844 
Q 928 -128 1133 580 
Q 1338 1288 1338 2009 
Q 1338 2731 1133 3434 
Q 928 4138 513 4856 
z
" transform="scale(0.015625)"/>
     </defs>
     <use xlink:href="#DejaVuSans-4d"/>
     <use xlink:href="#DejaVuSans-65" transform="translate(86.279297 0)"/>
     <use xlink:href="#DejaVuSans-61" transform="translate(147.802734 0)"/>
     <use xlink:href="#DejaVuSans-6e" transform="translate(209.082031 0)"/>
     <use xlink:href="#DejaVuSans-20" transform="translate(272.460938 0)"/>
     <use xlink:href="#DejaVuSans-41" transform="translate(304.248047 0)"/>
     <use xlink:href="#DejaVuSans-55" transform="translate(372.65625 0)"/>
     <use xlink:href="#DejaVuSans-43" transform="translate(445.849609 0)"/>
     <use xlink:href="#DejaVuSans-20" transform="translate(515.673828 0)"/>
     <use xlink:href="#DejaVuSans-3d" transform="translate(547.460938 0)"/>
     <use xlink:href="#DejaVuSans-20" transform="translate(631.25 0)"/>
     <use xlink:href="#DejaVuSans-30" transform="translate(663.037109 0)"/>
     <use xlink:href="#DejaVuSans-2e" transform="translate(726.660156 0)"/>
     <use xlink:href="#DejaVuSans-38" transform="translate(758.447266 0)"/>
     <use xlink:href="#DejaVuSans-37" transform="translate(822.070312 0)"/>
     <use xlink:href="#DejaVuSans-36" transform="translate(885.693359 0)"/>
     <use xlink:href="#DejaVuSans-20" transform="translate(949.316406 0)"/>
     <use xlink:href="#DejaVuSans-28" transform="translate(981.103516 0)"/>
     <use xlink:href="#DejaVuSans-70" transform="translate(1020.117188 0)"/>
     <use xlink:href="#DejaVuSans-6f" transform="translate(1083.59375 0)"/>
     <use xlink:href="#DejaVuSans-6f" transform="translate(1144.775391 0)"/>
     <use xlink:href="#DejaVuSans-6c" transform="translate(1205.957031 0)"/>
     <use xlink:href="#DejaVuSans-65" transform="translate(1233.740234 0)"/>
     <use xlink:href="#DejaVuSans-64" transform="translate(1295.263672 0)"/>
     <use xlink:href="#DejaVuSans-20" transform="translate(1358.740234 0)"/>
     <use xlink:href="#DejaVuSans-61" transform="translate(1390.527344 0)"/>
     <use xlink:href="#DejaVuSans-63" transform="translate(1451.806641 0)"/>
     <use xlink:href="#DejaVuSans-72" transform="translate(1506.787109 0)"/>
     <use xlink:href="#DejaVuSans-6f" transform="translate(1545.650391 0)"/>
     <use xlink:href="#DejaVuSans-73" transform="translate(1606.832031 0)"/>
     <use xlink:href="#DejaVuSans-73" transform="translate(1658.931641 0)"/>
     <use xlink:href="#DejaVuSans-20" transform="translate(1711.03125 0)"/>
     <use xlink:href="#DejaVuSans-32" transform="translate(1742.818359 0)"/>
     <use xlink:href="#DejaVuSans-35" transform="translate(1806.441406 0)"/>
     <use xlink:href="#DejaVuSans-20" transform="translate(1870.064453 0)"/>
     <use xlink:href="#DejaVuSans-66" transform="translate(1901.851562 0)"/>
     <use xlink:href="#DejaVuSans-6f" transform="translate(1937.056641 0)"/>
     <use xlink:href="#DejaVuSans-6c" transform="translate(1998.238281 0)"/>
     <use xlink:href="#DejaVuSans-64" transform="translate(2026.021484 0)"/>
     <use xlink:href="#DejaVuSans-73" transform="translate(2089.498047 0)"/>
     <use xlink:href="#DejaVuSans-29" transform="translate(2141.597656 0)"/>
    </g>
   </g>
   <g id="legend_1">
    <g id="patch_5">
     <path d="M 198.045858 369.7515 
L 373.733046 369.7515 
Q 375.933046 369.7515 375.933046 367.5515 
L 375.933046 320.213687 
Q 375.933046 318.013687 373.733046 318.013687 
L 198.045858 318.013687 
Q 195.845858 318.013687 195.845858 320.213687 
L 195.845858 367.5515 
Q 195.845858 369.7515 198.045858 369.7515 
z
" style="fill: #ffffff; opacity: 0.8; stroke: #cccccc; stroke-linejoin: miter"/>
    </g>
    <g id="patch_6">
     <path d="M 200.245858 330.771969 
L 222.245858 330.771969 
L 222.245858 323.071969 
L 200.245858 323.071969 
z
" style="fill: #2980b9; fill-opacity: 0.2; stroke: #2980b9; stroke-opacity: 0.2; stroke-linejoin: miter"/>
    </g>
    <g id="text_16">
     <!-- +/-1 std band -->
     <g transform="translate(231.045858 330.771969) scale(0.11 -0.11)">
      <defs>
       <path id="DejaVuSans-2b" d="M 2944 4013 
L 2944 2272 
L 4684 2272 
L 4684 1741 
L 2944 1741 
L 2944 0 
L 2419 0 
L 2419 1741 
L 678 1741 
L 678 2272 
L 2419 2272 
L 2419 4013 
L 2944 4013 
z
" transform="scale(0.015625)"/>
       <path id="DejaVuSans-2f" d="M 1625 4666 
L 2156 4666 
L 531 -594 
L 0 -594 
L 1625 4666 
z
" transform="scale(0.015625)"/>
      </defs>
      <use xlink:href="#DejaVuSans-2b"/>
      <use xlink:href="#DejaVuSans-2f" transform="translate(83.789062 0)"/>
      <use xlink:href="#DejaVuSans-2d" transform="translate(117.480469 0)"/>
      <use xlink:href="#DejaVuSans-31" transform="translate(153.564453 0)"/>
      <use xlink:href="#DejaVuSans-20" transform="translate(217.1875 0)"/>
      <use xlink:href="#DejaVuSans-73" transform="translate(248.974609 0)"/>
      <use xlink:href="#DejaVuSans-74" transform="translate(301.074219 0)"/>
      <use xlink:href="#DejaVuSans-64" transform="translate(340.283203 0)"/>
      <use xlink:href="#DejaVuSans-20" transform="translate(403.759766 0)"/>
      <use xlink:href="#DejaVuSans-62" transform="translate(435.546875 0)"/>
      <use xlink:href="#DejaVuSans-61" transform="translate(499.023438 0)"/>
      <use xlink:href="#DejaVuSans-6e" transform="translate(560.302734 0)"/>
      <use xlink:href="#DejaVuSans-64" transform="translate(623.681641 0)"/>
     </g>
    </g>
    <g id="line2d_52">
     <path d="M 200.245858 343.067906 
L 211.245858 343.067906 
L 222.245858 343.067906 
" style="fill: none; stroke: #2980b9; stroke-width: 2.5; stroke-linecap: square"/>
    </g>
    <g id="text_17">
     <!-- Mean ROC (AUC = 0.876) -->
     <g transform="translate(231.045858 346.917906) scale(0.11 -0.11)">
      <use xlink:href="#DejaVuSans-4d"/>
      <use xlink:href="#DejaVuSans-65" transform="translate(86.279297 0)"/>
      <use xlink:href="#DejaVuSans-61" transform="translate(147.802734 0)"/>
      <use xlink:href="#DejaVuSans-6e" transform="translate(209.082031 0)"/>
      <use xlink:href="#DejaVuSans-20" transform="translate(272.460938 0)"/>
      <use xlink:href="#DejaVuSans-52" transform="translate(304.248047 0)"/>
      <use xlink:href="#DejaVuSans-4f" transform="translate(373.730469 0)"/>
      <use xlink:href="#DejaVuSans-43" transform="translate(452.441406 0)"/>
      <use xlink:href="#DejaVuSans-20" transform="translate(522.265625 0)"/>
      <use xlink:href="#DejaVuSans-28" transform="translate(554.052734 0)"/>
      <use xlink:href="#DejaVuSans-41" transform="translate(593.066406 0)"/>
      <use xlink:href="#DejaVuSans-55" transform="translate(661.474609 0)"/>
      <use xlink:href="#DejaVuSans-43" transform="translate(734.667969 0)"/>
      <use xlink:href="#DejaVuSans-20" transform="translate(804.492188 0)"/>
      <use xlink:href="#DejaVuSans-3d" transform="translate(836.279297 0)"/>
      <use xlink:href="#DejaVuSans-20" transform="translate(920.068359 0)"/>
      <use xlink:href="#DejaVuSans-30" transform="translate(951.855469 0)"/>
      <use xlink:href="#DejaVuSans-2e" transform="translate(1015.478516 0)"/>
      <use xlink:href="#DejaVuSans-38" transform="translate(1047.265625 0)"/>
      <use xlink:href="#DejaVuSans-37" transform="translate(1110.888672 0)"/>
      <use xlink:href="#DejaVuSans-36" transform="translate(1174.511719 0)"/>
      <use xlink:href="#DejaVuSans-29" transform="translate(1238.134766 0)"/>
     </g>
    </g>
    <g id="line2d_53">
     <path d="M 200.245858 359.213844 
L 211.245858 359.213844 
L 222.245858 359.213844 
" style="fill: none; stroke-dasharray: 5.55,2.4; stroke-dashoffset: 0; stroke: #808080; stroke-width: 1.5"/>
    </g>
    <g id="text_18">
     <!-- Random classifier -->
     <g transform="translate(231.045858 363.063844) scale(0.11 -0.11)">
      <defs>
       <path id="DejaVuSans-6d" d="M 3328 2828 
Q 3544 3216 3844 3400 
Q 4144 3584 4550 3584 
Q 5097 3584 5394 3201 
Q 5691 2819 5691 2113 
L 5691 0 
L 5113 0 
L 5113 2094 
Q 5113 2597 4934 2840 
Q 4756 3084 4391 3084 
Q 3944 3084 3684 2787 
Q 3425 2491 3425 1978 
L 3425 0 
L 2847 0 
L 2847 2094 
Q 2847 2600 2669 2842 
Q 2491 3084 2119 3084 
Q 1678 3084 1418 2786 
Q 1159 2488 1159 1978 
L 1159 0 
L 581 0 
L 581 3500 
L 1159 3500 
L 1159 2956 
Q 1356 3278 1631 3431 
Q 1906 3584 2284 3584 
Q 2666 3584 2933 3390 
Q 3200 3197 3328 2828 
z
" transform="scale(0.015625)"/>
      </defs>
      <use xlink:href="#DejaVuSans-52"/>
      <use xlink:href="#DejaVuSans-61" transform="translate(67.232422 0)"/>
      <use xlink:href="#DejaVuSans-6e" transform="translate(128.511719 0)"/>
      <use xlink:href="#DejaVuSans-64" transform="translate(191.890625 0)"/>
      <use xlink:href="#DejaVuSans-6f" transform="translate(255.367188 0)"/>
      <use xlink:href="#DejaVuSans-6d" transform="translate(316.548828 0)"/>
      <use xlink:href="#DejaVuSans-20" transform="translate(413.960938 0)"/>
      <use xlink:href="#DejaVuSans-63" transform="translate(445.748047 0)"/>
      <use xlink:href="#DejaVuSans-6c" transform="translate(500.728516 0)"/>
      <use xlink:href="#DejaVuSans-61" transform="translate(528.511719 0)"/>
      <use xlink:href="#DejaVuSans-73" transform="translate(589.791016 0)"/>
      <use xlink:href="#DejaVuSans-73" transform="translate(641.890625 0)"/>
      <use xlink:href="#DejaVuSans-69" transform="translate(693.990234 0)"/>
      <use xlink:href="#DejaVuSans-66" transform="translate(721.773438 0)"/>
      <use xlink:href="#DejaVuSans-69" transform="translate(756.978516 0)"/>
      <use xlink:href="#DejaVuSans-65" transform="translate(784.761719 0)"/>
      <use xlink:href="#DejaVuSans-72" transform="translate(846.285156 0)"/>
     </g>
    </g>
   </g>
  </g>
 </g>
 <defs>
  <clipPath id="p39a60f0f60">
   <rect x="51.455625" y="35.7555" width="329.977421" height="339.496"/>
  </clipPath>
 </defs>
</svg>
