<?xml version="1.0" encoding="utf-8" standalone="no"?>
<!DOCTYPE svg PUBLIC "-//W3C//DTD SVG 1.1//EN"
  "http://www.w3.org/Graphics/SVG/1.1/DTD/svg11.dtd">
<svg xmlns:xlink="http://www.w3.org/1999/xlink" width="461.259871pt" height="490.614625pt" viewBox="0 0 461.259871 490.614625" xmlns="http://www.w3.org/2000/svg" version="1.1">
 <metadata>
  <rdf:RDF xmlns:dc="http://purl.org/dc/elements/1.1/" xmlns:cc="http://creativecommons.org/ns#" xmlns:rdf="http://www.w3.org/1999/02/22-rdf-syntax-ns#">
   <cc:Work>
    <dc:type rdf:resource="http://purl.org/dc/dcmitype/StillImage"/>
    <dc:date>2026-05-07T16:38:07.486400</dc:date>
    <dc:format>image/svg+xml</dc:format>
    <dc:creator>
     <cc:Agent>
      <dc:title>Matplotlib v3.10.8, https://matplotlib.org/</dc:title>
     </cc:Agent>
    </dc:creator>
   </cc:Work>
  </rdf:RDF>
 </metadata>
 <defs>
  <style type="text/css">*{stroke-linejoin: round; stroke-linecap: butt}</style>
 </defs>
 <g id="figure_1">
  <g id="patch_1">
   <path d="M 0 490.614625 
L 461.259871 490.614625 
L 461.259871 0 
L 0 0 
z
" style="fill: #ffffff"/>
  </g>
  <g id="axes_1">
   <g id="patch_2">
    <path d="M 51.455625 447.2515 
L 451.414354 447.2515 
L 451.414354 35.7555 
L 51.455625 35.7555 
z
" style="fill: #ffffff"/>
   </g>
   <g id="matplotlib.axis_1">
    <g id="xtick_1">
     <g id="line2d_1">
      <path d="M 59.147139 447.2515 
L 59.147139 35.7555 
" clip-path="url(#pf68a365d59)" style="fill: none; stroke: #b0b0b0; stroke-opacity: 0.3; stroke-width: 0.8; stroke-linecap: square"/>
     </g>
     <g id="line2d_2">
      <defs>
       <path id="m27c5c90ee3" d="M 0 0 
L 0 3.5 
" style="stroke: #000000; stroke-width: 0.8"/>
      </defs>
      <g>
       <use xlink:href="#m27c5c90ee3" x="59.147139" y="447.2515" style="stroke: #000000; stroke-width: 0.8"/>
      </g>
     </g>
     <g id="text_1">
      <!-- 0.0 -->
      <g transform="translate(48.810108 464.129469) scale(0.13 -0.13)">
       <defs>
        <path id="DejaVuSans-30" d="M 2034 4250 
Q 1547 4250 1301 3770 
Q 1056 3291 1056 2328 
Q 1056 1369 1301 889 
Q 1547 409 2034 409 
Q 2525 409 2770 889 
Q 3016 1369 3016 2328 
Q 3016 3291 2770 3770 
Q 2525 4250 2034 4250 
z
M 2034 4750 
Q 2819 4750 3233 4129 
Q 3647 3509 3647 2328 
Q 3647 1150 3233 529 
Q 2819 -91 2034 -91 
Q 1250 -91 836 529 
Q 422 1150 422 2328 
Q 422 3509 836 4129 
Q 1250 4750 2034 4750 
z
" transform="scale(0.015625)"/>
        <path id="DejaVuSans-2e" d="M 684 794 
L 1344 794 
L 1344 0 
L 684 0 
L 684 794 
z
" transform="scale(0.015625)"/>
       </defs>
       <use xlink:href="#DejaVuSans-30"/>
       <use xlink:href="#DejaVuSans-2e" transform="translate(63.623047 0)"/>
       <use xlink:href="#DejaVuSans-30" transform="translate(95.410156 0)"/>
      </g>
     </g>
    </g>
    <g id="xtick_2">
     <g id="line2d_3">
      <path d="M 136.062279 447.2515 
L 136.062279 35.7555 
" clip-path="url(#pf68a365d59)" style="fill: none; stroke: #b0b0b0; stroke-opacity: 0.3; stroke-width: 0.8; stroke-linecap: square"/>
     </g>
     <g id="line2d_4">
      <g>
       <use xlink:href="#m27c5c90ee3" x="136.062279" y="447.2515" style="stroke: #000000; stroke-width: 0.8"/>
      </g>
     </g>
     <g id="text_2">
      <!-- 0.2 -->
      <g transform="translate(125.725248 464.129469) scale(0.13 -0.13)">
       <defs>
        <path id="DejaVuSans-32" d="M 1228 531 
L 3431 531 
L 3431 0 
L 469 0 
L 469 531 
Q 828 903 1448 1529 
Q 2069 2156 2228 2338 
Q 2531 2678 2651 2914 
Q 2772 3150 2772 3378 
Q 2772 3750 2511 3984 
Q 2250 4219 1831 4219 
Q 1534 4219 1204 4116 
Q 875 4013 500 3803 
L 500 4441 
Q 881 4594 1212 4672 
Q 1544 4750 1819 4750 
Q 2544 4750 2975 4387 
Q 3406 4025 3406 3419 
Q 3406 3131 3298 2873 
Q 3191 2616 2906 2266 
Q 2828 2175 2409 1742 
Q 1991 1309 1228 531 
z
" transform="scale(0.015625)"/>
       </defs>
       <use xlink:href="#DejaVuSans-30"/>
       <use xlink:href="#DejaVuSans-2e" transform="translate(63.623047 0)"/>
       <use xlink:href="#DejaVuSans-32" transform="translate(95.410156 0)"/>
      </g>
     </g>
    </g>
    <g id="xtick_3">
     <g id="line2d_5">
      <path d="M 212.977419 447.2515 
L 212.977419 35.7555 
" clip-path="url(#pf68a365d59)" style="fill: none; stroke: #b0b0b0; stroke-opacity: 0.3; stroke-width: 0.8; stroke-linecap: square"/>
     </g>
     <g id="line2d_6">
      <g>
       <use xlink:href="#m27c5c90ee3" x="212.977419" y="447.2515" style="stroke: #000000; stroke-width: 0.8"/>
      </g>
     </g>
     <g id="text_3">
      <!-- 0.4 -->
      <g transform="translate(202.640388 464.129469) scale(0.13 -0.13)">
       <defs>
        <path id="DejaVuSans-34" d="M 2419 4116 
L 825 1625 
L 2419 1625 
L 2419 4116 
z
M 2253 4666 
L 3047 4666 
L 3047 1625 
L 3713 1625 
L 3713 1100 
L 3047 1100 
L 3047 0 
L 2419 0 
L 2419 1100 
L 313 1100 
L 313 1709 
L 2253 4666 
z
" transform="scale(0.015625)"/>
       </defs>
       <use xlink:href="#DejaVuSans-30"/>
       <use xlink:href="#DejaVuSans-2e" transform="translate(63.623047 0)"/>
       <use xlink:href="#DejaVuSans-34" transform="translate(95.410156 0)"/>
      </g>
     </g>
    </g>
    <g id="xtick_4">
     <g id="line2d_7">
      <path d="M 289.89256 447.2515 
L 289.89256 35.7555 
" clip-path="url(#pf68a365d59)" style="fill: none; stroke: #b0b0b0; stroke-opacity: 0.3; stroke-width: 0.8; stroke-linecap: square"/>
     </g>
     <g id="line2d_8">
      <g>
       <use xlink:href="#m27c5c90ee3" x="289.89256" y="447.2515" style="stroke: #000000; stroke-width: 0.8"/>
      </g>
     </g>
     <g id="text_4">
      <!-- 0.6 -->
      <g transform="translate(279.555528 464.129469) scale(0.13 -0.13)">
       <defs>
        <path id="DejaVuSans-36" d="M 2113 2584 
Q 1688 2584 1439 2293 
Q 1191 2003 1191 1497 
Q 1191 994 1439 701 
Q 1688 409 2113 409 
Q 2538 409 2786 701 
Q 3034 994 3034 1497 
Q 3034 2003 2786 2293 
Q 2538 2584 2113 2584 
z
M 3366 4563 
L 3366 3988 
Q 3128 4100 2886 4159 
Q 2644 4219 2406 4219 
Q 1781 4219 1451 3797 
Q 1122 3375 1075 2522 
Q 1259 2794 1537 2939 
Q 1816 3084 2150 3084 
Q 2853 3084 3261 2657 
Q 3669 2231 3669 1497 
Q 3669 778 3244 343 
Q 2819 -91 2113 -91 
Q 1303 -91 875 529 
Q 447 1150 447 2328 
Q 447 3434 972 4092 
Q 1497 4750 2381 4750 
Q 2619 4750 2861 4703 
Q 3103 4656 3366 4563 
z
" transform="scale(0.015625)"/>
       </defs>
       <use xlink:href="#DejaVuSans-30"/>
       <use xlink:href="#DejaVuSans-2e" transform="translate(63.623047 0)"/>
       <use xlink:href="#DejaVuSans-36" transform="translate(95.410156 0)"/>
      </g>
     </g>
    </g>
    <g id="xtick_5">
     <g id="line2d_9">
      <path d="M 366.8077 447.2515 
L 366.8077 35.7555 
" clip-path="url(#pf68a365d59)" style="fill: none; stroke: #b0b0b0; stroke-opacity: 0.3; stroke-width: 0.8; stroke-linecap: square"/>
     </g>
     <g id="line2d_10">
      <g>
       <use xlink:href="#m27c5c90ee3" x="366.8077" y="447.2515" style="stroke: #000000; stroke-width: 0.8"/>
      </g>
     </g>
     <g id="text_5">
      <!-- 0.8 -->
      <g transform="translate(356.470669 464.129469) scale(0.13 -0.13)">
       <defs>
        <path id="DejaVuSans-38" d="M 2034 2216 
Q 1584 2216 1326 1975 
Q 1069 1734 1069 1313 
Q 1069 891 1326 650 
Q 1584 409 2034 409 
Q 2484 409 2743 651 
Q 3003 894 3003 1313 
Q 3003 1734 2745 1975 
Q 2488 2216 2034 2216 
z
M 1403 2484 
Q 997 2584 770 2862 
Q 544 3141 544 3541 
Q 544 4100 942 4425 
Q 1341 4750 2034 4750 
Q 2731 4750 3128 4425 
Q 3525 4100 3525 3541 
Q 3525 3141 3298 2862 
Q 3072 2584 2669 2484 
Q 3125 2378 3379 2068 
Q 3634 1759 3634 1313 
Q 3634 634 3220 271 
Q 2806 -91 2034 -91 
Q 1263 -91 848 271 
Q 434 634 434 1313 
Q 434 1759 690 2068 
Q 947 2378 1403 2484 
z
M 1172 3481 
Q 1172 3119 1398 2916 
Q 1625 2713 2034 2713 
Q 2441 2713 2670 2916 
Q 2900 3119 2900 3481 
Q 2900 3844 2670 4047 
Q 2441 4250 2034 4250 
Q 1625 4250 1398 4047 
Q 1172 3844 1172 3481 
z
" transform="scale(0.015625)"/>
       </defs>
       <use xlink:href="#DejaVuSans-30"/>
       <use xlink:href="#DejaVuSans-2e" transform="translate(63.623047 0)"/>
       <use xlink:href="#DejaVuSans-38" transform="translate(95.410156 0)"/>
      </g>
     </g>
    </g>
    <g id="xtick_6">
     <g id="line2d_11">
      <path d="M 443.72284 447.2515 
L 443.72284 35.7555 
" clip-path="url(#pf68a365d59)" style="fill: none; stroke: #b0b0b0; stroke-opacity: 0.3; stroke-width: 0.8; stroke-linecap: square"/>
     </g>
     <g id="line2d_12">
      <g>
       <use xlink:href="#m27c5c90ee3" x="443.72284" y="447.2515" style="stroke: #000000; stroke-width: 0.8"/>
      </g>
     </g>
     <g id="text_6">
      <!-- 1.0 -->
      <g transform="translate(433.385809 464.129469) scale(0.13 -0.13)">
       <defs>
        <path id="DejaVuSans-31" d="M 794 531 
L 1825 531 
L 1825 4091 
L 703 3866 
L 703 4441 
L 1819 4666 
L 2450 4666 
L 2450 531 
L 3481 531 
L 3481 0 
L 794 0 
L 794 531 
z
" transform="scale(0.015625)"/>
       </defs>
       <use xlink:href="#DejaVuSans-31"/>
       <use xlink:href="#DejaVuSans-2e" transform="translate(63.623047 0)"/>
       <use xlink:href="#DejaVuSans-30" transform="translate(95.410156 0)"/>
      </g>
     </g>
    </g>
    <g id="text_7">
     <!-- False positive rate -->
     <g transform="translate(192.283974 480.711031) scale(0.13 -0.13)">
      <defs>
       <path id="DejaVuSans-46" d="M 628 4666 
L 3309 4666 
L 3309 4134 
L 1259 4134 
L 1259 2759 
L 3109 2759 
L 3109 2228 
L 1259 2228 
L 1259 0 
L 628 0 
L 628 4666 
z
" transform="scale(0.015625)"/>
       <path id="DejaVuSans-61" d="M 2194 1759 
Q 1497 1759 1228 1600 
Q 959 1441 959 1056 
Q 959 750 1161 570 
Q 1363 391 1709 391 
Q 2188 391 2477 730 
Q 2766 1069 2766 1631 
L 2766 1759 
L 2194 1759 
z
M 3341 1997 
L 3341 0 
L 2766 0 
L 2766 531 
Q 2569 213 2275 61 
Q 1981 -91 1556 -91 
Q 1019 -91 701 211 
Q 384 513 384 1019 
Q 384 1609 779 1909 
Q 1175 2209 1959 2209 
L 2766 2209 
L 2766 2266 
Q 2766 2663 2505 2880 
Q 2244 3097 1772 3097 
Q 1472 3097 1187 3025 
Q 903 2953 641 2809 
L 641 3341 
Q 956 3463 1253 3523 
Q 1550 3584 1831 3584 
Q 2591 3584 2966 3190 
Q 3341 2797 3341 1997 
z
" transform="scale(0.015625)"/>
       <path id="DejaVuSans-6c" d="M 603 4863 
L 1178 4863 
L 1178 0 
L 603 0 
L 603 4863 
z
" transform="scale(0.015625)"/>
       <path id="DejaVuSans-73" d="M 2834 3397 
L 2834 2853 
Q 2591 2978 2328 3040 
Q 2066 3103 1784 3103 
Q 1356 3103 1142 2972 
Q 928 2841 928 2578 
Q 928 2378 1081 2264 
Q 1234 2150 1697 2047 
L 1894 2003 
Q 2506 1872 2764 1633 
Q 3022 1394 3022 966 
Q 3022 478 2636 193 
Q 2250 -91 1575 -91 
Q 1294 -91 989 -36 
Q 684 19 347 128 
L 347 722 
Q 666 556 975 473 
Q 1284 391 1588 391 
Q 1994 391 2212 530 
Q 2431 669 2431 922 
Q 2431 1156 2273 1281 
Q 2116 1406 1581 1522 
L 1381 1569 
Q 847 1681 609 1914 
Q 372 2147 372 2553 
Q 372 3047 722 3315 
Q 1072 3584 1716 3584 
Q 2034 3584 2315 3537 
Q 2597 3491 2834 3397 
z
" transform="scale(0.015625)"/>
       <path id="DejaVuSans-65" d="M 3597 1894 
L 3597 1613 
L 953 1613 
Q 991 1019 1311 708 
Q 1631 397 2203 397 
Q 2534 397 2845 478 
Q 3156 559 3463 722 
L 3463 178 
Q 3153 47 2828 -22 
Q 2503 -91 2169 -91 
Q 1331 -91 842 396 
Q 353 884 353 1716 
Q 353 2575 817 3079 
Q 1281 3584 2069 3584 
Q 2775 3584 3186 3129 
Q 3597 2675 3597 1894 
z
M 3022 2063 
Q 3016 2534 2758 2815 
Q 2500 3097 2075 3097 
Q 1594 3097 1305 2825 
Q 1016 2553 972 2059 
L 3022 2063 
z
" transform="scale(0.015625)"/>
       <path id="DejaVuSans-20" transform="scale(0.015625)"/>
       <path id="DejaVuSans-70" d="M 1159 525 
L 1159 -1331 
L 581 -1331 
L 581 3500 
L 1159 3500 
L 1159 2969 
Q 1341 3281 1617 3432 
Q 1894 3584 2278 3584 
Q 2916 3584 3314 3078 
Q 3713 2572 3713 1747 
Q 3713 922 3314 415 
Q 2916 -91 2278 -91 
Q 1894 -91 1617 61 
Q 1341 213 1159 525 
z
M 3116 1747 
Q 3116 2381 2855 2742 
Q 2594 3103 2138 3103 
Q 1681 3103 1420 2742 
Q 1159 2381 1159 1747 
Q 1159 1113 1420 752 
Q 1681 391 2138 391 
Q 2594 391 2855 752 
Q 3116 1113 3116 1747 
z
" transform="scale(0.015625)"/>
       <path id="DejaVuSans-6f" d="M 1959 3097 
Q 1497 3097 1228 2736 
Q 959 2375 959 1747 
Q 959 1119 1226 758 
Q 1494 397 1959 397 
Q 2419 397 2687 759 
Q 2956 1122 2956 1747 
Q 2956 2369 2687 2733 
Q 2419 3097 1959 3097 
z
M 1959 3584 
Q 2709 3584 3137 3096 
Q 3566 2609 3566 1747 
Q 3566 888 3137 398 
Q 2709 -91 1959 -91 
Q 1206 -91 779 398 
Q 353 888 353 1747 
Q 353 2609 779 3096 
Q 1206 3584 1959 3584 
z
" transform="scale(0.015625)"/>
       <path id="DejaVuSans-69" d="M 603 3500 
L 1178 3500 
L 1178 0 
L 603 0 
L 603 3500 
z
M 603 4863 
L 1178 4863 
L 1178 4134 
L 603 4134 
L 603 4863 
z
" transform="scale(0.015625)"/>
       <path id="DejaVuSans-74" d="M 1172 4494 
L 1172 3500 
L 2356 3500 
L 2356 3053 
L 1172 3053 
L 1172 1153 
Q 1172 725 1289 603 
Q 1406 481 1766 481 
L 2356 481 
L 2356 0 
L 1766 0 
Q 1100 0 847 248 
Q 594 497 594 1153 
L 594 3053 
L 172 3053 
L 172 3500 
L 594 3500 
L 594 4494 
L 1172 4494 
z
" transform="scale(0.015625)"/>
       <path id="DejaVuSans-76" d="M 191 3500 
L 800 3500 
L 1894 563 
L 2988 3500 
L 3597 3500 
L 2284 0 
L 1503 0 
L 191 3500 
z
" transform="scale(0.015625)"/>
       <path id="DejaVuSans-72" d="M 2631 2963 
Q 2534 3019 2420 3045 
Q 2306 3072 2169 3072 
Q 1681 3072 1420 2755 
Q 1159 2438 1159 1844 
L 1159 0 
L 581 0 
L 581 3500 
L 1159 3500 
L 1159 2956 
Q 1341 3275 1631 3429 
Q 1922 3584 2338 3584 
Q 2397 3584 2469 3576 
Q 2541 3569 2628 3553 
L 2631 2963 
z
" transform="scale(0.015625)"/>
      </defs>
      <use xlink:href="#DejaVuSans-46"/>
      <use xlink:href="#DejaVuSans-61" transform="translate(48.394531 0)"/>
      <use xlink:href="#DejaVuSans-6c" transform="translate(109.673828 0)"/>
      <use xlink:href="#DejaVuSans-73" transform="translate(137.457031 0)"/>
      <use xlink:href="#DejaVuSans-65" transform="translate(189.556641 0)"/>
      <use xlink:href="#DejaVuSans-20" transform="translate(251.080078 0)"/>
      <use xlink:href="#DejaVuSans-70" transform="translate(282.867188 0)"/>
      <use xlink:href="#DejaVuSans-6f" transform="translate(346.34375 0)"/>
      <use xlink:href="#DejaVuSans-73" transform="translate(407.525391 0)"/>
      <use xlink:href="#DejaVuSans-69" transform="translate(459.625 0)"/>
      <use xlink:href="#DejaVuSans-74" transform="translate(487.408203 0)"/>
      <use xlink:href="#DejaVuSans-69" transform="translate(526.617188 0)"/>
      <use xlink:href="#DejaVuSans-76" transform="translate(554.400391 0)"/>
      <use xlink:href="#DejaVuSans-65" transform="translate(613.580078 0)"/>
      <use xlink:href="#DejaVuSans-20" transform="translate(675.103516 0)"/>
      <use xlink:href="#DejaVuSans-72" transform="translate(706.890625 0)"/>
      <use xlink:href="#DejaVuSans-61" transform="translate(748.003906 0)"/>
      <use xlink:href="#DejaVuSans-74" transform="translate(809.283203 0)"/>
      <use xlink:href="#DejaVuSans-65" transform="translate(848.492188 0)"/>
     </g>
    </g>
   </g>
   <g id="matplotlib.axis_2">
    <g id="ytick_1">
     <g id="line2d_13">
      <path d="M 51.455625 439.559986 
L 451.414354 439.559986 
" clip-path="url(#pf68a365d59)" style="fill: none; stroke: #b0b0b0; stroke-opacity: 0.3; stroke-width: 0.8; stroke-linecap: square"/>
     </g>
     <g id="line2d_14">
      <defs>
       <path id="md0cb18f354" d="M 0 0 
L -3.5 0 
" style="stroke: #000000; stroke-width: 0.8"/>
      </defs>
      <g>
       <use xlink:href="#md0cb18f354" x="51.455625" y="439.559986" style="stroke: #000000; stroke-width: 0.8"/>
      </g>
     </g>
     <g id="text_8">
      <!-- 0.0 -->
      <g transform="translate(23.781563 444.49897) scale(0.13 -0.13)">
       <use xlink:href="#DejaVuSans-30"/>
       <use xlink:href="#DejaVuSans-2e" transform="translate(63.623047 0)"/>
       <use xlink:href="#DejaVuSans-30" transform="translate(95.410156 0)"/>
      </g>
     </g>
    </g>
    <g id="ytick_2">
     <g id="line2d_15">
      <path d="M 51.455625 362.644846 
L 451.414354 362.644846 
" clip-path="url(#pf68a365d59)" style="fill: none; stroke: #b0b0b0; stroke-opacity: 0.3; stroke-width: 0.8; stroke-linecap: square"/>
     </g>
     <g id="line2d_16">
      <g>
       <use xlink:href="#md0cb18f354" x="51.455625" y="362.644846" style="stroke: #000000; stroke-width: 0.8"/>
      </g>
     </g>
     <g id="text_9">
      <!-- 0.2 -->
      <g transform="translate(23.781563 367.58383) scale(0.13 -0.13)">
       <use xlink:href="#DejaVuSans-30"/>
       <use xlink:href="#DejaVuSans-2e" transform="translate(63.623047 0)"/>
       <use xlink:href="#DejaVuSans-32" transform="translate(95.410156 0)"/>
      </g>
     </g>
    </g>
    <g id="ytick_3">
     <g id="line2d_17">
      <path d="M 51.455625 285.729706 
L 451.414354 285.729706 
" clip-path="url(#pf68a365d59)" style="fill: none; stroke: #b0b0b0; stroke-opacity: 0.3; stroke-width: 0.8; stroke-linecap: square"/>
     </g>
     <g id="line2d_18">
      <g>
       <use xlink:href="#md0cb18f354" x="51.455625" y="285.729706" style="stroke: #000000; stroke-width: 0.8"/>
      </g>
     </g>
     <g id="text_10">
      <!-- 0.4 -->
      <g transform="translate(23.781563 290.66869) scale(0.13 -0.13)">
       <use xlink:href="#DejaVuSans-30"/>
       <use xlink:href="#DejaVuSans-2e" transform="translate(63.623047 0)"/>
       <use xlink:href="#DejaVuSans-34" transform="translate(95.410156 0)"/>
      </g>
     </g>
    </g>
    <g id="ytick_4">
     <g id="line2d_19">
      <path d="M 51.455625 208.814565 
L 451.414354 208.814565 
" clip-path="url(#pf68a365d59)" style="fill: none; stroke: #b0b0b0; stroke-opacity: 0.3; stroke-width: 0.8; stroke-linecap: square"/>
     </g>
     <g id="line2d_20">
      <g>
       <use xlink:href="#md0cb18f354" x="51.455625" y="208.814565" style="stroke: #000000; stroke-width: 0.8"/>
      </g>
     </g>
     <g id="text_11">
      <!-- 0.6 -->
      <g transform="translate(23.781563 213.75355) scale(0.13 -0.13)">
       <use xlink:href="#DejaVuSans-30"/>
       <use xlink:href="#DejaVuSans-2e" transform="translate(63.623047 0)"/>
       <use xlink:href="#DejaVuSans-36" transform="translate(95.410156 0)"/>
      </g>
     </g>
    </g>
    <g id="ytick_5">
     <g id="line2d_21">
      <path d="M 51.455625 131.899425 
L 451.414354 131.899425 
" clip-path="url(#pf68a365d59)" style="fill: none; stroke: #b0b0b0; stroke-opacity: 0.3; stroke-width: 0.8; stroke-linecap: square"/>
     </g>
     <g id="line2d_22">
      <g>
       <use xlink:href="#md0cb18f354" x="51.455625" y="131.899425" style="stroke: #000000; stroke-width: 0.8"/>
      </g>
     </g>
     <g id="text_12">
      <!-- 0.8 -->
      <g transform="translate(23.781563 136.83841) scale(0.13 -0.13)">
       <use xlink:href="#DejaVuSans-30"/>
       <use xlink:href="#DejaVuSans-2e" transform="translate(63.623047 0)"/>
       <use xlink:href="#DejaVuSans-38" transform="translate(95.410156 0)"/>
      </g>
     </g>
    </g>
    <g id="ytick_6">
     <g id="line2d_23">
      <path d="M 51.455625 54.984285 
L 451.414354 54.984285 
" clip-path="url(#pf68a365d59)" style="fill: none; stroke: #b0b0b0; stroke-opacity: 0.3; stroke-width: 0.8; stroke-linecap: square"/>
     </g>
     <g id="line2d_24">
      <g>
       <use xlink:href="#md0cb18f354" x="51.455625" y="54.984285" style="stroke: #000000; stroke-width: 0.8"/>
      </g>
     </g>
     <g id="text_13">
      <!-- 1.0 -->
      <g transform="translate(23.781563 59.923269) scale(0.13 -0.13)">
       <use xlink:href="#DejaVuSans-31"/>
       <use xlink:href="#DejaVuSans-2e" transform="translate(63.623047 0)"/>
       <use xlink:href="#DejaVuSans-30" transform="translate(95.410156 0)"/>
      </g>
     </g>
    </g>
    <g id="text_14">
     <!-- True positive rate -->
     <g transform="translate(17.077969 298.136781) rotate(-90) scale(0.13 -0.13)">
      <defs>
       <path id="DejaVuSans-54" d="M -19 4666 
L 3928 4666 
L 3928 4134 
L 2272 4134 
L 2272 0 
L 1638 0 
L 1638 4134 
L -19 4134 
L -19 4666 
z
" transform="scale(0.015625)"/>
       <path id="DejaVuSans-75" d="M 544 1381 
L 544 3500 
L 1119 3500 
L 1119 1403 
Q 1119 906 1312 657 
Q 1506 409 1894 409 
Q 2359 409 2629 706 
Q 2900 1003 2900 1516 
L 2900 3500 
L 3475 3500 
L 3475 0 
L 2900 0 
L 2900 538 
Q 2691 219 2414 64 
Q 2138 -91 1772 -91 
Q 1169 -91 856 284 
Q 544 659 544 1381 
z
M 1991 3584 
L 1991 3584 
z
" transform="scale(0.015625)"/>
      </defs>
      <use xlink:href="#DejaVuSans-54"/>
      <use xlink:href="#DejaVuSans-72" transform="translate(46.333984 0)"/>
      <use xlink:href="#DejaVuSans-75" transform="translate(87.447266 0)"/>
      <use xlink:href="#DejaVuSans-65" transform="translate(150.826172 0)"/>
      <use xlink:href="#DejaVuSans-20" transform="translate(212.349609 0)"/>
      <use xlink:href="#DejaVuSans-70" transform="translate(244.136719 0)"/>
      <use xlink:href="#DejaVuSans-6f" transform="translate(307.613281 0)"/>
      <use xlink:href="#DejaVuSans-73" transform="translate(368.794922 0)"/>
      <use xlink:href="#DejaVuSans-69" transform="translate(420.894531 0)"/>
      <use xlink:href="#DejaVuSans-74" transform="translate(448.677734 0)"/>
      <use xlink:href="#DejaVuSans-69" transform="translate(487.886719 0)"/>
      <use xlink:href="#DejaVuSans-76" transform="translate(515.669922 0)"/>
      <use xlink:href="#DejaVuSans-65" transform="translate(574.849609 0)"/>
      <use xlink:href="#DejaVuSans-20" transform="translate(636.373047 0)"/>
      <use xlink:href="#DejaVuSans-72" transform="translate(668.160156 0)"/>
      <use xlink:href="#DejaVuSans-61" transform="translate(709.273438 0)"/>
      <use xlink:href="#DejaVuSans-74" transform="translate(770.552734 0)"/>
      <use xlink:href="#DejaVuSans-65" transform="translate(809.761719 0)"/>
     </g>
    </g>
   </g>
   <g id="line2d_25">
    <path d="M 59.147139 439.559986 
L 59.147139 272.698628 
L 59.703689 272.698628 
L 59.703689 235.353467 
L 60.260238 235.353467 
L 60.260238 231.380578 
L 60.816788 231.380578 
L 60.816788 222.640221 
L 61.373337 222.640221 
L 61.373337 208.337819 
L 61.929886 208.337819 
L 61.929886 205.159507 
L 62.486436 205.159507 
L 62.486436 203.570351 
L 63.042985 203.570351 
L 63.042985 174.170969 
L 63.599535 174.170969 
L 63.599535 170.19808 
L 64.156084 170.19808 
L 64.156084 163.841457 
L 64.712634 163.841457 
L 64.712634 160.663145 
L 65.269183 160.663145 
L 65.269183 149.539054 
L 65.825733 149.539054 
L 65.825733 144.771587 
L 66.382282 144.771587 
L 66.382282 143.977009 
L 67.495381 143.977009 
L 67.495381 141.593276 
L 68.60848 141.593276 
L 68.60848 129.674607 
L 69.16503 129.674607 
L 69.16503 128.085451 
L 69.721579 128.085451 
L 69.721579 123.317984 
L 70.834678 123.317984 
L 70.834678 117.755939 
L 71.391228 117.755939 
L 71.391228 111.399316 
L 71.947777 111.399316 
L 71.947777 108.221004 
L 72.504327 108.221004 
L 72.504327 107.426426 
L 74.173975 107.426426 
L 74.173975 105.83727 
L 74.730525 105.83727 
L 74.730525 102.658959 
L 75.287074 102.658959 
L 75.287074 101.864381 
L 75.843624 101.864381 
L 75.843624 98.686069 
L 76.400173 98.686069 
L 76.400173 97.891491 
L 78.069822 97.891491 
L 78.069822 97.096913 
L 79.73947 97.096913 
L 79.73947 96.302336 
L 80.852569 96.302336 
L 80.852569 95.507758 
L 81.409119 95.507758 
L 81.409119 94.71318 
L 81.965668 94.71318 
L 81.965668 93.918602 
L 82.522218 93.918602 
L 82.522218 93.124024 
L 83.078767 93.124024 
L 83.078767 92.329446 
L 85.304965 92.329446 
L 85.304965 89.151135 
L 86.418064 89.151135 
L 86.418064 87.561979 
L 87.531163 87.561979 
L 87.531163 85.972823 
L 88.644262 85.972823 
L 88.644262 85.178245 
L 89.200812 85.178245 
L 89.200812 81.205356 
L 97.549054 81.205356 
L 97.549054 80.410778 
L 99.218703 80.410778 
L 99.218703 79.6162 
L 100.888351 79.6162 
L 100.888351 78.027044 
L 101.444901 78.027044 
L 101.444901 77.232466 
L 106.453846 77.232466 
L 106.453846 76.437888 
L 107.010396 76.437888 
L 107.010396 75.64331 
L 107.566945 75.64331 
L 107.566945 74.848732 
L 108.680044 74.848732 
L 108.680044 74.054155 
L 118.141385 74.054155 
L 118.141385 73.259577 
L 120.367583 73.259577 
L 120.367583 71.670421 
L 125.376529 71.670421 
L 125.376529 70.875843 
L 127.046177 70.875843 
L 127.046177 70.081265 
L 129.272375 70.081265 
L 129.272375 69.286687 
L 129.828925 69.286687 
L 129.828925 68.492109 
L 130.942024 68.492109 
L 130.942024 67.697531 
L 132.055123 67.697531 
L 132.055123 66.108376 
L 133.724771 66.108376 
L 133.724771 65.313798 
L 135.39442 65.313798 
L 135.39442 64.51922 
L 140.403365 64.51922 
L 140.403365 63.724642 
L 145.412311 63.724642 
L 145.412311 62.930064 
L 147.638509 62.930064 
L 147.638509 62.135486 
L 151.534355 62.135486 
L 151.534355 61.340908 
L 154.873652 61.340908 
L 154.873652 60.54633 
L 165.448093 60.54633 
L 165.448093 59.751752 
L 173.796335 59.751752 
L 173.796335 58.957175 
L 182.701127 58.957175 
L 182.701127 58.162597 
L 184.370775 58.162597 
L 184.370775 57.368019 
L 201.62381 57.368019 
L 201.62381 56.573441 
L 208.858953 56.573441 
L 208.858953 55.778863 
L 283.993135 55.778863 
L 283.993135 54.984285 
L 443.72284 54.984285 
L 443.72284 54.984285 
" clip-path="url(#pf68a365d59)" style="fill: none; stroke: #7f8c8d; stroke-width: 2.2; stroke-linecap: square"/>
   </g>
   <g id="line2d_26">
    <path d="M 59.147139 439.559986 
L 59.147139 438.808862 
L 59.147139 194.693426 
L 60.307247 194.693426 
L 60.307247 154.883832 
L 60.887301 154.883832 
L 60.887301 153.381584 
L 61.467354 153.381584 
L 61.467354 148.123713 
L 62.047408 148.123713 
L 62.047408 127.092229 
L 62.627462 127.092229 
L 62.627462 123.336607 
L 63.207516 123.336607 
L 63.207516 118.078736 
L 63.78757 118.078736 
L 63.78757 117.327612 
L 64.947677 117.327612 
L 64.947677 109.065243 
L 65.527731 109.065243 
L 65.527731 102.305123 
L 66.107785 102.305123 
L 66.107785 96.296128 
L 67.267893 96.296128 
L 67.267893 95.545004 
L 68.428001 95.545004 
L 68.428001 90.287133 
L 70.168162 90.287133 
L 70.168162 84.278137 
L 71.908324 84.278137 
L 71.908324 82.024764 
L 72.488378 82.024764 
L 72.488378 80.522515 
L 74.808593 80.522515 
L 74.808593 79.020266 
L 75.388647 79.020266 
L 75.388647 73.762395 
L 77.708862 73.762395 
L 77.708862 73.011271 
L 78.86897 73.011271 
L 78.86897 72.260147 
L 80.029078 72.260147 
L 80.029078 71.509022 
L 80.609131 71.509022 
L 80.609131 70.757898 
L 81.769239 70.757898 
L 81.769239 70.006773 
L 84.089454 70.006773 
L 84.089454 69.255649 
L 87.569778 69.255649 
L 87.569778 68.504525 
L 88.149831 68.504525 
L 88.149831 67.7534 
L 89.309939 67.7534 
L 89.309939 66.251151 
L 90.470047 66.251151 
L 90.470047 65.500027 
L 91.630154 65.500027 
L 91.630154 64.748902 
L 93.370316 64.748902 
L 93.370316 63.997778 
L 95.690531 63.997778 
L 95.690531 63.246654 
L 97.430693 63.246654 
L 97.430693 62.495529 
L 100.330962 62.495529 
L 100.330962 61.744405 
L 104.971393 61.744405 
L 104.971393 60.99328 
L 108.451716 60.99328 
L 108.451716 60.242156 
L 116.57247 60.242156 
L 116.57247 58.739907 
L 118.892685 58.739907 
L 118.892685 57.988783 
L 121.792955 57.988783 
L 121.792955 57.237658 
L 130.493762 57.237658 
L 130.493762 56.486534 
L 150.215593 56.486534 
L 150.215593 55.735409 
L 172.837693 55.735409 
L 172.837693 54.984285 
L 443.72284 54.984285 
" clip-path="url(#pf68a365d59)" style="fill: none; stroke: #2980b9; stroke-width: 2.2; stroke-linecap: square"/>
   </g>
   <g id="line2d_27">
    <path d="M 59.147139 439.559986 
L 59.147139 438.773533 
L 59.147139 159.582584 
L 59.707745 159.582584 
L 59.707745 118.687009 
L 60.268351 118.687009 
L 60.268351 117.114102 
L 60.828957 117.114102 
L 60.828957 93.5205 
L 61.389563 93.5205 
L 61.389563 91.947594 
L 63.631987 91.947594 
L 63.631987 90.374687 
L 64.192593 90.374687 
L 64.192593 88.015327 
L 64.753199 88.015327 
L 64.753199 85.655967 
L 65.313805 85.655967 
L 65.313805 84.869513 
L 65.874411 84.869513 
L 65.874411 84.08306 
L 66.435017 84.08306 
L 66.435017 82.510153 
L 67.556229 82.510153 
L 67.556229 80.937246 
L 68.116835 80.937246 
L 68.116835 80.150793 
L 68.677441 80.150793 
L 68.677441 76.218526 
L 70.359259 76.218526 
L 70.359259 75.432073 
L 71.480471 75.432073 
L 71.480471 73.859166 
L 73.162288 73.859166 
L 73.162288 72.286259 
L 75.404712 72.286259 
L 75.404712 71.499806 
L 75.965318 71.499806 
L 75.965318 70.713353 
L 76.525924 70.713353 
L 76.525924 69.926899 
L 77.647136 69.926899 
L 77.647136 69.140446 
L 78.768348 69.140446 
L 78.768348 67.567539 
L 79.88956 67.567539 
L 79.88956 65.208179 
L 81.571378 65.208179 
L 81.571378 64.421726 
L 82.69259 64.421726 
L 82.69259 63.635272 
L 83.813802 63.635272 
L 83.813802 62.848819 
L 86.616832 62.848819 
L 86.616832 62.062365 
L 87.177438 62.062365 
L 87.177438 61.275912 
L 87.738044 61.275912 
L 87.738044 60.489459 
L 89.980468 60.489459 
L 89.980468 59.703005 
L 90.541074 59.703005 
L 90.541074 58.916552 
L 102.874405 58.916552 
L 102.874405 58.130099 
L 115.768343 58.130099 
L 115.768343 57.343645 
L 128.101674 57.343645 
L 128.101674 56.557192 
L 143.798642 56.557192 
L 143.798642 54.984285 
L 443.72284 54.984285 
" clip-path="url(#pf68a365d59)" style="fill: none; stroke: #16a085; stroke-width: 2.2; stroke-linecap: square"/>
   </g>
   <g id="line2d_28">
    <path d="M 59.147139 439.559986 
L 443.72284 54.984285 
" clip-path="url(#pf68a365d59)" style="fill: none; stroke-dasharray: 5.18,2.24; stroke-dashoffset: 0; stroke: #808080; stroke-width: 1.4"/>
   </g>
   <g id="patch_3">
    <path d="M 51.455625 447.2515 
L 51.455625 35.7555 
" style="fill: none; stroke: #000000; stroke-width: 0.8; stroke-linejoin: miter; stroke-linecap: square"/>
   </g>
   <g id="patch_4">
    <path d="M 51.455625 447.2515 
L 451.414354 447.2515 
" style="fill: none; stroke: #000000; stroke-width: 0.8; stroke-linejoin: miter; stroke-linecap: square"/>
   </g>
   <g id="text_15">
    <!-- ROC curves - three-backbone comparison -->
    <g transform="translate(126.321864 16.318125) scale(0.12 -0.12)">
     <defs>
      <path id="DejaVuSans-52" d="M 2841 2188 
Q 3044 2119 3236 1894 
Q 3428 1669 3622 1275 
L 4263 0 
L 3584 0 
L 2988 1197 
Q 2756 1666 2539 1819 
Q 2322 1972 1947 1972 
L 1259 1972 
L 1259 0 
L 628 0 
L 628 4666 
L 2053 4666 
Q 2853 4666 3247 4331 
Q 3641 3997 3641 3322 
Q 3641 2881 3436 2590 
Q 3231 2300 2841 2188 
z
M 1259 4147 
L 1259 2491 
L 2053 2491 
Q 2509 2491 2742 2702 
Q 2975 2913 2975 3322 
Q 2975 3731 2742 3939 
Q 2509 4147 2053 4147 
L 1259 4147 
z
" transform="scale(0.015625)"/>
      <path id="DejaVuSans-4f" d="M 2522 4238 
Q 1834 4238 1429 3725 
Q 1025 3213 1025 2328 
Q 1025 1447 1429 934 
Q 1834 422 2522 422 
Q 3209 422 3611 934 
Q 4013 1447 4013 2328 
Q 4013 3213 3611 3725 
Q 3209 4238 2522 4238 
z
M 2522 4750 
Q 3503 4750 4090 4092 
Q 4678 3434 4678 2328 
Q 4678 1225 4090 567 
Q 3503 -91 2522 -91 
Q 1538 -91 948 565 
Q 359 1222 359 2328 
Q 359 3434 948 4092 
Q 1538 4750 2522 4750 
z
" transform="scale(0.015625)"/>
      <path id="DejaVuSans-43" d="M 4122 4306 
L 4122 3641 
Q 3803 3938 3442 4084 
Q 3081 4231 2675 4231 
Q 1875 4231 1450 3742 
Q 1025 3253 1025 2328 
Q 1025 1406 1450 917 
Q 1875 428 2675 428 
Q 3081 428 3442 575 
Q 3803 722 4122 1019 
L 4122 359 
Q 3791 134 3420 21 
Q 3050 -91 2638 -91 
Q 1578 -91 968 557 
Q 359 1206 359 2328 
Q 359 3453 968 4101 
Q 1578 4750 2638 4750 
Q 3056 4750 3426 4639 
Q 3797 4528 4122 4306 
z
" transform="scale(0.015625)"/>
      <path id="DejaVuSans-63" d="M 3122 3366 
L 3122 2828 
Q 2878 2963 2633 3030 
Q 2388 3097 2138 3097 
Q 1578 3097 1268 2742 
Q 959 2388 959 1747 
Q 959 1106 1268 751 
Q 1578 397 2138 397 
Q 2388 397 2633 464 
Q 2878 531 3122 666 
L 3122 134 
Q 2881 22 2623 -34 
Q 2366 -91 2075 -91 
Q 1284 -91 818 406 
Q 353 903 353 1747 
Q 353 2603 823 3093 
Q 1294 3584 2113 3584 
Q 2378 3584 2631 3529 
Q 2884 3475 3122 3366 
z
" transform="scale(0.015625)"/>
      <path id="DejaVuSans-2d" d="M 313 2009 
L 1997 2009 
L 1997 1497 
L 313 1497 
L 313 2009 
z
" transform="scale(0.015625)"/>
      <path id="DejaVuSans-68" d="M 3513 2113 
L 3513 0 
L 2938 0 
L 2938 2094 
Q 2938 2591 2744 2837 
Q 2550 3084 2163 3084 
Q 1697 3084 1428 2787 
Q 1159 2491 1159 1978 
L 1159 0 
L 581 0 
L 581 4863 
L 1159 4863 
L 1159 2956 
Q 1366 3272 1645 3428 
Q 1925 3584 2291 3584 
Q 2894 3584 3203 3211 
Q 3513 2838 3513 2113 
z
" transform="scale(0.015625)"/>
      <path id="DejaVuSans-62" d="M 3116 1747 
Q 3116 2381 2855 2742 
Q 2594 3103 2138 3103 
Q 1681 3103 1420 2742 
Q 1159 2381 1159 1747 
Q 1159 1113 1420 752 
Q 1681 391 2138 391 
Q 2594 391 2855 752 
Q 3116 1113 3116 1747 
z
M 1159 2969 
Q 1341 3281 1617 3432 
Q 1894 3584 2278 3584 
Q 2916 3584 3314 3078 
Q 3713 2572 3713 1747 
Q 3713 922 3314 415 
Q 2916 -91 2278 -91 
Q 1894 -91 1617 61 
Q 1341 213 1159 525 
L 1159 0 
L 581 0 
L 581 4863 
L 1159 4863 
L 1159 2969 
z
" transform="scale(0.015625)"/>
      <path id="DejaVuSans-6b" d="M 581 4863 
L 1159 4863 
L 1159 1991 
L 2875 3500 
L 3609 3500 
L 1753 1863 
L 3688 0 
L 2938 0 
L 1159 1709 
L 1159 0 
L 581 0 
L 581 4863 
z
" transform="scale(0.015625)"/>
      <path id="DejaVuSans-6e" d="M 3513 2113 
L 3513 0 
L 2938 0 
L 2938 2094 
Q 2938 2591 2744 2837 
Q 2550 3084 2163 3084 
Q 1697 3084 1428 2787 
Q 1159 2491 1159 1978 
L 1159 0 
L 581 0 
L 581 3500 
L 1159 3500 
L 1159 2956 
Q 1366 3272 1645 3428 
Q 1925 3584 2291 3584 
Q 2894 3584 3203 3211 
Q 3513 2838 3513 2113 
z
" transform="scale(0.015625)"/>
      <path id="DejaVuSans-6d" d="M 3328 2828 
Q 3544 3216 3844 3400 
Q 4144 3584 4550 3584 
Q 5097 3584 5394 3201 
Q 5691 2819 5691 2113 
L 5691 0 
L 5113 0 
L 5113 2094 
Q 5113 2597 4934 2840 
Q 4756 3084 4391 3084 
Q 3944 3084 3684 2787 
Q 3425 2491 3425 1978 
L 3425 0 
L 2847 0 
L 2847 2094 
Q 2847 2600 2669 2842 
Q 2491 3084 2119 3084 
Q 1678 3084 1418 2786 
Q 1159 2488 1159 1978 
L 1159 0 
L 581 0 
L 581 3500 
L 1159 3500 
L 1159 2956 
Q 1356 3278 1631 3431 
Q 1906 3584 2284 3584 
Q 2666 3584 2933 3390 
Q 3200 3197 3328 2828 
z
" transform="scale(0.015625)"/>
     </defs>
     <use xlink:href="#DejaVuSans-52"/>
     <use xlink:href="#DejaVuSans-4f" transform="translate(69.482422 0)"/>
     <use xlink:href="#DejaVuSans-43" transform="translate(148.193359 0)"/>
     <use xlink:href="#DejaVuSans-20" transform="translate(218.017578 0)"/>
     <use xlink:href="#DejaVuSans-63" transform="translate(249.804688 0)"/>
     <use xlink:href="#DejaVuSans-75" transform="translate(304.785156 0)"/>
     <use xlink:href="#DejaVuSans-72" transform="translate(368.164062 0)"/>
     <use xlink:href="#DejaVuSans-76" transform="translate(409.277344 0)"/>
     <use xlink:href="#DejaVuSans-65" transform="translate(468.457031 0)"/>
     <use xlink:href="#DejaVuSans-73" transform="translate(529.980469 0)"/>
     <use xlink:href="#DejaVuSans-20" transform="translate(582.080078 0)"/>
     <use xlink:href="#DejaVuSans-2d" transform="translate(613.867188 0)"/>
     <use xlink:href="#DejaVuSans-20" transform="translate(649.951172 0)"/>
     <use xlink:href="#DejaVuSans-74" transform="translate(681.738281 0)"/>
     <use xlink:href="#DejaVuSans-68" transform="translate(720.947266 0)"/>
     <use xlink:href="#DejaVuSans-72" transform="translate(784.326172 0)"/>
     <use xlink:href="#DejaVuSans-65" transform="translate(823.189453 0)"/>
     <use xlink:href="#DejaVuSans-65" transform="translate(884.712891 0)"/>
     <use xlink:href="#DejaVuSans-2d" transform="translate(946.236328 0)"/>
     <use xlink:href="#DejaVuSans-62" transform="translate(982.320312 0)"/>
     <use xlink:href="#DejaVuSans-61" transform="translate(1045.796875 0)"/>
     <use xlink:href="#DejaVuSans-63" transform="translate(1107.076172 0)"/>
     <use xlink:href="#DejaVuSans-6b" transform="translate(1162.056641 0)"/>
     <use xlink:href="#DejaVuSans-62" transform="translate(1219.966797 0)"/>
     <use xlink:href="#DejaVuSans-6f" transform="translate(1283.443359 0)"/>
     <use xlink:href="#DejaVuSans-6e" transform="translate(1344.625 0)"/>
     <use xlink:href="#DejaVuSans-65" transform="translate(1408.003906 0)"/>
     <use xlink:href="#DejaVuSans-20" transform="translate(1469.527344 0)"/>
     <use xlink:href="#DejaVuSans-63" transform="translate(1501.314453 0)"/>
     <use xlink:href="#DejaVuSans-6f" transform="translate(1556.294922 0)"/>
     <use xlink:href="#DejaVuSans-6d" transform="translate(1617.476562 0)"/>
     <use xlink:href="#DejaVuSans-70" transform="translate(1714.888672 0)"/>
     <use xlink:href="#DejaVuSans-61" transform="translate(1778.365234 0)"/>
     <use xlink:href="#DejaVuSans-72" transform="translate(1839.644531 0)"/>
     <use xlink:href="#DejaVuSans-69" transform="translate(1880.757812 0)"/>
     <use xlink:href="#DejaVuSans-73" transform="translate(1908.541016 0)"/>
     <use xlink:href="#DejaVuSans-6f" transform="translate(1960.640625 0)"/>
     <use xlink:href="#DejaVuSans-6e" transform="translate(2021.822266 0)"/>
    </g>
    <!-- Pooled across CV folds per model -->
    <g transform="translate(151.429989 29.7555) scale(0.12 -0.12)">
     <defs>
      <path id="DejaVuSans-50" d="M 1259 4147 
L 1259 2394 
L 2053 2394 
Q 2494 2394 2734 2622 
Q 2975 2850 2975 3272 
Q 2975 3691 2734 3919 
Q 2494 4147 2053 4147 
L 1259 4147 
z
M 628 4666 
L 2053 4666 
Q 2838 4666 3239 4311 
Q 3641 3956 3641 3272 
Q 3641 2581 3239 2228 
Q 2838 1875 2053 1875 
L 1259 1875 
L 1259 0 
L 628 0 
L 628 4666 
z
" transform="scale(0.015625)"/>
      <path id="DejaVuSans-64" d="M 2906 2969 
L 2906 4863 
L 3481 4863 
L 3481 0 
L 2906 0 
L 2906 525 
Q 2725 213 2448 61 
Q 2172 -91 1784 -91 
Q 1150 -91 751 415 
Q 353 922 353 1747 
Q 353 2572 751 3078 
Q 1150 3584 1784 3584 
Q 2172 3584 2448 3432 
Q 2725 3281 2906 2969 
z
M 947 1747 
Q 947 1113 1208 752 
Q 1469 391 1925 391 
Q 2381 391 2643 752 
Q 2906 1113 2906 1747 
Q 2906 2381 2643 2742 
Q 2381 3103 1925 3103 
Q 1469 3103 1208 2742 
Q 947 2381 947 1747 
z
" transform="scale(0.015625)"/>
      <path id="DejaVuSans-56" d="M 1831 0 
L 50 4666 
L 709 4666 
L 2188 738 
L 3669 4666 
L 4325 4666 
L 2547 0 
L 1831 0 
z
" transform="scale(0.015625)"/>
      <path id="DejaVuSans-66" d="M 2375 4863 
L 2375 4384 
L 1825 4384 
Q 1516 4384 1395 4259 
Q 1275 4134 1275 3809 
L 1275 3500 
L 2222 3500 
L 2222 3053 
L 1275 3053 
L 1275 0 
L 697 0 
L 697 3053 
L 147 3053 
L 147 3500 
L 697 3500 
L 697 3744 
Q 697 4328 969 4595 
Q 1241 4863 1831 4863 
L 2375 4863 
z
" transform="scale(0.015625)"/>
     </defs>
     <use xlink:href="#DejaVuSans-50"/>
     <use xlink:href="#DejaVuSans-6f" transform="translate(56.677734 0)"/>
     <use xlink:href="#DejaVuSans-6f" transform="translate(117.859375 0)"/>
     <use xlink:href="#DejaVuSans-6c" transform="translate(179.041016 0)"/>
     <use xlink:href="#DejaVuSans-65" transform="translate(206.824219 0)"/>
     <use xlink:href="#DejaVuSans-64" transform="translate(268.347656 0)"/>
     <use xlink:href="#DejaVuSans-20" transform="translate(331.824219 0)"/>
     <use xlink:href="#DejaVuSans-61" transform="translate(363.611328 0)"/>
     <use xlink:href="#DejaVuSans-63" transform="translate(424.890625 0)"/>
     <use xlink:href="#DejaVuSans-72" transform="translate(479.871094 0)"/>
     <use xlink:href="#DejaVuSans-6f" transform="translate(518.734375 0)"/>
     <use xlink:href="#DejaVuSans-73" transform="translate(579.916016 0)"/>
     <use xlink:href="#DejaVuSans-73" transform="translate(632.015625 0)"/>
     <use xlink:href="#DejaVuSans-20" transform="translate(684.115234 0)"/>
     <use xlink:href="#DejaVuSans-43" transform="translate(715.902344 0)"/>
     <use xlink:href="#DejaVuSans-56" transform="translate(785.726562 0)"/>
     <use xlink:href="#DejaVuSans-20" transform="translate(854.134766 0)"/>
     <use xlink:href="#DejaVuSans-66" transform="translate(885.921875 0)"/>
     <use xlink:href="#DejaVuSans-6f" transform="translate(921.126953 0)"/>
     <use xlink:href="#DejaVuSans-6c" transform="translate(982.308594 0)"/>
     <use xlink:href="#DejaVuSans-64" transform="translate(1010.091797 0)"/>
     <use xlink:href="#DejaVuSans-73" transform="translate(1073.568359 0)"/>
     <use xlink:href="#DejaVuSans-20" transform="translate(1125.667969 0)"/>
     <use xlink:href="#DejaVuSans-70" transform="translate(1157.455078 0)"/>
     <use xlink:href="#DejaVuSans-65" transform="translate(1220.931641 0)"/>
     <use xlink:href="#DejaVuSans-72" transform="translate(1282.455078 0)"/>
     <use xlink:href="#DejaVuSans-20" transform="translate(1323.568359 0)"/>
     <use xlink:href="#DejaVuSans-6d" transform="translate(1355.355469 0)"/>
     <use xlink:href="#DejaVuSans-6f" transform="translate(1452.767578 0)"/>
     <use xlink:href="#DejaVuSans-64" transform="translate(1513.949219 0)"/>
     <use xlink:href="#DejaVuSans-65" transform="translate(1577.425781 0)"/>
     <use xlink:href="#DejaVuSans-6c" transform="translate(1638.949219 0)"/>
    </g>
   </g>
   <g id="legend_1">
    <g id="patch_5">
     <path d="M 240.664666 441.7515 
L 443.714354 441.7515 
Q 445.914354 441.7515 445.914354 439.5515 
L 445.914354 376.06775 
Q 445.914354 373.86775 443.714354 373.86775 
L 240.664666 373.86775 
Q 238.464666 373.86775 238.464666 376.06775 
L 238.464666 439.5515 
Q 238.464666 441.7515 240.664666 441.7515 
z
" style="fill: #ffffff; opacity: 0.8; stroke: #cccccc; stroke-linejoin: miter"/>
    </g>
    <g id="line2d_29">
     <path d="M 242.864666 382.776031 
L 253.864666 382.776031 
L 264.864666 382.776031 
" style="fill: none; stroke: #7f8c8d; stroke-width: 2.2; stroke-linecap: square"/>
    </g>
    <g id="text_16">
     <!-- roberta  (AUC = 0.977) -->
     <g transform="translate(273.664666 386.626031) scale(0.11 -0.11)">
      <defs>
       <path id="DejaVuSans-28" d="M 1984 4856 
Q 1566 4138 1362 3434 
Q 1159 2731 1159 2009 
Q 1159 1288 1364 580 
Q 1569 -128 1984 -844 
L 1484 -844 
Q 1016 -109 783 600 
Q 550 1309 550 2009 
Q 550 2706 781 3412 
Q 1013 4119 1484 4856 
L 1984 4856 
z
" transform="scale(0.015625)"/>
       <path id="DejaVuSans-41" d="M 2188 4044 
L 1331 1722 
L 3047 1722 
L 2188 4044 
z
M 1831 4666 
L 2547 4666 
L 4325 0 
L 3669 0 
L 3244 1197 
L 1141 1197 
L 716 0 
L 50 0 
L 1831 4666 
z
" transform="scale(0.015625)"/>
       <path id="DejaVuSans-55" d="M 556 4666 
L 1191 4666 
L 1191 1831 
Q 1191 1081 1462 751 
Q 1734 422 2344 422 
Q 2950 422 3222 751 
Q 3494 1081 3494 1831 
L 3494 4666 
L 4128 4666 
L 4128 1753 
Q 4128 841 3676 375 
Q 3225 -91 2344 -91 
Q 1459 -91 1007 375 
Q 556 841 556 1753 
L 556 4666 
z
" transform="scale(0.015625)"/>
       <path id="DejaVuSans-3d" d="M 678 2906 
L 4684 2906 
L 4684 2381 
L 678 2381 
L 678 2906 
z
M 678 1631 
L 4684 1631 
L 4684 1100 
L 678 1100 
L 678 1631 
z
" transform="scale(0.015625)"/>
       <path id="DejaVuSans-39" d="M 703 97 
L 703 672 
Q 941 559 1184 500 
Q 1428 441 1663 441 
Q 2288 441 2617 861 
Q 2947 1281 2994 2138 
Q 2813 1869 2534 1725 
Q 2256 1581 1919 1581 
Q 1219 1581 811 2004 
Q 403 2428 403 3163 
Q 403 3881 828 4315 
Q 1253 4750 1959 4750 
Q 2769 4750 3195 4129 
Q 3622 3509 3622 2328 
Q 3622 1225 3098 567 
Q 2575 -91 1691 -91 
Q 1453 -91 1209 -44 
Q 966 3 703 97 
z
M 1959 2075 
Q 2384 2075 2632 2365 
Q 2881 2656 2881 3163 
Q 2881 3666 2632 3958 
Q 2384 4250 1959 4250 
Q 1534 4250 1286 3958 
Q 1038 3666 1038 3163 
Q 1038 2656 1286 2365 
Q 1534 2075 1959 2075 
z
" transform="scale(0.015625)"/>
       <path id="DejaVuSans-37" d="M 525 4666 
L 3525 4666 
L 3525 4397 
L 1831 0 
L 1172 0 
L 2766 4134 
L 525 4134 
L 525 4666 
z
" transform="scale(0.015625)"/>
       <path id="DejaVuSans-29" d="M 513 4856 
L 1013 4856 
Q 1481 4119 1714 3412 
Q 1947 2706 1947 2009 
Q 1947 1309 1714 600 
Q 1481 -109 1013 -844 
L 513 -844 
Q 928 -128 1133 580 
Q 1338 1288 1338 2009 
Q 1338 2731 1133 3434 
Q 928 4138 513 4856 
z
" transform="scale(0.015625)"/>
      </defs>
      <use xlink:href="#DejaVuSans-72"/>
      <use xlink:href="#DejaVuSans-6f" transform="translate(38.863281 0)"/>
      <use xlink:href="#DejaVuSans-62" transform="translate(100.044922 0)"/>
      <use xlink:href="#DejaVuSans-65" transform="translate(163.521484 0)"/>
      <use xlink:href="#DejaVuSans-72" transform="translate(225.044922 0)"/>
      <use xlink:href="#DejaVuSans-74" transform="translate(266.158203 0)"/>
      <use xlink:href="#DejaVuSans-61" transform="translate(305.367188 0)"/>
      <use xlink:href="#DejaVuSans-20" transform="translate(366.646484 0)"/>
      <use xlink:href="#DejaVuSans-20" transform="translate(398.433594 0)"/>
      <use xlink:href="#DejaVuSans-28" transform="translate(430.220703 0)"/>
      <use xlink:href="#DejaVuSans-41" transform="translate(469.234375 0)"/>
      <use xlink:href="#DejaVuSans-55" transform="translate(537.642578 0)"/>
      <use xlink:href="#DejaVuSans-43" transform="translate(610.835938 0)"/>
      <use xlink:href="#DejaVuSans-20" transform="translate(680.660156 0)"/>
      <use xlink:href="#DejaVuSans-3d" transform="translate(712.447266 0)"/>
      <use xlink:href="#DejaVuSans-20" transform="translate(796.236328 0)"/>
      <use xlink:href="#DejaVuSans-30" transform="translate(828.023438 0)"/>
      <use xlink:href="#DejaVuSans-2e" transform="translate(891.646484 0)"/>
      <use xlink:href="#DejaVuSans-39" transform="translate(923.433594 0)"/>
      <use xlink:href="#DejaVuSans-37" transform="translate(987.056641 0)"/>
      <use xlink:href="#DejaVuSans-37" transform="translate(1050.679688 0)"/>
      <use xlink:href="#DejaVuSans-29" transform="translate(1114.302734 0)"/>
     </g>
    </g>
    <g id="line2d_30">
     <path d="M 242.864666 398.921969 
L 253.864666 398.921969 
L 264.864666 398.921969 
" style="fill: none; stroke: #2980b9; stroke-width: 2.2; stroke-linecap: square"/>
    </g>
    <g id="text_17">
     <!-- codebert  (AUC = 0.991) -->
     <g transform="translate(273.664666 402.771969) scale(0.11 -0.11)">
      <use xlink:href="#DejaVuSans-63"/>
      <use xlink:href="#DejaVuSans-6f" transform="translate(54.980469 0)"/>
      <use xlink:href="#DejaVuSans-64" transform="translate(116.162109 0)"/>
      <use xlink:href="#DejaVuSans-65" transform="translate(179.638672 0)"/>
      <use xlink:href="#DejaVuSans-62" transform="translate(241.162109 0)"/>
      <use xlink:href="#DejaVuSans-65" transform="translate(304.638672 0)"/>
      <use xlink:href="#DejaVuSans-72" transform="translate(366.162109 0)"/>
      <use xlink:href="#DejaVuSans-74" transform="translate(407.275391 0)"/>
      <use xlink:href="#DejaVuSans-20" transform="translate(446.484375 0)"/>
      <use xlink:href="#DejaVuSans-20" transform="translate(478.271484 0)"/>
      <use xlink:href="#DejaVuSans-28" transform="translate(510.058594 0)"/>
      <use xlink:href="#DejaVuSans-41" transform="translate(549.072266 0)"/>
      <use xlink:href="#DejaVuSans-55" transform="translate(617.480469 0)"/>
      <use xlink:href="#DejaVuSans-43" transform="translate(690.673828 0)"/>
      <use xlink:href="#DejaVuSans-20" transform="translate(760.498047 0)"/>
      <use xlink:href="#DejaVuSans-3d" transform="translate(792.285156 0)"/>
      <use xlink:href="#DejaVuSans-20" transform="translate(876.074219 0)"/>
      <use xlink:href="#DejaVuSans-30" transform="translate(907.861328 0)"/>
      <use xlink:href="#DejaVuSans-2e" transform="translate(971.484375 0)"/>
      <use xlink:href="#DejaVuSans-39" transform="translate(1003.271484 0)"/>
      <use xlink:href="#DejaVuSans-39" transform="translate(1066.894531 0)"/>
      <use xlink:href="#DejaVuSans-31" transform="translate(1130.517578 0)"/>
      <use xlink:href="#DejaVuSans-29" transform="translate(1194.140625 0)"/>
     </g>
    </g>
    <g id="line2d_31">
     <path d="M 242.864666 415.067906 
L 253.864666 415.067906 
L 264.864666 415.067906 
" style="fill: none; stroke: #16a085; stroke-width: 2.2; stroke-linecap: square"/>
    </g>
    <g id="text_18">
     <!-- graphcodebert  (AUC = 0.995) -->
     <g transform="translate(273.664666 418.917906) scale(0.11 -0.11)">
      <defs>
       <path id="DejaVuSans-67" d="M 2906 1791 
Q 2906 2416 2648 2759 
Q 2391 3103 1925 3103 
Q 1463 3103 1205 2759 
Q 947 2416 947 1791 
Q 947 1169 1205 825 
Q 1463 481 1925 481 
Q 2391 481 2648 825 
Q 2906 1169 2906 1791 
z
M 3481 434 
Q 3481 -459 3084 -895 
Q 2688 -1331 1869 -1331 
Q 1566 -1331 1297 -1286 
Q 1028 -1241 775 -1147 
L 775 -588 
Q 1028 -725 1275 -790 
Q 1522 -856 1778 -856 
Q 2344 -856 2625 -561 
Q 2906 -266 2906 331 
L 2906 616 
Q 2728 306 2450 153 
Q 2172 0 1784 0 
Q 1141 0 747 490 
Q 353 981 353 1791 
Q 353 2603 747 3093 
Q 1141 3584 1784 3584 
Q 2172 3584 2450 3431 
Q 2728 3278 2906 2969 
L 2906 3500 
L 3481 3500 
L 3481 434 
z
" transform="scale(0.015625)"/>
       <path id="DejaVuSans-35" d="M 691 4666 
L 3169 4666 
L 3169 4134 
L 1269 4134 
L 1269 2991 
Q 1406 3038 1543 3061 
Q 1681 3084 1819 3084 
Q 2600 3084 3056 2656 
Q 3513 2228 3513 1497 
Q 3513 744 3044 326 
Q 2575 -91 1722 -91 
Q 1428 -91 1123 -41 
Q 819 9 494 109 
L 494 744 
Q 775 591 1075 516 
Q 1375 441 1709 441 
Q 2250 441 2565 725 
Q 2881 1009 2881 1497 
Q 2881 1984 2565 2268 
Q 2250 2553 1709 2553 
Q 1456 2553 1204 2497 
Q 953 2441 691 2322 
L 691 4666 
z
" transform="scale(0.015625)"/>
      </defs>
      <use xlink:href="#DejaVuSans-67"/>
      <use xlink:href="#DejaVuSans-72" transform="translate(63.476562 0)"/>
      <use xlink:href="#DejaVuSans-61" transform="translate(104.589844 0)"/>
      <use xlink:href="#DejaVuSans-70" transform="translate(165.869141 0)"/>
      <use xlink:href="#DejaVuSans-68" transform="translate(229.345703 0)"/>
      <use xlink:href="#DejaVuSans-63" transform="translate(292.724609 0)"/>
      <use xlink:href="#DejaVuSans-6f" transform="translate(347.705078 0)"/>
      <use xlink:href="#DejaVuSans-64" transform="translate(408.886719 0)"/>
      <use xlink:href="#DejaVuSans-65" transform="translate(472.363281 0)"/>
      <use xlink:href="#DejaVuSans-62" transform="translate(533.886719 0)"/>
      <use xlink:href="#DejaVuSans-65" transform="translate(597.363281 0)"/>
      <use xlink:href="#DejaVuSans-72" transform="translate(658.886719 0)"/>
      <use xlink:href="#DejaVuSans-74" transform="translate(700 0)"/>
      <use xlink:href="#DejaVuSans-20" transform="translate(739.208984 0)"/>
      <use xlink:href="#DejaVuSans-20" transform="translate(770.996094 0)"/>
      <use xlink:href="#DejaVuSans-28" transform="translate(802.783203 0)"/>
      <use xlink:href="#DejaVuSans-41" transform="translate(841.796875 0)"/>
      <use xlink:href="#DejaVuSans-55" transform="translate(910.205078 0)"/>
      <use xlink:href="#DejaVuSans-43" transform="translate(983.398438 0)"/>
      <use xlink:href="#DejaVuSans-20" transform="translate(1053.222656 0)"/>
      <use xlink:href="#DejaVuSans-3d" transform="translate(1085.009766 0)"/>
      <use xlink:href="#DejaVuSans-20" transform="translate(1168.798828 0)"/>
      <use xlink:href="#DejaVuSans-30" transform="translate(1200.585938 0)"/>
      <use xlink:href="#DejaVuSans-2e" transform="translate(1264.208984 0)"/>
      <use xlink:href="#DejaVuSans-39" transform="translate(1295.996094 0)"/>
      <use xlink:href="#DejaVuSans-39" transform="translate(1359.619141 0)"/>
      <use xlink:href="#DejaVuSans-35" transform="translate(1423.242188 0)"/>
      <use xlink:href="#DejaVuSans-29" transform="translate(1486.865234 0)"/>
     </g>
    </g>
    <g id="line2d_32">
     <path d="M 242.864666 431.213844 
L 253.864666 431.213844 
L 264.864666 431.213844 
" style="fill: none; stroke-dasharray: 5.18,2.24; stroke-dashoffset: 0; stroke: #808080; stroke-width: 1.4"/>
    </g>
    <g id="text_19">
     <!-- Random classifier -->
     <g transform="translate(273.664666 435.063844) scale(0.11 -0.11)">
      <use xlink:href="#DejaVuSans-52"/>
      <use xlink:href="#DejaVuSans-61" transform="translate(67.232422 0)"/>
      <use xlink:href="#DejaVuSans-6e" transform="translate(128.511719 0)"/>
      <use xlink:href="#DejaVuSans-64" transform="translate(191.890625 0)"/>
      <use xlink:href="#DejaVuSans-6f" transform="translate(255.367188 0)"/>
      <use xlink:href="#DejaVuSans-6d" transform="translate(316.548828 0)"/>
      <use xlink:href="#DejaVuSans-20" transform="translate(413.960938 0)"/>
      <use xlink:href="#DejaVuSans-63" transform="translate(445.748047 0)"/>
      <use xlink:href="#DejaVuSans-6c" transform="translate(500.728516 0)"/>
      <use xlink:href="#DejaVuSans-61" transform="translate(528.511719 0)"/>
      <use xlink:href="#DejaVuSans-73" transform="translate(589.791016 0)"/>
      <use xlink:href="#DejaVuSans-73" transform="translate(641.890625 0)"/>
      <use xlink:href="#DejaVuSans-69" transform="translate(693.990234 0)"/>
      <use xlink:href="#DejaVuSans-66" transform="translate(721.773438 0)"/>
      <use xlink:href="#DejaVuSans-69" transform="translate(756.978516 0)"/>
      <use xlink:href="#DejaVuSans-65" transform="translate(784.761719 0)"/>
      <use xlink:href="#DejaVuSans-72" transform="translate(846.285156 0)"/>
     </g>
    </g>
   </g>
  </g>
 </g>
 <defs>
  <clipPath id="pf68a365d59">
   <rect x="51.455625" y="35.7555" width="399.958729" height="411.496"/>
  </clipPath>
 </defs>
</svg>
